%TF.GenerationSoftware,KiCad,Pcbnew,(5.1.10-1-10_14)*%
%TF.CreationDate,2021-06-28T12:16:04-04:00*%
%TF.ProjectId,fox_hunt_2m_fm,666f785f-6875-46e7-945f-326d5f666d2e,rev?*%
%TF.SameCoordinates,Original*%
%TF.FileFunction,Copper,L1,Top*%
%TF.FilePolarity,Positive*%
%FSLAX46Y46*%
G04 Gerber Fmt 4.6, Leading zero omitted, Abs format (unit mm)*
G04 Created by KiCad (PCBNEW (5.1.10-1-10_14)) date 2021-06-28 12:16:04*
%MOMM*%
%LPD*%
G01*
G04 APERTURE LIST*
%TA.AperFunction,ComponentPad*%
%ADD10O,1.600000X1.600000*%
%TD*%
%TA.AperFunction,ComponentPad*%
%ADD11R,1.600000X1.600000*%
%TD*%
%TA.AperFunction,SMDPad,CuDef*%
%ADD12R,0.650000X0.400000*%
%TD*%
%TA.AperFunction,SMDPad,CuDef*%
%ADD13R,1.060000X0.650000*%
%TD*%
%TA.AperFunction,ComponentPad*%
%ADD14C,1.600000*%
%TD*%
%TA.AperFunction,ComponentPad*%
%ADD15O,1.700000X1.700000*%
%TD*%
%TA.AperFunction,ComponentPad*%
%ADD16R,1.700000X1.700000*%
%TD*%
%TA.AperFunction,SMDPad,CuDef*%
%ADD17R,5.080000X1.270000*%
%TD*%
%TA.AperFunction,SMDPad,CuDef*%
%ADD18C,17.800000*%
%TD*%
%TA.AperFunction,ViaPad*%
%ADD19C,0.800000*%
%TD*%
%TA.AperFunction,Conductor*%
%ADD20C,0.250000*%
%TD*%
%TA.AperFunction,Conductor*%
%ADD21C,0.400000*%
%TD*%
%TA.AperFunction,Conductor*%
%ADD22C,0.254000*%
%TD*%
%TA.AperFunction,Conductor*%
%ADD23C,0.100000*%
%TD*%
G04 APERTURE END LIST*
%TO.P,C7,2*%
%TO.N,GND*%
%TA.AperFunction,SMDPad,CuDef*%
G36*
G01*
X140819160Y-118402220D02*
X139569160Y-118402220D01*
G75*
G02*
X139319160Y-118152220I0J250000D01*
G01*
X139319160Y-117227220D01*
G75*
G02*
X139569160Y-116977220I250000J0D01*
G01*
X140819160Y-116977220D01*
G75*
G02*
X141069160Y-117227220I0J-250000D01*
G01*
X141069160Y-118152220D01*
G75*
G02*
X140819160Y-118402220I-250000J0D01*
G01*
G37*
%TD.AperFunction*%
%TO.P,C7,1*%
%TO.N,+3V3*%
%TA.AperFunction,SMDPad,CuDef*%
G36*
G01*
X140819160Y-121377220D02*
X139569160Y-121377220D01*
G75*
G02*
X139319160Y-121127220I0J250000D01*
G01*
X139319160Y-120202220D01*
G75*
G02*
X139569160Y-119952220I250000J0D01*
G01*
X140819160Y-119952220D01*
G75*
G02*
X141069160Y-120202220I0J-250000D01*
G01*
X141069160Y-121127220D01*
G75*
G02*
X140819160Y-121377220I-250000J0D01*
G01*
G37*
%TD.AperFunction*%
%TD*%
D10*
%TO.P,D1,2*%
%TO.N,Net-(BT1-Pad1)*%
X139630000Y-136000000D03*
D11*
%TO.P,D1,1*%
%TO.N,Net-(D1-Pad1)*%
X147250000Y-136000000D03*
%TD*%
%TO.P,L3,2*%
%TO.N,Net-(L3-Pad2)*%
%TA.AperFunction,SMDPad,CuDef*%
G36*
G01*
X161650000Y-121875000D02*
X163350000Y-121875000D01*
G75*
G02*
X163600000Y-122125000I0J-250000D01*
G01*
X163600000Y-122875000D01*
G75*
G02*
X163350000Y-123125000I-250000J0D01*
G01*
X161650000Y-123125000D01*
G75*
G02*
X161400000Y-122875000I0J250000D01*
G01*
X161400000Y-122125000D01*
G75*
G02*
X161650000Y-121875000I250000J0D01*
G01*
G37*
%TD.AperFunction*%
%TO.P,L3,1*%
%TO.N,+3V3*%
%TA.AperFunction,SMDPad,CuDef*%
G36*
G01*
X161650000Y-119725000D02*
X163350000Y-119725000D01*
G75*
G02*
X163600000Y-119975000I0J-250000D01*
G01*
X163600000Y-120725000D01*
G75*
G02*
X163350000Y-120975000I-250000J0D01*
G01*
X161650000Y-120975000D01*
G75*
G02*
X161400000Y-120725000I0J250000D01*
G01*
X161400000Y-119975000D01*
G75*
G02*
X161650000Y-119725000I250000J0D01*
G01*
G37*
%TD.AperFunction*%
%TD*%
%TO.P,L2,2*%
%TO.N,Net-(C3-Pad2)*%
%TA.AperFunction,SMDPad,CuDef*%
G36*
G01*
X154400000Y-116125000D02*
X156100000Y-116125000D01*
G75*
G02*
X156350000Y-116375000I0J-250000D01*
G01*
X156350000Y-117125000D01*
G75*
G02*
X156100000Y-117375000I-250000J0D01*
G01*
X154400000Y-117375000D01*
G75*
G02*
X154150000Y-117125000I0J250000D01*
G01*
X154150000Y-116375000D01*
G75*
G02*
X154400000Y-116125000I250000J0D01*
G01*
G37*
%TD.AperFunction*%
%TO.P,L2,1*%
%TO.N,+3V3*%
%TA.AperFunction,SMDPad,CuDef*%
G36*
G01*
X154400000Y-113975000D02*
X156100000Y-113975000D01*
G75*
G02*
X156350000Y-114225000I0J-250000D01*
G01*
X156350000Y-114975000D01*
G75*
G02*
X156100000Y-115225000I-250000J0D01*
G01*
X154400000Y-115225000D01*
G75*
G02*
X154150000Y-114975000I0J250000D01*
G01*
X154150000Y-114225000D01*
G75*
G02*
X154400000Y-113975000I250000J0D01*
G01*
G37*
%TD.AperFunction*%
%TD*%
D12*
%TO.P,U2,6*%
%TO.N,Net-(C3-Pad1)*%
X159954000Y-132319000D03*
%TO.P,U2,4*%
%TO.N,GND*%
X159954000Y-133619000D03*
%TO.P,U2,2*%
X158054000Y-132969000D03*
%TO.P,U2,5*%
X159954000Y-132969000D03*
%TO.P,U2,3*%
%TO.N,Net-(C6-Pad2)*%
X158054000Y-133619000D03*
%TO.P,U2,1*%
%TO.N,+3V3*%
X158054000Y-132319000D03*
%TD*%
D13*
%TO.P,U1,5*%
%TO.N,+3V3*%
X159850000Y-125603000D03*
%TO.P,U1,6*%
%TO.N,Net-(C3-Pad2)*%
X159850000Y-124653000D03*
%TO.P,U1,4*%
%TO.N,Net-(L3-Pad2)*%
X159850000Y-126553000D03*
%TO.P,U1,3*%
%TO.N,TUNE*%
X157650000Y-126553000D03*
%TO.P,U1,2*%
%TO.N,GND*%
X157650000Y-125603000D03*
%TO.P,U1,1*%
%TO.N,Net-(L1-Pad2)*%
X157650000Y-124653000D03*
%TD*%
%TO.P,R3,2*%
%TO.N,Net-(J2-Pad4)*%
%TA.AperFunction,SMDPad,CuDef*%
G36*
G01*
X132374999Y-123350000D02*
X133625001Y-123350000D01*
G75*
G02*
X133875000Y-123599999I0J-249999D01*
G01*
X133875000Y-124400001D01*
G75*
G02*
X133625001Y-124650000I-249999J0D01*
G01*
X132374999Y-124650000D01*
G75*
G02*
X132125000Y-124400001I0J249999D01*
G01*
X132125000Y-123599999D01*
G75*
G02*
X132374999Y-123350000I249999J0D01*
G01*
G37*
%TD.AperFunction*%
%TO.P,R3,1*%
%TO.N,+3V3*%
%TA.AperFunction,SMDPad,CuDef*%
G36*
G01*
X132374999Y-120250000D02*
X133625001Y-120250000D01*
G75*
G02*
X133875000Y-120499999I0J-249999D01*
G01*
X133875000Y-121300001D01*
G75*
G02*
X133625001Y-121550000I-249999J0D01*
G01*
X132374999Y-121550000D01*
G75*
G02*
X132125000Y-121300001I0J249999D01*
G01*
X132125000Y-120499999D01*
G75*
G02*
X132374999Y-120250000I249999J0D01*
G01*
G37*
%TD.AperFunction*%
%TD*%
%TO.P,L1,2*%
%TO.N,Net-(L1-Pad2)*%
%TA.AperFunction,SMDPad,CuDef*%
G36*
G01*
X156225000Y-122850001D02*
X156225000Y-122149999D01*
G75*
G02*
X156474999Y-121900000I249999J0D01*
G01*
X157025001Y-121900000D01*
G75*
G02*
X157275000Y-122149999I0J-249999D01*
G01*
X157275000Y-122850001D01*
G75*
G02*
X157025001Y-123100000I-249999J0D01*
G01*
X156474999Y-123100000D01*
G75*
G02*
X156225000Y-122850001I0J249999D01*
G01*
G37*
%TD.AperFunction*%
%TO.P,L1,1*%
%TO.N,GND*%
%TA.AperFunction,SMDPad,CuDef*%
G36*
G01*
X153925000Y-122850001D02*
X153925000Y-122149999D01*
G75*
G02*
X154174999Y-121900000I249999J0D01*
G01*
X154725001Y-121900000D01*
G75*
G02*
X154975000Y-122149999I0J-249999D01*
G01*
X154975000Y-122850001D01*
G75*
G02*
X154725001Y-123100000I-249999J0D01*
G01*
X154174999Y-123100000D01*
G75*
G02*
X153925000Y-122850001I0J249999D01*
G01*
G37*
%TD.AperFunction*%
%TD*%
D14*
%TO.P,J4,2*%
%TO.N,GND*%
X156635000Y-136398000D03*
%TO.P,J4,1*%
%TO.N,Net-(C6-Pad1)*%
%TA.AperFunction,ComponentPad*%
G36*
G01*
X152235000Y-136948000D02*
X152235000Y-135848000D01*
G75*
G02*
X152485000Y-135598000I250000J0D01*
G01*
X153585000Y-135598000D01*
G75*
G02*
X153835000Y-135848000I0J-250000D01*
G01*
X153835000Y-136948000D01*
G75*
G02*
X153585000Y-137198000I-250000J0D01*
G01*
X152485000Y-137198000D01*
G75*
G02*
X152235000Y-136948000I0J250000D01*
G01*
G37*
%TD.AperFunction*%
%TD*%
D15*
%TO.P,J3,2*%
%TO.N,Net-(D1-Pad1)*%
X147574000Y-140716000D03*
D16*
%TO.P,J3,1*%
%TO.N,Net-(BT1-Pad2)*%
X147574000Y-143256000D03*
%TD*%
D15*
%TO.P,J2,6*%
%TO.N,Net-(J2-Pad6)*%
X129794000Y-119126000D03*
%TO.P,J2,5*%
%TO.N,Net-(J2-Pad5)*%
X129794000Y-121666000D03*
%TO.P,J2,4*%
%TO.N,Net-(J2-Pad4)*%
X129794000Y-124206000D03*
%TO.P,J2,3*%
%TO.N,GND*%
X129794000Y-126746000D03*
%TO.P,J2,2*%
X129794000Y-129286000D03*
D16*
%TO.P,J2,1*%
X129794000Y-131826000D03*
%TD*%
D15*
%TO.P,J1,6*%
%TO.N,Net-(J1-Pad6)*%
X147574000Y-119126000D03*
%TO.P,J1,5*%
%TO.N,Net-(J1-Pad5)*%
X147574000Y-121666000D03*
%TO.P,J1,4*%
%TO.N,Net-(J1-Pad4)*%
X147574000Y-124206000D03*
%TO.P,J1,3*%
%TO.N,TUNE*%
X147574000Y-126746000D03*
%TO.P,J1,2*%
%TO.N,Net-(J1-Pad2)*%
X147574000Y-129286000D03*
D16*
%TO.P,J1,1*%
%TO.N,Net-(J1-Pad1)*%
X147574000Y-131826000D03*
%TD*%
%TO.P,C6,2*%
%TO.N,Net-(C6-Pad2)*%
%TA.AperFunction,SMDPad,CuDef*%
G36*
G01*
X155459000Y-134317503D02*
X155459000Y-133017497D01*
G75*
G02*
X155708997Y-132767500I249997J0D01*
G01*
X156534003Y-132767500D01*
G75*
G02*
X156784000Y-133017497I0J-249997D01*
G01*
X156784000Y-134317503D01*
G75*
G02*
X156534003Y-134567500I-249997J0D01*
G01*
X155708997Y-134567500D01*
G75*
G02*
X155459000Y-134317503I0J249997D01*
G01*
G37*
%TD.AperFunction*%
%TO.P,C6,1*%
%TO.N,Net-(C6-Pad1)*%
%TA.AperFunction,SMDPad,CuDef*%
G36*
G01*
X152334000Y-134317503D02*
X152334000Y-133017497D01*
G75*
G02*
X152583997Y-132767500I249997J0D01*
G01*
X153409003Y-132767500D01*
G75*
G02*
X153659000Y-133017497I0J-249997D01*
G01*
X153659000Y-134317503D01*
G75*
G02*
X153409003Y-134567500I-249997J0D01*
G01*
X152583997Y-134567500D01*
G75*
G02*
X152334000Y-134317503I0J249997D01*
G01*
G37*
%TD.AperFunction*%
%TD*%
%TO.P,C5,2*%
%TO.N,+3V3*%
%TA.AperFunction,SMDPad,CuDef*%
G36*
G01*
X157400000Y-130350003D02*
X157400000Y-129049997D01*
G75*
G02*
X157649997Y-128800000I249997J0D01*
G01*
X158475003Y-128800000D01*
G75*
G02*
X158725000Y-129049997I0J-249997D01*
G01*
X158725000Y-130350003D01*
G75*
G02*
X158475003Y-130600000I-249997J0D01*
G01*
X157649997Y-130600000D01*
G75*
G02*
X157400000Y-130350003I0J249997D01*
G01*
G37*
%TD.AperFunction*%
%TO.P,C5,1*%
%TO.N,GND*%
%TA.AperFunction,SMDPad,CuDef*%
G36*
G01*
X154275000Y-130350003D02*
X154275000Y-129049997D01*
G75*
G02*
X154524997Y-128800000I249997J0D01*
G01*
X155350003Y-128800000D01*
G75*
G02*
X155600000Y-129049997I0J-249997D01*
G01*
X155600000Y-130350003D01*
G75*
G02*
X155350003Y-130600000I-249997J0D01*
G01*
X154524997Y-130600000D01*
G75*
G02*
X154275000Y-130350003I0J249997D01*
G01*
G37*
%TD.AperFunction*%
%TD*%
%TO.P,C4,2*%
%TO.N,GND*%
%TA.AperFunction,SMDPad,CuDef*%
G36*
G01*
X144610983Y-118360500D02*
X143310977Y-118360500D01*
G75*
G02*
X143060980Y-118110503I0J249997D01*
G01*
X143060980Y-117285497D01*
G75*
G02*
X143310977Y-117035500I249997J0D01*
G01*
X144610983Y-117035500D01*
G75*
G02*
X144860980Y-117285497I0J-249997D01*
G01*
X144860980Y-118110503D01*
G75*
G02*
X144610983Y-118360500I-249997J0D01*
G01*
G37*
%TD.AperFunction*%
%TO.P,C4,1*%
%TO.N,+3V3*%
%TA.AperFunction,SMDPad,CuDef*%
G36*
G01*
X144610983Y-121485500D02*
X143310977Y-121485500D01*
G75*
G02*
X143060980Y-121235503I0J249997D01*
G01*
X143060980Y-120410497D01*
G75*
G02*
X143310977Y-120160500I249997J0D01*
G01*
X144610983Y-120160500D01*
G75*
G02*
X144860980Y-120410497I0J-249997D01*
G01*
X144860980Y-121235503D01*
G75*
G02*
X144610983Y-121485500I-249997J0D01*
G01*
G37*
%TD.AperFunction*%
%TD*%
%TO.P,C3,2*%
%TO.N,Net-(C3-Pad2)*%
%TA.AperFunction,SMDPad,CuDef*%
G36*
G01*
X162450003Y-125300000D02*
X161149997Y-125300000D01*
G75*
G02*
X160900000Y-125050003I0J249997D01*
G01*
X160900000Y-124224997D01*
G75*
G02*
X161149997Y-123975000I249997J0D01*
G01*
X162450003Y-123975000D01*
G75*
G02*
X162700000Y-124224997I0J-249997D01*
G01*
X162700000Y-125050003D01*
G75*
G02*
X162450003Y-125300000I-249997J0D01*
G01*
G37*
%TD.AperFunction*%
%TO.P,C3,1*%
%TO.N,Net-(C3-Pad1)*%
%TA.AperFunction,SMDPad,CuDef*%
G36*
G01*
X162450003Y-128425000D02*
X161149997Y-128425000D01*
G75*
G02*
X160900000Y-128175003I0J249997D01*
G01*
X160900000Y-127349997D01*
G75*
G02*
X161149997Y-127100000I249997J0D01*
G01*
X162450003Y-127100000D01*
G75*
G02*
X162700000Y-127349997I0J-249997D01*
G01*
X162700000Y-128175003D01*
G75*
G02*
X162450003Y-128425000I-249997J0D01*
G01*
G37*
%TD.AperFunction*%
%TD*%
%TO.P,C2,2*%
%TO.N,GND*%
%TA.AperFunction,SMDPad,CuDef*%
G36*
G01*
X137229743Y-118275880D02*
X135929737Y-118275880D01*
G75*
G02*
X135679740Y-118025883I0J249997D01*
G01*
X135679740Y-117200877D01*
G75*
G02*
X135929737Y-116950880I249997J0D01*
G01*
X137229743Y-116950880D01*
G75*
G02*
X137479740Y-117200877I0J-249997D01*
G01*
X137479740Y-118025883D01*
G75*
G02*
X137229743Y-118275880I-249997J0D01*
G01*
G37*
%TD.AperFunction*%
%TO.P,C2,1*%
%TO.N,+3V3*%
%TA.AperFunction,SMDPad,CuDef*%
G36*
G01*
X137229743Y-121400880D02*
X135929737Y-121400880D01*
G75*
G02*
X135679740Y-121150883I0J249997D01*
G01*
X135679740Y-120325877D01*
G75*
G02*
X135929737Y-120075880I249997J0D01*
G01*
X137229743Y-120075880D01*
G75*
G02*
X137479740Y-120325877I0J-249997D01*
G01*
X137479740Y-121150883D01*
G75*
G02*
X137229743Y-121400880I-249997J0D01*
G01*
G37*
%TD.AperFunction*%
%TD*%
%TO.P,C1,2*%
%TO.N,TUNE*%
%TA.AperFunction,SMDPad,CuDef*%
G36*
G01*
X153400997Y-126972500D02*
X154701003Y-126972500D01*
G75*
G02*
X154951000Y-127222497I0J-249997D01*
G01*
X154951000Y-128047503D01*
G75*
G02*
X154701003Y-128297500I-249997J0D01*
G01*
X153400997Y-128297500D01*
G75*
G02*
X153151000Y-128047503I0J249997D01*
G01*
X153151000Y-127222497D01*
G75*
G02*
X153400997Y-126972500I249997J0D01*
G01*
G37*
%TD.AperFunction*%
%TO.P,C1,1*%
%TO.N,GND*%
%TA.AperFunction,SMDPad,CuDef*%
G36*
G01*
X153400997Y-123847500D02*
X154701003Y-123847500D01*
G75*
G02*
X154951000Y-124097497I0J-249997D01*
G01*
X154951000Y-124922503D01*
G75*
G02*
X154701003Y-125172500I-249997J0D01*
G01*
X153400997Y-125172500D01*
G75*
G02*
X153151000Y-124922503I0J249997D01*
G01*
X153151000Y-124097497D01*
G75*
G02*
X153400997Y-123847500I249997J0D01*
G01*
G37*
%TD.AperFunction*%
%TD*%
D17*
%TO.P,BT1,1*%
%TO.N,Net-(BT1-Pad1)*%
X134366000Y-135954000D03*
X134366000Y-157924000D03*
D18*
%TO.P,BT1,2*%
%TO.N,Net-(BT1-Pad2)*%
X134366000Y-146939000D03*
%TD*%
D19*
%TO.N,GND*%
X161417000Y-132905500D03*
X163512500Y-130429000D03*
X156083000Y-125603000D03*
X133000000Y-114250000D03*
X120396000Y-107950000D03*
X122936000Y-109220000D03*
X125476000Y-107950000D03*
X120396000Y-110490000D03*
X122936000Y-111760000D03*
X125476000Y-110490000D03*
X120396000Y-113030000D03*
X122936000Y-114300000D03*
X125476000Y-113030000D03*
X120396000Y-115570000D03*
X122936000Y-116840000D03*
X125476000Y-115570000D03*
X120396000Y-118110000D03*
X122936000Y-119380000D03*
X125476000Y-118110000D03*
X120396000Y-120650000D03*
X122936000Y-121920000D03*
X125476000Y-120650000D03*
X120396000Y-123190000D03*
X122936000Y-124460000D03*
X125476000Y-123190000D03*
X120396000Y-125730000D03*
X122936000Y-127000000D03*
X125476000Y-125730000D03*
X120396000Y-128270000D03*
X122936000Y-129540000D03*
X125476000Y-128270000D03*
X120396000Y-130810000D03*
X122936000Y-132080000D03*
X125476000Y-130810000D03*
X120396000Y-133350000D03*
X125476000Y-133350000D03*
X135890000Y-116014500D03*
X138250000Y-114250000D03*
X140970000Y-116014500D03*
X143250000Y-114250000D03*
X135890000Y-128714500D03*
X140970000Y-128714500D03*
X133350000Y-129984500D03*
X135890000Y-131254500D03*
X138430000Y-129984500D03*
X140970000Y-131254500D03*
X143510000Y-129984500D03*
X133350000Y-132524500D03*
X138430000Y-132524500D03*
X143510000Y-132524500D03*
X128016000Y-109220000D03*
X130556000Y-107950000D03*
X133096000Y-109220000D03*
X135636000Y-107950000D03*
X138176000Y-109220000D03*
X140716000Y-107950000D03*
X143256000Y-109220000D03*
X145796000Y-107950000D03*
X148336000Y-109220000D03*
X150876000Y-107950000D03*
X153416000Y-109220000D03*
X155956000Y-107950000D03*
X158496000Y-109220000D03*
X161036000Y-107950000D03*
X163576000Y-109220000D03*
X166116000Y-107950000D03*
X168656000Y-109220000D03*
X166116000Y-110490000D03*
X168656000Y-111760000D03*
X166116000Y-113030000D03*
X168656000Y-114300000D03*
X166116000Y-115570000D03*
X168656000Y-116840000D03*
X166116000Y-118110000D03*
X168656000Y-119380000D03*
X166116000Y-120650000D03*
X168656000Y-121920000D03*
X166116000Y-123190000D03*
X168656000Y-124460000D03*
X166116000Y-125730000D03*
X168656000Y-127000000D03*
X166116000Y-128270000D03*
X168656000Y-129540000D03*
X166116000Y-130810000D03*
X168656000Y-132080000D03*
X166116000Y-133350000D03*
X168656000Y-134620000D03*
X166116000Y-135890000D03*
X168656000Y-137160000D03*
X166116000Y-138430000D03*
X168656000Y-139700000D03*
X166116000Y-140970000D03*
X168656000Y-142240000D03*
X166116000Y-143510000D03*
X161036000Y-110490000D03*
X163576000Y-111760000D03*
X163576000Y-132080000D03*
X163576000Y-134620000D03*
X163576000Y-137160000D03*
X163576000Y-139700000D03*
X163576000Y-142240000D03*
X161036000Y-143510000D03*
X161036000Y-140970000D03*
X161036000Y-138430000D03*
X161036000Y-135890000D03*
X158496000Y-137160000D03*
X158496000Y-139700000D03*
X158496000Y-142240000D03*
X150876000Y-137160000D03*
X150876000Y-139700000D03*
X150876000Y-142240000D03*
X150876000Y-134874000D03*
X150876000Y-133350000D03*
X150876000Y-130810000D03*
X150876000Y-128270000D03*
X153416000Y-129540000D03*
X153416000Y-131572000D03*
X155956000Y-131572000D03*
X150876000Y-120650000D03*
X150876000Y-123190000D03*
X150876000Y-125730000D03*
X158496000Y-134874000D03*
X158496000Y-144526000D03*
X155956000Y-144526000D03*
X153416000Y-144526000D03*
X150876000Y-144526000D03*
X145288000Y-125984000D03*
X145288000Y-128778000D03*
X145288000Y-131318000D03*
X159004000Y-132969000D03*
X163576000Y-114250000D03*
X163576000Y-116750000D03*
X153500000Y-119500000D03*
X156000000Y-120750000D03*
X156000000Y-118250000D03*
X128000000Y-114250000D03*
X148250000Y-114250000D03*
X130500000Y-111750000D03*
X135750000Y-111750000D03*
X140750000Y-111750000D03*
X145750000Y-111750000D03*
X150750000Y-111750000D03*
X145750000Y-116000000D03*
X130500000Y-116000000D03*
X128000000Y-111750000D03*
X150900000Y-118200000D03*
X150900000Y-116000000D03*
X135900000Y-126000000D03*
X138400000Y-127500000D03*
X138400000Y-124300000D03*
X143500000Y-124300000D03*
X143500000Y-127400000D03*
X140900000Y-126100000D03*
X133400000Y-127500000D03*
X155900000Y-111700000D03*
X161100000Y-115500000D03*
X158300000Y-114100000D03*
%TD*%
D20*
%TO.N,Net-(BT1-Pad1)*%
X134366000Y-135954000D02*
X139584000Y-135954000D01*
%TO.N,Net-(BT1-Pad2)*%
X134366000Y-146939000D02*
X143891000Y-146939000D01*
X143891000Y-146939000D02*
X147574000Y-143256000D01*
%TO.N,TUNE*%
X156568000Y-127635000D02*
X157650000Y-126553000D01*
X154051000Y-127635000D02*
X156568000Y-127635000D01*
X153162000Y-126746000D02*
X154051000Y-127635000D01*
X147574000Y-126746000D02*
X153162000Y-126746000D01*
%TO.N,GND*%
X159954000Y-133619000D02*
X159954000Y-133544000D01*
X158054000Y-132969000D02*
X159954000Y-132969000D01*
X159954000Y-133619000D02*
X159954000Y-132969000D01*
X161353500Y-132969000D02*
X161417000Y-132905500D01*
X159954000Y-132969000D02*
X161353500Y-132969000D01*
X163449000Y-130365500D02*
X163512500Y-130429000D01*
X154051000Y-124510000D02*
X155144000Y-125603000D01*
X155892500Y-125603000D02*
X156083000Y-125603000D01*
X155144000Y-125603000D02*
X155892500Y-125603000D01*
X155892500Y-125603000D02*
X157650000Y-125603000D01*
X155956000Y-131626310D02*
X155956000Y-131572000D01*
X157298690Y-132969000D02*
X155956000Y-131626310D01*
X158054000Y-132969000D02*
X157298690Y-132969000D01*
X154051000Y-122899000D02*
X154450000Y-122500000D01*
X154051000Y-124510000D02*
X154051000Y-122899000D01*
D21*
%TO.N,+3V3*%
X162500000Y-119500000D02*
X160705001Y-117705001D01*
X162500000Y-120350000D02*
X162500000Y-119500000D01*
X143960980Y-120823000D02*
X150183980Y-114600000D01*
X136418120Y-120900000D02*
X136579740Y-120738380D01*
X133000000Y-120900000D02*
X136418120Y-120900000D01*
X140120500Y-120738380D02*
X140194160Y-120664720D01*
X136579740Y-120738380D02*
X140120500Y-120738380D01*
X143802700Y-120664720D02*
X143960980Y-120823000D01*
X140194160Y-120664720D02*
X143802700Y-120664720D01*
X157600000Y-114600000D02*
X160705001Y-117705001D01*
X155250000Y-114600000D02*
X157600000Y-114600000D01*
X158062500Y-132310500D02*
X158054000Y-132319000D01*
X158062500Y-129700000D02*
X158062500Y-132310500D01*
X159224998Y-125603000D02*
X159850000Y-125603000D01*
X158919999Y-128842501D02*
X158919999Y-125907999D01*
X158919999Y-125907999D02*
X159224998Y-125603000D01*
X158062500Y-129700000D02*
X158919999Y-128842501D01*
X158919999Y-125907999D02*
X158919999Y-122485997D01*
X158919999Y-122485997D02*
X154634002Y-118200000D01*
X153749990Y-114650010D02*
X153800000Y-114600000D01*
X154555744Y-118200000D02*
X153749990Y-117394246D01*
X154634002Y-118200000D02*
X154555744Y-118200000D01*
X153749990Y-117394246D02*
X153749990Y-114650010D01*
X153800000Y-114600000D02*
X155250000Y-114600000D01*
X150183980Y-114600000D02*
X153800000Y-114600000D01*
D20*
%TO.N,Net-(C3-Pad1)*%
X159954000Y-129608500D02*
X161800000Y-127762500D01*
X159954000Y-132319000D02*
X159954000Y-129608500D01*
%TO.N,Net-(C6-Pad2)*%
X158019000Y-133654000D02*
X158054000Y-133619000D01*
X158005500Y-133667500D02*
X158054000Y-133619000D01*
X156121500Y-133667500D02*
X158005500Y-133667500D01*
%TO.N,Net-(C6-Pad1)*%
X152996500Y-136359500D02*
X153035000Y-136398000D01*
X152996500Y-133667500D02*
X152996500Y-136359500D01*
%TO.N,Net-(J2-Pad4)*%
X132794000Y-124206000D02*
X133000000Y-124000000D01*
X129794000Y-124206000D02*
X132794000Y-124206000D01*
%TO.N,Net-(L1-Pad2)*%
X156845000Y-123848000D02*
X157650000Y-124653000D01*
X156845000Y-122595000D02*
X156750000Y-122500000D01*
X156845000Y-123848000D02*
X156845000Y-122595000D01*
%TO.N,Net-(C3-Pad2)*%
X155250000Y-116750000D02*
X156350000Y-116750000D01*
X156350000Y-116750000D02*
X159850000Y-120250000D01*
X159850000Y-120250000D02*
X159850000Y-124653000D01*
X159865500Y-124637500D02*
X159850000Y-124653000D01*
X161800000Y-124637500D02*
X159865500Y-124637500D01*
%TO.N,Net-(L3-Pad2)*%
X163475010Y-123475010D02*
X162500000Y-122500000D01*
X163475010Y-125150680D02*
X163475010Y-123475010D01*
X162072690Y-126553000D02*
X163475010Y-125150680D01*
X159850000Y-126553000D02*
X162072690Y-126553000D01*
%TO.N,Net-(D1-Pad1)*%
X134366000Y-157924000D02*
X139510000Y-157924000D01*
X148749001Y-141891001D02*
X147574000Y-140716000D01*
X148749001Y-148684999D02*
X148749001Y-141891001D01*
X139510000Y-157924000D02*
X148749001Y-148684999D01*
X147123991Y-140902401D02*
X147255795Y-141034205D01*
X147123991Y-136126009D02*
X147123991Y-140902401D01*
X147250000Y-136000000D02*
X147123991Y-136126009D01*
%TD*%
D22*
%TO.N,GND*%
X169266001Y-145009000D02*
X150527419Y-145009000D01*
X150495000Y-145005807D01*
X150462581Y-145009000D01*
X150365617Y-145018550D01*
X150241207Y-145056290D01*
X150241000Y-145056401D01*
X150241000Y-137414000D01*
X151511000Y-137414000D01*
X151511000Y-143764000D01*
X151513440Y-143788776D01*
X151520667Y-143812601D01*
X151532403Y-143834557D01*
X151548197Y-143853803D01*
X151567443Y-143869597D01*
X151589399Y-143881333D01*
X151613224Y-143888560D01*
X151638000Y-143891000D01*
X157988000Y-143891000D01*
X158012776Y-143888560D01*
X158036601Y-143881333D01*
X158058557Y-143869597D01*
X158077803Y-143853803D01*
X158093597Y-143834557D01*
X158105333Y-143812601D01*
X158112560Y-143788776D01*
X158115000Y-143764000D01*
X158115000Y-137414000D01*
X158112560Y-137389224D01*
X158105333Y-137365399D01*
X158093597Y-137343443D01*
X158077803Y-137324197D01*
X158058557Y-137308403D01*
X158036601Y-137296667D01*
X158012776Y-137289440D01*
X157988000Y-137287000D01*
X157703607Y-137287000D01*
X157627704Y-137211097D01*
X157871671Y-137139514D01*
X157992571Y-136884004D01*
X158061300Y-136609816D01*
X158075217Y-136327488D01*
X158033787Y-136047870D01*
X157938603Y-135781708D01*
X157871671Y-135656486D01*
X157627702Y-135584903D01*
X156814605Y-136398000D01*
X156828748Y-136412143D01*
X156649143Y-136591748D01*
X156635000Y-136577605D01*
X156620858Y-136591748D01*
X156441253Y-136412143D01*
X156455395Y-136398000D01*
X155642298Y-135584903D01*
X155398329Y-135656486D01*
X155277429Y-135911996D01*
X155208700Y-136186184D01*
X155194783Y-136468512D01*
X155236213Y-136748130D01*
X155331397Y-137014292D01*
X155398329Y-137139514D01*
X155642296Y-137211097D01*
X155566393Y-137287000D01*
X154405730Y-137287000D01*
X154456008Y-137121254D01*
X154473072Y-136948000D01*
X154473072Y-135848000D01*
X154456008Y-135674746D01*
X154405472Y-135508150D01*
X154323405Y-135354614D01*
X154212962Y-135220038D01*
X154078386Y-135109595D01*
X153932187Y-135031450D01*
X154036963Y-134945463D01*
X154147405Y-134810888D01*
X154229472Y-134657352D01*
X154280008Y-134490757D01*
X154297072Y-134317503D01*
X154297072Y-133017497D01*
X154280008Y-132844243D01*
X154229472Y-132677648D01*
X154147405Y-132524112D01*
X154036963Y-132389537D01*
X153902388Y-132279095D01*
X153748852Y-132197028D01*
X153582257Y-132146492D01*
X153409003Y-132129428D01*
X152583997Y-132129428D01*
X152410743Y-132146492D01*
X152244148Y-132197028D01*
X152090612Y-132279095D01*
X151956037Y-132389537D01*
X151845595Y-132524112D01*
X151763528Y-132677648D01*
X151712992Y-132844243D01*
X151695928Y-133017497D01*
X151695928Y-134317503D01*
X151712992Y-134490757D01*
X151763528Y-134657352D01*
X151845595Y-134810888D01*
X151956037Y-134945463D01*
X152090612Y-135055905D01*
X152091336Y-135056292D01*
X151991614Y-135109595D01*
X151857038Y-135220038D01*
X151746595Y-135354614D01*
X151664528Y-135508150D01*
X151613992Y-135674746D01*
X151596928Y-135848000D01*
X151596928Y-136948000D01*
X151613992Y-137121254D01*
X151664270Y-137287000D01*
X151638000Y-137287000D01*
X151613224Y-137289440D01*
X151589399Y-137296667D01*
X151567443Y-137308403D01*
X151548197Y-137324197D01*
X151532403Y-137343443D01*
X151520667Y-137365399D01*
X151513440Y-137389224D01*
X151511000Y-137414000D01*
X150241000Y-137414000D01*
X150241000Y-134404926D01*
X150238564Y-134380170D01*
X150219261Y-134283044D01*
X150212038Y-134259218D01*
X150200327Y-134237292D01*
X150145350Y-134154929D01*
X150129565Y-134135677D01*
X150110362Y-134119897D01*
X150028069Y-134064815D01*
X150006122Y-134053061D01*
X149982343Y-134045823D01*
X149885242Y-134026395D01*
X149860489Y-134023927D01*
X119772417Y-133985340D01*
X119712445Y-133973369D01*
X119672154Y-133946477D01*
X119659000Y-133926863D01*
X119659000Y-132676000D01*
X128305928Y-132676000D01*
X128318188Y-132800482D01*
X128354498Y-132920180D01*
X128413463Y-133030494D01*
X128492815Y-133127185D01*
X128589506Y-133206537D01*
X128699820Y-133265502D01*
X128819518Y-133301812D01*
X128944000Y-133314072D01*
X129508250Y-133311000D01*
X129667000Y-133152250D01*
X129667000Y-131953000D01*
X129921000Y-131953000D01*
X129921000Y-133152250D01*
X130079750Y-133311000D01*
X130644000Y-133314072D01*
X130768482Y-133301812D01*
X130888180Y-133265502D01*
X130998494Y-133206537D01*
X131095185Y-133127185D01*
X131174537Y-133030494D01*
X131233502Y-132920180D01*
X131269812Y-132800482D01*
X131282072Y-132676000D01*
X131279000Y-132111750D01*
X131120250Y-131953000D01*
X129921000Y-131953000D01*
X129667000Y-131953000D01*
X128467750Y-131953000D01*
X128309000Y-132111750D01*
X128305928Y-132676000D01*
X119659000Y-132676000D01*
X119659000Y-130976000D01*
X128305928Y-130976000D01*
X128309000Y-131540250D01*
X128467750Y-131699000D01*
X129667000Y-131699000D01*
X129667000Y-129413000D01*
X129921000Y-129413000D01*
X129921000Y-131699000D01*
X131120250Y-131699000D01*
X131279000Y-131540250D01*
X131282072Y-130976000D01*
X131269812Y-130851518D01*
X131233502Y-130731820D01*
X131174537Y-130621506D01*
X131095185Y-130524815D01*
X130998494Y-130445463D01*
X130888180Y-130386498D01*
X130807534Y-130362034D01*
X130891588Y-130286269D01*
X131065641Y-130052920D01*
X131190825Y-129790099D01*
X131235476Y-129642890D01*
X131114155Y-129413000D01*
X129921000Y-129413000D01*
X129667000Y-129413000D01*
X128473845Y-129413000D01*
X128352524Y-129642890D01*
X128397175Y-129790099D01*
X128522359Y-130052920D01*
X128696412Y-130286269D01*
X128780466Y-130362034D01*
X128699820Y-130386498D01*
X128589506Y-130445463D01*
X128492815Y-130524815D01*
X128413463Y-130621506D01*
X128354498Y-130731820D01*
X128318188Y-130851518D01*
X128305928Y-130976000D01*
X119659000Y-130976000D01*
X119659000Y-127102890D01*
X128352524Y-127102890D01*
X128397175Y-127250099D01*
X128522359Y-127512920D01*
X128696412Y-127746269D01*
X128912645Y-127941178D01*
X129038255Y-128016000D01*
X128912645Y-128090822D01*
X128696412Y-128285731D01*
X128522359Y-128519080D01*
X128397175Y-128781901D01*
X128352524Y-128929110D01*
X128473845Y-129159000D01*
X129667000Y-129159000D01*
X129667000Y-126873000D01*
X129921000Y-126873000D01*
X129921000Y-129159000D01*
X131114155Y-129159000D01*
X131235476Y-128929110D01*
X131190825Y-128781901D01*
X131065641Y-128519080D01*
X130891588Y-128285731D01*
X130675355Y-128090822D01*
X130549745Y-128016000D01*
X130675355Y-127941178D01*
X130891588Y-127746269D01*
X131065641Y-127512920D01*
X131190825Y-127250099D01*
X131235476Y-127102890D01*
X131114155Y-126873000D01*
X129921000Y-126873000D01*
X129667000Y-126873000D01*
X128473845Y-126873000D01*
X128352524Y-127102890D01*
X119659000Y-127102890D01*
X119659000Y-118979740D01*
X128309000Y-118979740D01*
X128309000Y-119272260D01*
X128366068Y-119559158D01*
X128478010Y-119829411D01*
X128640525Y-120072632D01*
X128847368Y-120279475D01*
X129021760Y-120396000D01*
X128847368Y-120512525D01*
X128640525Y-120719368D01*
X128478010Y-120962589D01*
X128366068Y-121232842D01*
X128309000Y-121519740D01*
X128309000Y-121812260D01*
X128366068Y-122099158D01*
X128478010Y-122369411D01*
X128640525Y-122612632D01*
X128847368Y-122819475D01*
X129021760Y-122936000D01*
X128847368Y-123052525D01*
X128640525Y-123259368D01*
X128478010Y-123502589D01*
X128366068Y-123772842D01*
X128309000Y-124059740D01*
X128309000Y-124352260D01*
X128366068Y-124639158D01*
X128478010Y-124909411D01*
X128640525Y-125152632D01*
X128847368Y-125359475D01*
X129029534Y-125481195D01*
X128912645Y-125550822D01*
X128696412Y-125745731D01*
X128522359Y-125979080D01*
X128397175Y-126241901D01*
X128352524Y-126389110D01*
X128473845Y-126619000D01*
X129667000Y-126619000D01*
X129667000Y-126599000D01*
X129921000Y-126599000D01*
X129921000Y-126619000D01*
X131114155Y-126619000D01*
X131235476Y-126389110D01*
X131190825Y-126241901D01*
X131065641Y-125979080D01*
X130891588Y-125745731D01*
X130675355Y-125550822D01*
X130558466Y-125481195D01*
X130740632Y-125359475D01*
X130947475Y-125152632D01*
X131072178Y-124966000D01*
X131696187Y-124966000D01*
X131747038Y-125027962D01*
X131881613Y-125138405D01*
X132035149Y-125220472D01*
X132201745Y-125271008D01*
X132374999Y-125288072D01*
X133625001Y-125288072D01*
X133798255Y-125271008D01*
X133964851Y-125220472D01*
X134118387Y-125138405D01*
X134252962Y-125027962D01*
X134363405Y-124893387D01*
X134445472Y-124739851D01*
X134496008Y-124573255D01*
X134513072Y-124400001D01*
X134513072Y-123599999D01*
X134496008Y-123426745D01*
X134445472Y-123260149D01*
X134363405Y-123106613D01*
X134252962Y-122972038D01*
X134118387Y-122861595D01*
X133964851Y-122779528D01*
X133798255Y-122728992D01*
X133625001Y-122711928D01*
X132374999Y-122711928D01*
X132201745Y-122728992D01*
X132035149Y-122779528D01*
X131881613Y-122861595D01*
X131747038Y-122972038D01*
X131636595Y-123106613D01*
X131554528Y-123260149D01*
X131503992Y-123426745D01*
X131502096Y-123446000D01*
X131072178Y-123446000D01*
X130947475Y-123259368D01*
X130740632Y-123052525D01*
X130566240Y-122936000D01*
X130740632Y-122819475D01*
X130947475Y-122612632D01*
X131109990Y-122369411D01*
X131221932Y-122099158D01*
X131279000Y-121812260D01*
X131279000Y-121519740D01*
X131221932Y-121232842D01*
X131109990Y-120962589D01*
X130947475Y-120719368D01*
X130740632Y-120512525D01*
X130721886Y-120499999D01*
X131486928Y-120499999D01*
X131486928Y-121300001D01*
X131503992Y-121473255D01*
X131554528Y-121639851D01*
X131636595Y-121793387D01*
X131747038Y-121927962D01*
X131881613Y-122038405D01*
X132035149Y-122120472D01*
X132201745Y-122171008D01*
X132374999Y-122188072D01*
X133625001Y-122188072D01*
X133798255Y-122171008D01*
X133964851Y-122120472D01*
X134118387Y-122038405D01*
X134252962Y-121927962D01*
X134363405Y-121793387D01*
X134394614Y-121735000D01*
X135265796Y-121735000D01*
X135301777Y-121778843D01*
X135436352Y-121889285D01*
X135589888Y-121971352D01*
X135756483Y-122021888D01*
X135929737Y-122038952D01*
X137229743Y-122038952D01*
X137402997Y-122021888D01*
X137569592Y-121971352D01*
X137723128Y-121889285D01*
X137857703Y-121778843D01*
X137968145Y-121644268D01*
X138006036Y-121573380D01*
X138805512Y-121573380D01*
X138830755Y-121620606D01*
X138941198Y-121755182D01*
X139075774Y-121865625D01*
X139229310Y-121947692D01*
X139395906Y-121998228D01*
X139569160Y-122015292D01*
X140819160Y-122015292D01*
X140992414Y-121998228D01*
X141159010Y-121947692D01*
X141312546Y-121865625D01*
X141447122Y-121755182D01*
X141557565Y-121620606D01*
X141622180Y-121499720D01*
X142467565Y-121499720D01*
X142490508Y-121575352D01*
X142572575Y-121728888D01*
X142683017Y-121863463D01*
X142817592Y-121973905D01*
X142971128Y-122055972D01*
X143137723Y-122106508D01*
X143310977Y-122123572D01*
X144610983Y-122123572D01*
X144784237Y-122106508D01*
X144950832Y-122055972D01*
X145104368Y-121973905D01*
X145238943Y-121863463D01*
X145349385Y-121728888D01*
X145431452Y-121575352D01*
X145481988Y-121408757D01*
X145499052Y-121235503D01*
X145499052Y-120465795D01*
X146222109Y-119742738D01*
X146258010Y-119829411D01*
X146420525Y-120072632D01*
X146627368Y-120279475D01*
X146801760Y-120396000D01*
X146627368Y-120512525D01*
X146420525Y-120719368D01*
X146258010Y-120962589D01*
X146146068Y-121232842D01*
X146089000Y-121519740D01*
X146089000Y-121812260D01*
X146146068Y-122099158D01*
X146258010Y-122369411D01*
X146420525Y-122612632D01*
X146627368Y-122819475D01*
X146801760Y-122936000D01*
X146627368Y-123052525D01*
X146420525Y-123259368D01*
X146258010Y-123502589D01*
X146146068Y-123772842D01*
X146089000Y-124059740D01*
X146089000Y-124352260D01*
X146146068Y-124639158D01*
X146258010Y-124909411D01*
X146420525Y-125152632D01*
X146627368Y-125359475D01*
X146801760Y-125476000D01*
X146627368Y-125592525D01*
X146420525Y-125799368D01*
X146258010Y-126042589D01*
X146146068Y-126312842D01*
X146089000Y-126599740D01*
X146089000Y-126892260D01*
X146146068Y-127179158D01*
X146258010Y-127449411D01*
X146420525Y-127692632D01*
X146627368Y-127899475D01*
X146801760Y-128016000D01*
X146627368Y-128132525D01*
X146420525Y-128339368D01*
X146258010Y-128582589D01*
X146146068Y-128852842D01*
X146089000Y-129139740D01*
X146089000Y-129432260D01*
X146146068Y-129719158D01*
X146258010Y-129989411D01*
X146420525Y-130232632D01*
X146552380Y-130364487D01*
X146479820Y-130386498D01*
X146369506Y-130445463D01*
X146272815Y-130524815D01*
X146193463Y-130621506D01*
X146134498Y-130731820D01*
X146098188Y-130851518D01*
X146085928Y-130976000D01*
X146085928Y-132676000D01*
X146098188Y-132800482D01*
X146134498Y-132920180D01*
X146193463Y-133030494D01*
X146272815Y-133127185D01*
X146369506Y-133206537D01*
X146479820Y-133265502D01*
X146599518Y-133301812D01*
X146724000Y-133314072D01*
X148424000Y-133314072D01*
X148548482Y-133301812D01*
X148668180Y-133265502D01*
X148778494Y-133206537D01*
X148875185Y-133127185D01*
X148954537Y-133030494D01*
X149013502Y-132920180D01*
X149049812Y-132800482D01*
X149062072Y-132676000D01*
X149062072Y-130976000D01*
X149049812Y-130851518D01*
X149013502Y-130731820D01*
X148954537Y-130621506D01*
X148936888Y-130600000D01*
X153636928Y-130600000D01*
X153649188Y-130724482D01*
X153685498Y-130844180D01*
X153744463Y-130954494D01*
X153823815Y-131051185D01*
X153920506Y-131130537D01*
X154030820Y-131189502D01*
X154150518Y-131225812D01*
X154275000Y-131238072D01*
X154651750Y-131235000D01*
X154810500Y-131076250D01*
X154810500Y-129827000D01*
X155064500Y-129827000D01*
X155064500Y-131076250D01*
X155223250Y-131235000D01*
X155600000Y-131238072D01*
X155724482Y-131225812D01*
X155844180Y-131189502D01*
X155954494Y-131130537D01*
X156051185Y-131051185D01*
X156130537Y-130954494D01*
X156189502Y-130844180D01*
X156225812Y-130724482D01*
X156238072Y-130600000D01*
X156235000Y-129985750D01*
X156076250Y-129827000D01*
X155064500Y-129827000D01*
X154810500Y-129827000D01*
X153798750Y-129827000D01*
X153640000Y-129985750D01*
X153636928Y-130600000D01*
X148936888Y-130600000D01*
X148875185Y-130524815D01*
X148778494Y-130445463D01*
X148668180Y-130386498D01*
X148595620Y-130364487D01*
X148727475Y-130232632D01*
X148889990Y-129989411D01*
X149001932Y-129719158D01*
X149059000Y-129432260D01*
X149059000Y-129139740D01*
X149001932Y-128852842D01*
X148889990Y-128582589D01*
X148727475Y-128339368D01*
X148520632Y-128132525D01*
X148346240Y-128016000D01*
X148520632Y-127899475D01*
X148727475Y-127692632D01*
X148852178Y-127506000D01*
X152512928Y-127506000D01*
X152512928Y-128047503D01*
X152529992Y-128220757D01*
X152580528Y-128387352D01*
X152662595Y-128540888D01*
X152773037Y-128675463D01*
X152907612Y-128785905D01*
X153061148Y-128867972D01*
X153227743Y-128918508D01*
X153400997Y-128935572D01*
X153637606Y-128935572D01*
X153640000Y-129414250D01*
X153798750Y-129573000D01*
X154810500Y-129573000D01*
X154810500Y-129553000D01*
X155064500Y-129553000D01*
X155064500Y-129573000D01*
X156076250Y-129573000D01*
X156235000Y-129414250D01*
X156238072Y-128800000D01*
X156225812Y-128675518D01*
X156189502Y-128555820D01*
X156130537Y-128445506D01*
X156089088Y-128395000D01*
X156530678Y-128395000D01*
X156568000Y-128398676D01*
X156605322Y-128395000D01*
X156605333Y-128395000D01*
X156716986Y-128384003D01*
X156860247Y-128340546D01*
X156992276Y-128269974D01*
X157108001Y-128175001D01*
X157131804Y-128145998D01*
X157761730Y-127516072D01*
X158084999Y-127516072D01*
X158084999Y-128161928D01*
X157649997Y-128161928D01*
X157476743Y-128178992D01*
X157310148Y-128229528D01*
X157156612Y-128311595D01*
X157022037Y-128422037D01*
X156911595Y-128556612D01*
X156829528Y-128710148D01*
X156778992Y-128876743D01*
X156761928Y-129049997D01*
X156761928Y-130350003D01*
X156778992Y-130523257D01*
X156829528Y-130689852D01*
X156911595Y-130843388D01*
X157022037Y-130977963D01*
X157156612Y-131088405D01*
X157227501Y-131126296D01*
X157227501Y-131729123D01*
X157198463Y-131764506D01*
X157139498Y-131874820D01*
X157103188Y-131994518D01*
X157090928Y-132119000D01*
X157090928Y-132331241D01*
X157027388Y-132279095D01*
X156873852Y-132197028D01*
X156707257Y-132146492D01*
X156534003Y-132129428D01*
X155708997Y-132129428D01*
X155535743Y-132146492D01*
X155369148Y-132197028D01*
X155215612Y-132279095D01*
X155081037Y-132389537D01*
X154970595Y-132524112D01*
X154888528Y-132677648D01*
X154837992Y-132844243D01*
X154820928Y-133017497D01*
X154820928Y-134317503D01*
X154837992Y-134490757D01*
X154888528Y-134657352D01*
X154970595Y-134810888D01*
X155081037Y-134945463D01*
X155215612Y-135055905D01*
X155369148Y-135137972D01*
X155535743Y-135188508D01*
X155708997Y-135205572D01*
X155880505Y-135205572D01*
X155821903Y-135405298D01*
X156635000Y-136218395D01*
X157448097Y-135405298D01*
X157376514Y-135161329D01*
X157121004Y-135040429D01*
X157063737Y-135026074D01*
X157161963Y-134945463D01*
X157272405Y-134810888D01*
X157354472Y-134657352D01*
X157405008Y-134490757D01*
X157411238Y-134427500D01*
X157547448Y-134427500D01*
X157604518Y-134444812D01*
X157729000Y-134457072D01*
X158379000Y-134457072D01*
X158503482Y-134444812D01*
X158623180Y-134408502D01*
X158733494Y-134349537D01*
X158830185Y-134270185D01*
X158909537Y-134173494D01*
X158968502Y-134063180D01*
X159004715Y-133943801D01*
X159006454Y-133958902D01*
X159045710Y-134077666D01*
X159107381Y-134186490D01*
X159189097Y-134281192D01*
X159287719Y-134358132D01*
X159399456Y-134414353D01*
X159520014Y-134447695D01*
X159644761Y-134456877D01*
X159668250Y-134454000D01*
X159827000Y-134295250D01*
X159827000Y-133692000D01*
X159807000Y-133692000D01*
X159807000Y-133665250D01*
X159827000Y-133645250D01*
X159827000Y-133472000D01*
X160081000Y-133472000D01*
X160081000Y-133645250D01*
X160127750Y-133692000D01*
X160081000Y-133692000D01*
X160081000Y-134295250D01*
X160239750Y-134454000D01*
X160263239Y-134456877D01*
X160387986Y-134447695D01*
X160508544Y-134414353D01*
X160620281Y-134358132D01*
X160718903Y-134281192D01*
X160800619Y-134186490D01*
X160862290Y-134077666D01*
X160901546Y-133958902D01*
X160914000Y-133850750D01*
X160755250Y-133692000D01*
X160640959Y-133692000D01*
X160718903Y-133631192D01*
X160800619Y-133536490D01*
X160847519Y-133453731D01*
X160914000Y-133387250D01*
X160903262Y-133294000D01*
X160914000Y-133200750D01*
X160847519Y-133134269D01*
X160800619Y-133051510D01*
X160730312Y-132970030D01*
X160809537Y-132873494D01*
X160846032Y-132805218D01*
X160914000Y-132737250D01*
X160903645Y-132647328D01*
X160904812Y-132643482D01*
X160917072Y-132519000D01*
X160917072Y-132119000D01*
X160904812Y-131994518D01*
X160868502Y-131874820D01*
X160809537Y-131764506D01*
X160730185Y-131667815D01*
X160714000Y-131654532D01*
X160714000Y-129923301D01*
X161574230Y-129063072D01*
X162450003Y-129063072D01*
X162623257Y-129046008D01*
X162789852Y-128995472D01*
X162943388Y-128913405D01*
X163077963Y-128802963D01*
X163188405Y-128668388D01*
X163270472Y-128514852D01*
X163321008Y-128348257D01*
X163338072Y-128175003D01*
X163338072Y-127349997D01*
X163321008Y-127176743D01*
X163270472Y-127010148D01*
X163188405Y-126856612D01*
X163077963Y-126722037D01*
X163023308Y-126677183D01*
X163986014Y-125714478D01*
X164015011Y-125690681D01*
X164049423Y-125648750D01*
X164109984Y-125574957D01*
X164180556Y-125442927D01*
X164184474Y-125430010D01*
X164224013Y-125299666D01*
X164235010Y-125188013D01*
X164235010Y-125188003D01*
X164238686Y-125150680D01*
X164235010Y-125113357D01*
X164235010Y-123512332D01*
X164238686Y-123475009D01*
X164235010Y-123437686D01*
X164235010Y-123437677D01*
X164224013Y-123326024D01*
X164180556Y-123182763D01*
X164180332Y-123182345D01*
X164221008Y-123048254D01*
X164238072Y-122875000D01*
X164238072Y-122125000D01*
X164221008Y-121951746D01*
X164170472Y-121785150D01*
X164088405Y-121631614D01*
X163977962Y-121497038D01*
X163890183Y-121425000D01*
X163977962Y-121352962D01*
X164088405Y-121218386D01*
X164170472Y-121064850D01*
X164221008Y-120898254D01*
X164238072Y-120725000D01*
X164238072Y-119975000D01*
X164221008Y-119801746D01*
X164170472Y-119635150D01*
X164088405Y-119481614D01*
X163977962Y-119347038D01*
X163843386Y-119236595D01*
X163689850Y-119154528D01*
X163523254Y-119103992D01*
X163350000Y-119086928D01*
X163226005Y-119086928D01*
X163197636Y-119033854D01*
X163119439Y-118938570D01*
X163119437Y-118938568D01*
X163093291Y-118906709D01*
X163061432Y-118880563D01*
X161324449Y-117143582D01*
X161324440Y-117143571D01*
X158219446Y-114038579D01*
X158193291Y-114006709D01*
X158066146Y-113902364D01*
X157921087Y-113824828D01*
X157763689Y-113777082D01*
X157641019Y-113765000D01*
X157641018Y-113765000D01*
X157600000Y-113760960D01*
X157558982Y-113765000D01*
X156856250Y-113765000D01*
X156838405Y-113731614D01*
X156727962Y-113597038D01*
X156593386Y-113486595D01*
X156439850Y-113404528D01*
X156273254Y-113353992D01*
X156100000Y-113336928D01*
X154400000Y-113336928D01*
X154226746Y-113353992D01*
X154060150Y-113404528D01*
X153906614Y-113486595D01*
X153772038Y-113597038D01*
X153661595Y-113731614D01*
X153643750Y-113765000D01*
X150224998Y-113765000D01*
X150183980Y-113760960D01*
X150142961Y-113765000D01*
X150020291Y-113777082D01*
X149862893Y-113824828D01*
X149717834Y-113902364D01*
X149590689Y-114006709D01*
X149564539Y-114038573D01*
X145496978Y-118106135D01*
X145495980Y-117983750D01*
X145337230Y-117825000D01*
X144087980Y-117825000D01*
X144087980Y-118836750D01*
X144246730Y-118995500D01*
X144605817Y-118997296D01*
X144080685Y-119522428D01*
X143310977Y-119522428D01*
X143137723Y-119539492D01*
X142971128Y-119590028D01*
X142817592Y-119672095D01*
X142683017Y-119782537D01*
X142644295Y-119829720D01*
X141622180Y-119829720D01*
X141557565Y-119708834D01*
X141447122Y-119574258D01*
X141312546Y-119463815D01*
X141159010Y-119381748D01*
X140992414Y-119331212D01*
X140819160Y-119314148D01*
X139569160Y-119314148D01*
X139395906Y-119331212D01*
X139229310Y-119381748D01*
X139075774Y-119463815D01*
X138941198Y-119574258D01*
X138830755Y-119708834D01*
X138748688Y-119862370D01*
X138736248Y-119903380D01*
X138006036Y-119903380D01*
X137968145Y-119832492D01*
X137857703Y-119697917D01*
X137723128Y-119587475D01*
X137569592Y-119505408D01*
X137402997Y-119454872D01*
X137229743Y-119437808D01*
X135929737Y-119437808D01*
X135756483Y-119454872D01*
X135589888Y-119505408D01*
X135436352Y-119587475D01*
X135301777Y-119697917D01*
X135191335Y-119832492D01*
X135109268Y-119986028D01*
X135085312Y-120065000D01*
X134394614Y-120065000D01*
X134363405Y-120006613D01*
X134252962Y-119872038D01*
X134118387Y-119761595D01*
X133964851Y-119679528D01*
X133798255Y-119628992D01*
X133625001Y-119611928D01*
X132374999Y-119611928D01*
X132201745Y-119628992D01*
X132035149Y-119679528D01*
X131881613Y-119761595D01*
X131747038Y-119872038D01*
X131636595Y-120006613D01*
X131554528Y-120160149D01*
X131503992Y-120326745D01*
X131486928Y-120499999D01*
X130721886Y-120499999D01*
X130566240Y-120396000D01*
X130740632Y-120279475D01*
X130947475Y-120072632D01*
X131109990Y-119829411D01*
X131221932Y-119559158D01*
X131279000Y-119272260D01*
X131279000Y-118979740D01*
X131221932Y-118692842D01*
X131109990Y-118422589D01*
X131011963Y-118275880D01*
X135041668Y-118275880D01*
X135053928Y-118400362D01*
X135090238Y-118520060D01*
X135149203Y-118630374D01*
X135228555Y-118727065D01*
X135325246Y-118806417D01*
X135435560Y-118865382D01*
X135555258Y-118901692D01*
X135679740Y-118913952D01*
X136293990Y-118910880D01*
X136452740Y-118752130D01*
X136452740Y-117740380D01*
X136706740Y-117740380D01*
X136706740Y-118752130D01*
X136865490Y-118910880D01*
X137479740Y-118913952D01*
X137604222Y-118901692D01*
X137723920Y-118865382D01*
X137834234Y-118806417D01*
X137930925Y-118727065D01*
X138010277Y-118630374D01*
X138069242Y-118520060D01*
X138104988Y-118402220D01*
X138681088Y-118402220D01*
X138693348Y-118526702D01*
X138729658Y-118646400D01*
X138788623Y-118756714D01*
X138867975Y-118853405D01*
X138964666Y-118932757D01*
X139074980Y-118991722D01*
X139194678Y-119028032D01*
X139319160Y-119040292D01*
X139908410Y-119037220D01*
X140067160Y-118878470D01*
X140067160Y-117816720D01*
X140321160Y-117816720D01*
X140321160Y-118878470D01*
X140479910Y-119037220D01*
X141069160Y-119040292D01*
X141193642Y-119028032D01*
X141313340Y-118991722D01*
X141423654Y-118932757D01*
X141520345Y-118853405D01*
X141599697Y-118756714D01*
X141658662Y-118646400D01*
X141694972Y-118526702D01*
X141707232Y-118402220D01*
X141706932Y-118360500D01*
X142422908Y-118360500D01*
X142435168Y-118484982D01*
X142471478Y-118604680D01*
X142530443Y-118714994D01*
X142609795Y-118811685D01*
X142706486Y-118891037D01*
X142816800Y-118950002D01*
X142936498Y-118986312D01*
X143060980Y-118998572D01*
X143675230Y-118995500D01*
X143833980Y-118836750D01*
X143833980Y-117825000D01*
X142584730Y-117825000D01*
X142425980Y-117983750D01*
X142422908Y-118360500D01*
X141706932Y-118360500D01*
X141704160Y-117975470D01*
X141545410Y-117816720D01*
X140321160Y-117816720D01*
X140067160Y-117816720D01*
X138842910Y-117816720D01*
X138684160Y-117975470D01*
X138681088Y-118402220D01*
X138104988Y-118402220D01*
X138105552Y-118400362D01*
X138117812Y-118275880D01*
X138114740Y-117899130D01*
X137955990Y-117740380D01*
X136706740Y-117740380D01*
X136452740Y-117740380D01*
X135203490Y-117740380D01*
X135044740Y-117899130D01*
X135041668Y-118275880D01*
X131011963Y-118275880D01*
X130947475Y-118179368D01*
X130740632Y-117972525D01*
X130497411Y-117810010D01*
X130227158Y-117698068D01*
X129940260Y-117641000D01*
X129647740Y-117641000D01*
X129360842Y-117698068D01*
X129090589Y-117810010D01*
X128847368Y-117972525D01*
X128640525Y-118179368D01*
X128478010Y-118422589D01*
X128366068Y-118692842D01*
X128309000Y-118979740D01*
X119659000Y-118979740D01*
X119659000Y-116950880D01*
X135041668Y-116950880D01*
X135044740Y-117327630D01*
X135203490Y-117486380D01*
X136452740Y-117486380D01*
X136452740Y-116474630D01*
X136706740Y-116474630D01*
X136706740Y-117486380D01*
X137955990Y-117486380D01*
X138114740Y-117327630D01*
X138117597Y-116977220D01*
X138681088Y-116977220D01*
X138684160Y-117403970D01*
X138842910Y-117562720D01*
X140067160Y-117562720D01*
X140067160Y-116500970D01*
X140321160Y-116500970D01*
X140321160Y-117562720D01*
X141545410Y-117562720D01*
X141704160Y-117403970D01*
X141706812Y-117035500D01*
X142422908Y-117035500D01*
X142425980Y-117412250D01*
X142584730Y-117571000D01*
X143833980Y-117571000D01*
X143833980Y-116559250D01*
X144087980Y-116559250D01*
X144087980Y-117571000D01*
X145337230Y-117571000D01*
X145495980Y-117412250D01*
X145499052Y-117035500D01*
X145486792Y-116911018D01*
X145450482Y-116791320D01*
X145391517Y-116681006D01*
X145312165Y-116584315D01*
X145215474Y-116504963D01*
X145105160Y-116445998D01*
X144985462Y-116409688D01*
X144860980Y-116397428D01*
X144246730Y-116400500D01*
X144087980Y-116559250D01*
X143833980Y-116559250D01*
X143675230Y-116400500D01*
X143060980Y-116397428D01*
X142936498Y-116409688D01*
X142816800Y-116445998D01*
X142706486Y-116504963D01*
X142609795Y-116584315D01*
X142530443Y-116681006D01*
X142471478Y-116791320D01*
X142435168Y-116911018D01*
X142422908Y-117035500D01*
X141706812Y-117035500D01*
X141707232Y-116977220D01*
X141694972Y-116852738D01*
X141658662Y-116733040D01*
X141599697Y-116622726D01*
X141520345Y-116526035D01*
X141423654Y-116446683D01*
X141313340Y-116387718D01*
X141193642Y-116351408D01*
X141069160Y-116339148D01*
X140479910Y-116342220D01*
X140321160Y-116500970D01*
X140067160Y-116500970D01*
X139908410Y-116342220D01*
X139319160Y-116339148D01*
X139194678Y-116351408D01*
X139074980Y-116387718D01*
X138964666Y-116446683D01*
X138867975Y-116526035D01*
X138788623Y-116622726D01*
X138729658Y-116733040D01*
X138693348Y-116852738D01*
X138681088Y-116977220D01*
X138117597Y-116977220D01*
X138117812Y-116950880D01*
X138105552Y-116826398D01*
X138069242Y-116706700D01*
X138010277Y-116596386D01*
X137930925Y-116499695D01*
X137834234Y-116420343D01*
X137723920Y-116361378D01*
X137604222Y-116325068D01*
X137479740Y-116312808D01*
X136865490Y-116315880D01*
X136706740Y-116474630D01*
X136452740Y-116474630D01*
X136293990Y-116315880D01*
X135679740Y-116312808D01*
X135555258Y-116325068D01*
X135435560Y-116361378D01*
X135325246Y-116420343D01*
X135228555Y-116499695D01*
X135149203Y-116596386D01*
X135090238Y-116706700D01*
X135053928Y-116826398D01*
X135041668Y-116950880D01*
X119659000Y-116950880D01*
X119659000Y-107213000D01*
X169266000Y-107213000D01*
X169266001Y-145009000D01*
%TA.AperFunction,Conductor*%
D23*
G36*
X169266001Y-145009000D02*
G01*
X150527419Y-145009000D01*
X150495000Y-145005807D01*
X150462581Y-145009000D01*
X150365617Y-145018550D01*
X150241207Y-145056290D01*
X150241000Y-145056401D01*
X150241000Y-137414000D01*
X151511000Y-137414000D01*
X151511000Y-143764000D01*
X151513440Y-143788776D01*
X151520667Y-143812601D01*
X151532403Y-143834557D01*
X151548197Y-143853803D01*
X151567443Y-143869597D01*
X151589399Y-143881333D01*
X151613224Y-143888560D01*
X151638000Y-143891000D01*
X157988000Y-143891000D01*
X158012776Y-143888560D01*
X158036601Y-143881333D01*
X158058557Y-143869597D01*
X158077803Y-143853803D01*
X158093597Y-143834557D01*
X158105333Y-143812601D01*
X158112560Y-143788776D01*
X158115000Y-143764000D01*
X158115000Y-137414000D01*
X158112560Y-137389224D01*
X158105333Y-137365399D01*
X158093597Y-137343443D01*
X158077803Y-137324197D01*
X158058557Y-137308403D01*
X158036601Y-137296667D01*
X158012776Y-137289440D01*
X157988000Y-137287000D01*
X157703607Y-137287000D01*
X157627704Y-137211097D01*
X157871671Y-137139514D01*
X157992571Y-136884004D01*
X158061300Y-136609816D01*
X158075217Y-136327488D01*
X158033787Y-136047870D01*
X157938603Y-135781708D01*
X157871671Y-135656486D01*
X157627702Y-135584903D01*
X156814605Y-136398000D01*
X156828748Y-136412143D01*
X156649143Y-136591748D01*
X156635000Y-136577605D01*
X156620858Y-136591748D01*
X156441253Y-136412143D01*
X156455395Y-136398000D01*
X155642298Y-135584903D01*
X155398329Y-135656486D01*
X155277429Y-135911996D01*
X155208700Y-136186184D01*
X155194783Y-136468512D01*
X155236213Y-136748130D01*
X155331397Y-137014292D01*
X155398329Y-137139514D01*
X155642296Y-137211097D01*
X155566393Y-137287000D01*
X154405730Y-137287000D01*
X154456008Y-137121254D01*
X154473072Y-136948000D01*
X154473072Y-135848000D01*
X154456008Y-135674746D01*
X154405472Y-135508150D01*
X154323405Y-135354614D01*
X154212962Y-135220038D01*
X154078386Y-135109595D01*
X153932187Y-135031450D01*
X154036963Y-134945463D01*
X154147405Y-134810888D01*
X154229472Y-134657352D01*
X154280008Y-134490757D01*
X154297072Y-134317503D01*
X154297072Y-133017497D01*
X154280008Y-132844243D01*
X154229472Y-132677648D01*
X154147405Y-132524112D01*
X154036963Y-132389537D01*
X153902388Y-132279095D01*
X153748852Y-132197028D01*
X153582257Y-132146492D01*
X153409003Y-132129428D01*
X152583997Y-132129428D01*
X152410743Y-132146492D01*
X152244148Y-132197028D01*
X152090612Y-132279095D01*
X151956037Y-132389537D01*
X151845595Y-132524112D01*
X151763528Y-132677648D01*
X151712992Y-132844243D01*
X151695928Y-133017497D01*
X151695928Y-134317503D01*
X151712992Y-134490757D01*
X151763528Y-134657352D01*
X151845595Y-134810888D01*
X151956037Y-134945463D01*
X152090612Y-135055905D01*
X152091336Y-135056292D01*
X151991614Y-135109595D01*
X151857038Y-135220038D01*
X151746595Y-135354614D01*
X151664528Y-135508150D01*
X151613992Y-135674746D01*
X151596928Y-135848000D01*
X151596928Y-136948000D01*
X151613992Y-137121254D01*
X151664270Y-137287000D01*
X151638000Y-137287000D01*
X151613224Y-137289440D01*
X151589399Y-137296667D01*
X151567443Y-137308403D01*
X151548197Y-137324197D01*
X151532403Y-137343443D01*
X151520667Y-137365399D01*
X151513440Y-137389224D01*
X151511000Y-137414000D01*
X150241000Y-137414000D01*
X150241000Y-134404926D01*
X150238564Y-134380170D01*
X150219261Y-134283044D01*
X150212038Y-134259218D01*
X150200327Y-134237292D01*
X150145350Y-134154929D01*
X150129565Y-134135677D01*
X150110362Y-134119897D01*
X150028069Y-134064815D01*
X150006122Y-134053061D01*
X149982343Y-134045823D01*
X149885242Y-134026395D01*
X149860489Y-134023927D01*
X119772417Y-133985340D01*
X119712445Y-133973369D01*
X119672154Y-133946477D01*
X119659000Y-133926863D01*
X119659000Y-132676000D01*
X128305928Y-132676000D01*
X128318188Y-132800482D01*
X128354498Y-132920180D01*
X128413463Y-133030494D01*
X128492815Y-133127185D01*
X128589506Y-133206537D01*
X128699820Y-133265502D01*
X128819518Y-133301812D01*
X128944000Y-133314072D01*
X129508250Y-133311000D01*
X129667000Y-133152250D01*
X129667000Y-131953000D01*
X129921000Y-131953000D01*
X129921000Y-133152250D01*
X130079750Y-133311000D01*
X130644000Y-133314072D01*
X130768482Y-133301812D01*
X130888180Y-133265502D01*
X130998494Y-133206537D01*
X131095185Y-133127185D01*
X131174537Y-133030494D01*
X131233502Y-132920180D01*
X131269812Y-132800482D01*
X131282072Y-132676000D01*
X131279000Y-132111750D01*
X131120250Y-131953000D01*
X129921000Y-131953000D01*
X129667000Y-131953000D01*
X128467750Y-131953000D01*
X128309000Y-132111750D01*
X128305928Y-132676000D01*
X119659000Y-132676000D01*
X119659000Y-130976000D01*
X128305928Y-130976000D01*
X128309000Y-131540250D01*
X128467750Y-131699000D01*
X129667000Y-131699000D01*
X129667000Y-129413000D01*
X129921000Y-129413000D01*
X129921000Y-131699000D01*
X131120250Y-131699000D01*
X131279000Y-131540250D01*
X131282072Y-130976000D01*
X131269812Y-130851518D01*
X131233502Y-130731820D01*
X131174537Y-130621506D01*
X131095185Y-130524815D01*
X130998494Y-130445463D01*
X130888180Y-130386498D01*
X130807534Y-130362034D01*
X130891588Y-130286269D01*
X131065641Y-130052920D01*
X131190825Y-129790099D01*
X131235476Y-129642890D01*
X131114155Y-129413000D01*
X129921000Y-129413000D01*
X129667000Y-129413000D01*
X128473845Y-129413000D01*
X128352524Y-129642890D01*
X128397175Y-129790099D01*
X128522359Y-130052920D01*
X128696412Y-130286269D01*
X128780466Y-130362034D01*
X128699820Y-130386498D01*
X128589506Y-130445463D01*
X128492815Y-130524815D01*
X128413463Y-130621506D01*
X128354498Y-130731820D01*
X128318188Y-130851518D01*
X128305928Y-130976000D01*
X119659000Y-130976000D01*
X119659000Y-127102890D01*
X128352524Y-127102890D01*
X128397175Y-127250099D01*
X128522359Y-127512920D01*
X128696412Y-127746269D01*
X128912645Y-127941178D01*
X129038255Y-128016000D01*
X128912645Y-128090822D01*
X128696412Y-128285731D01*
X128522359Y-128519080D01*
X128397175Y-128781901D01*
X128352524Y-128929110D01*
X128473845Y-129159000D01*
X129667000Y-129159000D01*
X129667000Y-126873000D01*
X129921000Y-126873000D01*
X129921000Y-129159000D01*
X131114155Y-129159000D01*
X131235476Y-128929110D01*
X131190825Y-128781901D01*
X131065641Y-128519080D01*
X130891588Y-128285731D01*
X130675355Y-128090822D01*
X130549745Y-128016000D01*
X130675355Y-127941178D01*
X130891588Y-127746269D01*
X131065641Y-127512920D01*
X131190825Y-127250099D01*
X131235476Y-127102890D01*
X131114155Y-126873000D01*
X129921000Y-126873000D01*
X129667000Y-126873000D01*
X128473845Y-126873000D01*
X128352524Y-127102890D01*
X119659000Y-127102890D01*
X119659000Y-118979740D01*
X128309000Y-118979740D01*
X128309000Y-119272260D01*
X128366068Y-119559158D01*
X128478010Y-119829411D01*
X128640525Y-120072632D01*
X128847368Y-120279475D01*
X129021760Y-120396000D01*
X128847368Y-120512525D01*
X128640525Y-120719368D01*
X128478010Y-120962589D01*
X128366068Y-121232842D01*
X128309000Y-121519740D01*
X128309000Y-121812260D01*
X128366068Y-122099158D01*
X128478010Y-122369411D01*
X128640525Y-122612632D01*
X128847368Y-122819475D01*
X129021760Y-122936000D01*
X128847368Y-123052525D01*
X128640525Y-123259368D01*
X128478010Y-123502589D01*
X128366068Y-123772842D01*
X128309000Y-124059740D01*
X128309000Y-124352260D01*
X128366068Y-124639158D01*
X128478010Y-124909411D01*
X128640525Y-125152632D01*
X128847368Y-125359475D01*
X129029534Y-125481195D01*
X128912645Y-125550822D01*
X128696412Y-125745731D01*
X128522359Y-125979080D01*
X128397175Y-126241901D01*
X128352524Y-126389110D01*
X128473845Y-126619000D01*
X129667000Y-126619000D01*
X129667000Y-126599000D01*
X129921000Y-126599000D01*
X129921000Y-126619000D01*
X131114155Y-126619000D01*
X131235476Y-126389110D01*
X131190825Y-126241901D01*
X131065641Y-125979080D01*
X130891588Y-125745731D01*
X130675355Y-125550822D01*
X130558466Y-125481195D01*
X130740632Y-125359475D01*
X130947475Y-125152632D01*
X131072178Y-124966000D01*
X131696187Y-124966000D01*
X131747038Y-125027962D01*
X131881613Y-125138405D01*
X132035149Y-125220472D01*
X132201745Y-125271008D01*
X132374999Y-125288072D01*
X133625001Y-125288072D01*
X133798255Y-125271008D01*
X133964851Y-125220472D01*
X134118387Y-125138405D01*
X134252962Y-125027962D01*
X134363405Y-124893387D01*
X134445472Y-124739851D01*
X134496008Y-124573255D01*
X134513072Y-124400001D01*
X134513072Y-123599999D01*
X134496008Y-123426745D01*
X134445472Y-123260149D01*
X134363405Y-123106613D01*
X134252962Y-122972038D01*
X134118387Y-122861595D01*
X133964851Y-122779528D01*
X133798255Y-122728992D01*
X133625001Y-122711928D01*
X132374999Y-122711928D01*
X132201745Y-122728992D01*
X132035149Y-122779528D01*
X131881613Y-122861595D01*
X131747038Y-122972038D01*
X131636595Y-123106613D01*
X131554528Y-123260149D01*
X131503992Y-123426745D01*
X131502096Y-123446000D01*
X131072178Y-123446000D01*
X130947475Y-123259368D01*
X130740632Y-123052525D01*
X130566240Y-122936000D01*
X130740632Y-122819475D01*
X130947475Y-122612632D01*
X131109990Y-122369411D01*
X131221932Y-122099158D01*
X131279000Y-121812260D01*
X131279000Y-121519740D01*
X131221932Y-121232842D01*
X131109990Y-120962589D01*
X130947475Y-120719368D01*
X130740632Y-120512525D01*
X130721886Y-120499999D01*
X131486928Y-120499999D01*
X131486928Y-121300001D01*
X131503992Y-121473255D01*
X131554528Y-121639851D01*
X131636595Y-121793387D01*
X131747038Y-121927962D01*
X131881613Y-122038405D01*
X132035149Y-122120472D01*
X132201745Y-122171008D01*
X132374999Y-122188072D01*
X133625001Y-122188072D01*
X133798255Y-122171008D01*
X133964851Y-122120472D01*
X134118387Y-122038405D01*
X134252962Y-121927962D01*
X134363405Y-121793387D01*
X134394614Y-121735000D01*
X135265796Y-121735000D01*
X135301777Y-121778843D01*
X135436352Y-121889285D01*
X135589888Y-121971352D01*
X135756483Y-122021888D01*
X135929737Y-122038952D01*
X137229743Y-122038952D01*
X137402997Y-122021888D01*
X137569592Y-121971352D01*
X137723128Y-121889285D01*
X137857703Y-121778843D01*
X137968145Y-121644268D01*
X138006036Y-121573380D01*
X138805512Y-121573380D01*
X138830755Y-121620606D01*
X138941198Y-121755182D01*
X139075774Y-121865625D01*
X139229310Y-121947692D01*
X139395906Y-121998228D01*
X139569160Y-122015292D01*
X140819160Y-122015292D01*
X140992414Y-121998228D01*
X141159010Y-121947692D01*
X141312546Y-121865625D01*
X141447122Y-121755182D01*
X141557565Y-121620606D01*
X141622180Y-121499720D01*
X142467565Y-121499720D01*
X142490508Y-121575352D01*
X142572575Y-121728888D01*
X142683017Y-121863463D01*
X142817592Y-121973905D01*
X142971128Y-122055972D01*
X143137723Y-122106508D01*
X143310977Y-122123572D01*
X144610983Y-122123572D01*
X144784237Y-122106508D01*
X144950832Y-122055972D01*
X145104368Y-121973905D01*
X145238943Y-121863463D01*
X145349385Y-121728888D01*
X145431452Y-121575352D01*
X145481988Y-121408757D01*
X145499052Y-121235503D01*
X145499052Y-120465795D01*
X146222109Y-119742738D01*
X146258010Y-119829411D01*
X146420525Y-120072632D01*
X146627368Y-120279475D01*
X146801760Y-120396000D01*
X146627368Y-120512525D01*
X146420525Y-120719368D01*
X146258010Y-120962589D01*
X146146068Y-121232842D01*
X146089000Y-121519740D01*
X146089000Y-121812260D01*
X146146068Y-122099158D01*
X146258010Y-122369411D01*
X146420525Y-122612632D01*
X146627368Y-122819475D01*
X146801760Y-122936000D01*
X146627368Y-123052525D01*
X146420525Y-123259368D01*
X146258010Y-123502589D01*
X146146068Y-123772842D01*
X146089000Y-124059740D01*
X146089000Y-124352260D01*
X146146068Y-124639158D01*
X146258010Y-124909411D01*
X146420525Y-125152632D01*
X146627368Y-125359475D01*
X146801760Y-125476000D01*
X146627368Y-125592525D01*
X146420525Y-125799368D01*
X146258010Y-126042589D01*
X146146068Y-126312842D01*
X146089000Y-126599740D01*
X146089000Y-126892260D01*
X146146068Y-127179158D01*
X146258010Y-127449411D01*
X146420525Y-127692632D01*
X146627368Y-127899475D01*
X146801760Y-128016000D01*
X146627368Y-128132525D01*
X146420525Y-128339368D01*
X146258010Y-128582589D01*
X146146068Y-128852842D01*
X146089000Y-129139740D01*
X146089000Y-129432260D01*
X146146068Y-129719158D01*
X146258010Y-129989411D01*
X146420525Y-130232632D01*
X146552380Y-130364487D01*
X146479820Y-130386498D01*
X146369506Y-130445463D01*
X146272815Y-130524815D01*
X146193463Y-130621506D01*
X146134498Y-130731820D01*
X146098188Y-130851518D01*
X146085928Y-130976000D01*
X146085928Y-132676000D01*
X146098188Y-132800482D01*
X146134498Y-132920180D01*
X146193463Y-133030494D01*
X146272815Y-133127185D01*
X146369506Y-133206537D01*
X146479820Y-133265502D01*
X146599518Y-133301812D01*
X146724000Y-133314072D01*
X148424000Y-133314072D01*
X148548482Y-133301812D01*
X148668180Y-133265502D01*
X148778494Y-133206537D01*
X148875185Y-133127185D01*
X148954537Y-133030494D01*
X149013502Y-132920180D01*
X149049812Y-132800482D01*
X149062072Y-132676000D01*
X149062072Y-130976000D01*
X149049812Y-130851518D01*
X149013502Y-130731820D01*
X148954537Y-130621506D01*
X148936888Y-130600000D01*
X153636928Y-130600000D01*
X153649188Y-130724482D01*
X153685498Y-130844180D01*
X153744463Y-130954494D01*
X153823815Y-131051185D01*
X153920506Y-131130537D01*
X154030820Y-131189502D01*
X154150518Y-131225812D01*
X154275000Y-131238072D01*
X154651750Y-131235000D01*
X154810500Y-131076250D01*
X154810500Y-129827000D01*
X155064500Y-129827000D01*
X155064500Y-131076250D01*
X155223250Y-131235000D01*
X155600000Y-131238072D01*
X155724482Y-131225812D01*
X155844180Y-131189502D01*
X155954494Y-131130537D01*
X156051185Y-131051185D01*
X156130537Y-130954494D01*
X156189502Y-130844180D01*
X156225812Y-130724482D01*
X156238072Y-130600000D01*
X156235000Y-129985750D01*
X156076250Y-129827000D01*
X155064500Y-129827000D01*
X154810500Y-129827000D01*
X153798750Y-129827000D01*
X153640000Y-129985750D01*
X153636928Y-130600000D01*
X148936888Y-130600000D01*
X148875185Y-130524815D01*
X148778494Y-130445463D01*
X148668180Y-130386498D01*
X148595620Y-130364487D01*
X148727475Y-130232632D01*
X148889990Y-129989411D01*
X149001932Y-129719158D01*
X149059000Y-129432260D01*
X149059000Y-129139740D01*
X149001932Y-128852842D01*
X148889990Y-128582589D01*
X148727475Y-128339368D01*
X148520632Y-128132525D01*
X148346240Y-128016000D01*
X148520632Y-127899475D01*
X148727475Y-127692632D01*
X148852178Y-127506000D01*
X152512928Y-127506000D01*
X152512928Y-128047503D01*
X152529992Y-128220757D01*
X152580528Y-128387352D01*
X152662595Y-128540888D01*
X152773037Y-128675463D01*
X152907612Y-128785905D01*
X153061148Y-128867972D01*
X153227743Y-128918508D01*
X153400997Y-128935572D01*
X153637606Y-128935572D01*
X153640000Y-129414250D01*
X153798750Y-129573000D01*
X154810500Y-129573000D01*
X154810500Y-129553000D01*
X155064500Y-129553000D01*
X155064500Y-129573000D01*
X156076250Y-129573000D01*
X156235000Y-129414250D01*
X156238072Y-128800000D01*
X156225812Y-128675518D01*
X156189502Y-128555820D01*
X156130537Y-128445506D01*
X156089088Y-128395000D01*
X156530678Y-128395000D01*
X156568000Y-128398676D01*
X156605322Y-128395000D01*
X156605333Y-128395000D01*
X156716986Y-128384003D01*
X156860247Y-128340546D01*
X156992276Y-128269974D01*
X157108001Y-128175001D01*
X157131804Y-128145998D01*
X157761730Y-127516072D01*
X158084999Y-127516072D01*
X158084999Y-128161928D01*
X157649997Y-128161928D01*
X157476743Y-128178992D01*
X157310148Y-128229528D01*
X157156612Y-128311595D01*
X157022037Y-128422037D01*
X156911595Y-128556612D01*
X156829528Y-128710148D01*
X156778992Y-128876743D01*
X156761928Y-129049997D01*
X156761928Y-130350003D01*
X156778992Y-130523257D01*
X156829528Y-130689852D01*
X156911595Y-130843388D01*
X157022037Y-130977963D01*
X157156612Y-131088405D01*
X157227501Y-131126296D01*
X157227501Y-131729123D01*
X157198463Y-131764506D01*
X157139498Y-131874820D01*
X157103188Y-131994518D01*
X157090928Y-132119000D01*
X157090928Y-132331241D01*
X157027388Y-132279095D01*
X156873852Y-132197028D01*
X156707257Y-132146492D01*
X156534003Y-132129428D01*
X155708997Y-132129428D01*
X155535743Y-132146492D01*
X155369148Y-132197028D01*
X155215612Y-132279095D01*
X155081037Y-132389537D01*
X154970595Y-132524112D01*
X154888528Y-132677648D01*
X154837992Y-132844243D01*
X154820928Y-133017497D01*
X154820928Y-134317503D01*
X154837992Y-134490757D01*
X154888528Y-134657352D01*
X154970595Y-134810888D01*
X155081037Y-134945463D01*
X155215612Y-135055905D01*
X155369148Y-135137972D01*
X155535743Y-135188508D01*
X155708997Y-135205572D01*
X155880505Y-135205572D01*
X155821903Y-135405298D01*
X156635000Y-136218395D01*
X157448097Y-135405298D01*
X157376514Y-135161329D01*
X157121004Y-135040429D01*
X157063737Y-135026074D01*
X157161963Y-134945463D01*
X157272405Y-134810888D01*
X157354472Y-134657352D01*
X157405008Y-134490757D01*
X157411238Y-134427500D01*
X157547448Y-134427500D01*
X157604518Y-134444812D01*
X157729000Y-134457072D01*
X158379000Y-134457072D01*
X158503482Y-134444812D01*
X158623180Y-134408502D01*
X158733494Y-134349537D01*
X158830185Y-134270185D01*
X158909537Y-134173494D01*
X158968502Y-134063180D01*
X159004715Y-133943801D01*
X159006454Y-133958902D01*
X159045710Y-134077666D01*
X159107381Y-134186490D01*
X159189097Y-134281192D01*
X159287719Y-134358132D01*
X159399456Y-134414353D01*
X159520014Y-134447695D01*
X159644761Y-134456877D01*
X159668250Y-134454000D01*
X159827000Y-134295250D01*
X159827000Y-133692000D01*
X159807000Y-133692000D01*
X159807000Y-133665250D01*
X159827000Y-133645250D01*
X159827000Y-133472000D01*
X160081000Y-133472000D01*
X160081000Y-133645250D01*
X160127750Y-133692000D01*
X160081000Y-133692000D01*
X160081000Y-134295250D01*
X160239750Y-134454000D01*
X160263239Y-134456877D01*
X160387986Y-134447695D01*
X160508544Y-134414353D01*
X160620281Y-134358132D01*
X160718903Y-134281192D01*
X160800619Y-134186490D01*
X160862290Y-134077666D01*
X160901546Y-133958902D01*
X160914000Y-133850750D01*
X160755250Y-133692000D01*
X160640959Y-133692000D01*
X160718903Y-133631192D01*
X160800619Y-133536490D01*
X160847519Y-133453731D01*
X160914000Y-133387250D01*
X160903262Y-133294000D01*
X160914000Y-133200750D01*
X160847519Y-133134269D01*
X160800619Y-133051510D01*
X160730312Y-132970030D01*
X160809537Y-132873494D01*
X160846032Y-132805218D01*
X160914000Y-132737250D01*
X160903645Y-132647328D01*
X160904812Y-132643482D01*
X160917072Y-132519000D01*
X160917072Y-132119000D01*
X160904812Y-131994518D01*
X160868502Y-131874820D01*
X160809537Y-131764506D01*
X160730185Y-131667815D01*
X160714000Y-131654532D01*
X160714000Y-129923301D01*
X161574230Y-129063072D01*
X162450003Y-129063072D01*
X162623257Y-129046008D01*
X162789852Y-128995472D01*
X162943388Y-128913405D01*
X163077963Y-128802963D01*
X163188405Y-128668388D01*
X163270472Y-128514852D01*
X163321008Y-128348257D01*
X163338072Y-128175003D01*
X163338072Y-127349997D01*
X163321008Y-127176743D01*
X163270472Y-127010148D01*
X163188405Y-126856612D01*
X163077963Y-126722037D01*
X163023308Y-126677183D01*
X163986014Y-125714478D01*
X164015011Y-125690681D01*
X164049423Y-125648750D01*
X164109984Y-125574957D01*
X164180556Y-125442927D01*
X164184474Y-125430010D01*
X164224013Y-125299666D01*
X164235010Y-125188013D01*
X164235010Y-125188003D01*
X164238686Y-125150680D01*
X164235010Y-125113357D01*
X164235010Y-123512332D01*
X164238686Y-123475009D01*
X164235010Y-123437686D01*
X164235010Y-123437677D01*
X164224013Y-123326024D01*
X164180556Y-123182763D01*
X164180332Y-123182345D01*
X164221008Y-123048254D01*
X164238072Y-122875000D01*
X164238072Y-122125000D01*
X164221008Y-121951746D01*
X164170472Y-121785150D01*
X164088405Y-121631614D01*
X163977962Y-121497038D01*
X163890183Y-121425000D01*
X163977962Y-121352962D01*
X164088405Y-121218386D01*
X164170472Y-121064850D01*
X164221008Y-120898254D01*
X164238072Y-120725000D01*
X164238072Y-119975000D01*
X164221008Y-119801746D01*
X164170472Y-119635150D01*
X164088405Y-119481614D01*
X163977962Y-119347038D01*
X163843386Y-119236595D01*
X163689850Y-119154528D01*
X163523254Y-119103992D01*
X163350000Y-119086928D01*
X163226005Y-119086928D01*
X163197636Y-119033854D01*
X163119439Y-118938570D01*
X163119437Y-118938568D01*
X163093291Y-118906709D01*
X163061432Y-118880563D01*
X161324449Y-117143582D01*
X161324440Y-117143571D01*
X158219446Y-114038579D01*
X158193291Y-114006709D01*
X158066146Y-113902364D01*
X157921087Y-113824828D01*
X157763689Y-113777082D01*
X157641019Y-113765000D01*
X157641018Y-113765000D01*
X157600000Y-113760960D01*
X157558982Y-113765000D01*
X156856250Y-113765000D01*
X156838405Y-113731614D01*
X156727962Y-113597038D01*
X156593386Y-113486595D01*
X156439850Y-113404528D01*
X156273254Y-113353992D01*
X156100000Y-113336928D01*
X154400000Y-113336928D01*
X154226746Y-113353992D01*
X154060150Y-113404528D01*
X153906614Y-113486595D01*
X153772038Y-113597038D01*
X153661595Y-113731614D01*
X153643750Y-113765000D01*
X150224998Y-113765000D01*
X150183980Y-113760960D01*
X150142961Y-113765000D01*
X150020291Y-113777082D01*
X149862893Y-113824828D01*
X149717834Y-113902364D01*
X149590689Y-114006709D01*
X149564539Y-114038573D01*
X145496978Y-118106135D01*
X145495980Y-117983750D01*
X145337230Y-117825000D01*
X144087980Y-117825000D01*
X144087980Y-118836750D01*
X144246730Y-118995500D01*
X144605817Y-118997296D01*
X144080685Y-119522428D01*
X143310977Y-119522428D01*
X143137723Y-119539492D01*
X142971128Y-119590028D01*
X142817592Y-119672095D01*
X142683017Y-119782537D01*
X142644295Y-119829720D01*
X141622180Y-119829720D01*
X141557565Y-119708834D01*
X141447122Y-119574258D01*
X141312546Y-119463815D01*
X141159010Y-119381748D01*
X140992414Y-119331212D01*
X140819160Y-119314148D01*
X139569160Y-119314148D01*
X139395906Y-119331212D01*
X139229310Y-119381748D01*
X139075774Y-119463815D01*
X138941198Y-119574258D01*
X138830755Y-119708834D01*
X138748688Y-119862370D01*
X138736248Y-119903380D01*
X138006036Y-119903380D01*
X137968145Y-119832492D01*
X137857703Y-119697917D01*
X137723128Y-119587475D01*
X137569592Y-119505408D01*
X137402997Y-119454872D01*
X137229743Y-119437808D01*
X135929737Y-119437808D01*
X135756483Y-119454872D01*
X135589888Y-119505408D01*
X135436352Y-119587475D01*
X135301777Y-119697917D01*
X135191335Y-119832492D01*
X135109268Y-119986028D01*
X135085312Y-120065000D01*
X134394614Y-120065000D01*
X134363405Y-120006613D01*
X134252962Y-119872038D01*
X134118387Y-119761595D01*
X133964851Y-119679528D01*
X133798255Y-119628992D01*
X133625001Y-119611928D01*
X132374999Y-119611928D01*
X132201745Y-119628992D01*
X132035149Y-119679528D01*
X131881613Y-119761595D01*
X131747038Y-119872038D01*
X131636595Y-120006613D01*
X131554528Y-120160149D01*
X131503992Y-120326745D01*
X131486928Y-120499999D01*
X130721886Y-120499999D01*
X130566240Y-120396000D01*
X130740632Y-120279475D01*
X130947475Y-120072632D01*
X131109990Y-119829411D01*
X131221932Y-119559158D01*
X131279000Y-119272260D01*
X131279000Y-118979740D01*
X131221932Y-118692842D01*
X131109990Y-118422589D01*
X131011963Y-118275880D01*
X135041668Y-118275880D01*
X135053928Y-118400362D01*
X135090238Y-118520060D01*
X135149203Y-118630374D01*
X135228555Y-118727065D01*
X135325246Y-118806417D01*
X135435560Y-118865382D01*
X135555258Y-118901692D01*
X135679740Y-118913952D01*
X136293990Y-118910880D01*
X136452740Y-118752130D01*
X136452740Y-117740380D01*
X136706740Y-117740380D01*
X136706740Y-118752130D01*
X136865490Y-118910880D01*
X137479740Y-118913952D01*
X137604222Y-118901692D01*
X137723920Y-118865382D01*
X137834234Y-118806417D01*
X137930925Y-118727065D01*
X138010277Y-118630374D01*
X138069242Y-118520060D01*
X138104988Y-118402220D01*
X138681088Y-118402220D01*
X138693348Y-118526702D01*
X138729658Y-118646400D01*
X138788623Y-118756714D01*
X138867975Y-118853405D01*
X138964666Y-118932757D01*
X139074980Y-118991722D01*
X139194678Y-119028032D01*
X139319160Y-119040292D01*
X139908410Y-119037220D01*
X140067160Y-118878470D01*
X140067160Y-117816720D01*
X140321160Y-117816720D01*
X140321160Y-118878470D01*
X140479910Y-119037220D01*
X141069160Y-119040292D01*
X141193642Y-119028032D01*
X141313340Y-118991722D01*
X141423654Y-118932757D01*
X141520345Y-118853405D01*
X141599697Y-118756714D01*
X141658662Y-118646400D01*
X141694972Y-118526702D01*
X141707232Y-118402220D01*
X141706932Y-118360500D01*
X142422908Y-118360500D01*
X142435168Y-118484982D01*
X142471478Y-118604680D01*
X142530443Y-118714994D01*
X142609795Y-118811685D01*
X142706486Y-118891037D01*
X142816800Y-118950002D01*
X142936498Y-118986312D01*
X143060980Y-118998572D01*
X143675230Y-118995500D01*
X143833980Y-118836750D01*
X143833980Y-117825000D01*
X142584730Y-117825000D01*
X142425980Y-117983750D01*
X142422908Y-118360500D01*
X141706932Y-118360500D01*
X141704160Y-117975470D01*
X141545410Y-117816720D01*
X140321160Y-117816720D01*
X140067160Y-117816720D01*
X138842910Y-117816720D01*
X138684160Y-117975470D01*
X138681088Y-118402220D01*
X138104988Y-118402220D01*
X138105552Y-118400362D01*
X138117812Y-118275880D01*
X138114740Y-117899130D01*
X137955990Y-117740380D01*
X136706740Y-117740380D01*
X136452740Y-117740380D01*
X135203490Y-117740380D01*
X135044740Y-117899130D01*
X135041668Y-118275880D01*
X131011963Y-118275880D01*
X130947475Y-118179368D01*
X130740632Y-117972525D01*
X130497411Y-117810010D01*
X130227158Y-117698068D01*
X129940260Y-117641000D01*
X129647740Y-117641000D01*
X129360842Y-117698068D01*
X129090589Y-117810010D01*
X128847368Y-117972525D01*
X128640525Y-118179368D01*
X128478010Y-118422589D01*
X128366068Y-118692842D01*
X128309000Y-118979740D01*
X119659000Y-118979740D01*
X119659000Y-116950880D01*
X135041668Y-116950880D01*
X135044740Y-117327630D01*
X135203490Y-117486380D01*
X136452740Y-117486380D01*
X136452740Y-116474630D01*
X136706740Y-116474630D01*
X136706740Y-117486380D01*
X137955990Y-117486380D01*
X138114740Y-117327630D01*
X138117597Y-116977220D01*
X138681088Y-116977220D01*
X138684160Y-117403970D01*
X138842910Y-117562720D01*
X140067160Y-117562720D01*
X140067160Y-116500970D01*
X140321160Y-116500970D01*
X140321160Y-117562720D01*
X141545410Y-117562720D01*
X141704160Y-117403970D01*
X141706812Y-117035500D01*
X142422908Y-117035500D01*
X142425980Y-117412250D01*
X142584730Y-117571000D01*
X143833980Y-117571000D01*
X143833980Y-116559250D01*
X144087980Y-116559250D01*
X144087980Y-117571000D01*
X145337230Y-117571000D01*
X145495980Y-117412250D01*
X145499052Y-117035500D01*
X145486792Y-116911018D01*
X145450482Y-116791320D01*
X145391517Y-116681006D01*
X145312165Y-116584315D01*
X145215474Y-116504963D01*
X145105160Y-116445998D01*
X144985462Y-116409688D01*
X144860980Y-116397428D01*
X144246730Y-116400500D01*
X144087980Y-116559250D01*
X143833980Y-116559250D01*
X143675230Y-116400500D01*
X143060980Y-116397428D01*
X142936498Y-116409688D01*
X142816800Y-116445998D01*
X142706486Y-116504963D01*
X142609795Y-116584315D01*
X142530443Y-116681006D01*
X142471478Y-116791320D01*
X142435168Y-116911018D01*
X142422908Y-117035500D01*
X141706812Y-117035500D01*
X141707232Y-116977220D01*
X141694972Y-116852738D01*
X141658662Y-116733040D01*
X141599697Y-116622726D01*
X141520345Y-116526035D01*
X141423654Y-116446683D01*
X141313340Y-116387718D01*
X141193642Y-116351408D01*
X141069160Y-116339148D01*
X140479910Y-116342220D01*
X140321160Y-116500970D01*
X140067160Y-116500970D01*
X139908410Y-116342220D01*
X139319160Y-116339148D01*
X139194678Y-116351408D01*
X139074980Y-116387718D01*
X138964666Y-116446683D01*
X138867975Y-116526035D01*
X138788623Y-116622726D01*
X138729658Y-116733040D01*
X138693348Y-116852738D01*
X138681088Y-116977220D01*
X138117597Y-116977220D01*
X138117812Y-116950880D01*
X138105552Y-116826398D01*
X138069242Y-116706700D01*
X138010277Y-116596386D01*
X137930925Y-116499695D01*
X137834234Y-116420343D01*
X137723920Y-116361378D01*
X137604222Y-116325068D01*
X137479740Y-116312808D01*
X136865490Y-116315880D01*
X136706740Y-116474630D01*
X136452740Y-116474630D01*
X136293990Y-116315880D01*
X135679740Y-116312808D01*
X135555258Y-116325068D01*
X135435560Y-116361378D01*
X135325246Y-116420343D01*
X135228555Y-116499695D01*
X135149203Y-116596386D01*
X135090238Y-116706700D01*
X135053928Y-116826398D01*
X135041668Y-116950880D01*
X119659000Y-116950880D01*
X119659000Y-107213000D01*
X169266000Y-107213000D01*
X169266001Y-145009000D01*
G37*
%TD.AperFunction*%
D22*
X159061968Y-132805218D02*
X159098463Y-132873494D01*
X159177688Y-132970030D01*
X159107381Y-133051510D01*
X159060481Y-133134269D01*
X159004000Y-133190750D01*
X158946032Y-133132782D01*
X158909537Y-133064506D01*
X158831158Y-132969000D01*
X158909537Y-132873494D01*
X158946032Y-132805218D01*
X159004000Y-132747250D01*
X159061968Y-132805218D01*
%TA.AperFunction,Conductor*%
D23*
G36*
X159061968Y-132805218D02*
G01*
X159098463Y-132873494D01*
X159177688Y-132970030D01*
X159107381Y-133051510D01*
X159060481Y-133134269D01*
X159004000Y-133190750D01*
X158946032Y-133132782D01*
X158909537Y-133064506D01*
X158831158Y-132969000D01*
X158909537Y-132873494D01*
X158946032Y-132805218D01*
X159004000Y-132747250D01*
X159061968Y-132805218D01*
G37*
%TD.AperFunction*%
D22*
X152914990Y-117353227D02*
X152910950Y-117394246D01*
X152921268Y-117499003D01*
X152927072Y-117557934D01*
X152974818Y-117715332D01*
X153052354Y-117860391D01*
X153156699Y-117987537D01*
X153188569Y-118013692D01*
X153936302Y-118761426D01*
X153962453Y-118793291D01*
X154089598Y-118897636D01*
X154221015Y-118967880D01*
X156515062Y-121261928D01*
X156474999Y-121261928D01*
X156301745Y-121278992D01*
X156135149Y-121329528D01*
X155981613Y-121411595D01*
X155847038Y-121522038D01*
X155736595Y-121656613D01*
X155654528Y-121810149D01*
X155612599Y-121948371D01*
X155613072Y-121900000D01*
X155600812Y-121775518D01*
X155564502Y-121655820D01*
X155505537Y-121545506D01*
X155426185Y-121448815D01*
X155329494Y-121369463D01*
X155219180Y-121310498D01*
X155099482Y-121274188D01*
X154975000Y-121261928D01*
X154735750Y-121265000D01*
X154577000Y-121423750D01*
X154577000Y-122373000D01*
X154597000Y-122373000D01*
X154597000Y-122627000D01*
X154577000Y-122627000D01*
X154577000Y-122647000D01*
X154323000Y-122647000D01*
X154323000Y-122627000D01*
X153448750Y-122627000D01*
X153290000Y-122785750D01*
X153286928Y-123100000D01*
X153297778Y-123210162D01*
X153151000Y-123209428D01*
X153026518Y-123221688D01*
X152906820Y-123257998D01*
X152796506Y-123316963D01*
X152699815Y-123396315D01*
X152620463Y-123493006D01*
X152561498Y-123603320D01*
X152525188Y-123723018D01*
X152512928Y-123847500D01*
X152516000Y-124224250D01*
X152674750Y-124383000D01*
X153924000Y-124383000D01*
X153924000Y-124363000D01*
X154178000Y-124363000D01*
X154178000Y-124383000D01*
X155427250Y-124383000D01*
X155586000Y-124224250D01*
X155589072Y-123847500D01*
X155576812Y-123723018D01*
X155540502Y-123603320D01*
X155481537Y-123493006D01*
X155477734Y-123488372D01*
X155505537Y-123454494D01*
X155564502Y-123344180D01*
X155600812Y-123224482D01*
X155613072Y-123100000D01*
X155612599Y-123051629D01*
X155654528Y-123189851D01*
X155736595Y-123343387D01*
X155847038Y-123477962D01*
X155981613Y-123588405D01*
X156085000Y-123643667D01*
X156085000Y-123810677D01*
X156081324Y-123848000D01*
X156085000Y-123885322D01*
X156085000Y-123885332D01*
X156095997Y-123996985D01*
X156130274Y-124109983D01*
X156139454Y-124140246D01*
X156210026Y-124272276D01*
X156249871Y-124320826D01*
X156304999Y-124388001D01*
X156334002Y-124411803D01*
X156481928Y-124559729D01*
X156481928Y-124978000D01*
X156494188Y-125102482D01*
X156501929Y-125128000D01*
X156494188Y-125153518D01*
X156481928Y-125278000D01*
X156485000Y-125317250D01*
X156643750Y-125476000D01*
X156725859Y-125476000D01*
X156765506Y-125508537D01*
X156875820Y-125567502D01*
X156992841Y-125603000D01*
X156875820Y-125638498D01*
X156765506Y-125697463D01*
X156725859Y-125730000D01*
X156643750Y-125730000D01*
X156485000Y-125888750D01*
X156481928Y-125928000D01*
X156494188Y-126052482D01*
X156501929Y-126078000D01*
X156494188Y-126103518D01*
X156481928Y-126228000D01*
X156481928Y-126646271D01*
X156253199Y-126875000D01*
X155517384Y-126875000D01*
X155439405Y-126729112D01*
X155328963Y-126594537D01*
X155194388Y-126484095D01*
X155040852Y-126402028D01*
X154874257Y-126351492D01*
X154701003Y-126334428D01*
X153825229Y-126334428D01*
X153725803Y-126235002D01*
X153702001Y-126205999D01*
X153586276Y-126111026D01*
X153454247Y-126040454D01*
X153310986Y-125996997D01*
X153199333Y-125986000D01*
X153199322Y-125986000D01*
X153162000Y-125982324D01*
X153124678Y-125986000D01*
X148852178Y-125986000D01*
X148727475Y-125799368D01*
X148520632Y-125592525D01*
X148346240Y-125476000D01*
X148520632Y-125359475D01*
X148707607Y-125172500D01*
X152512928Y-125172500D01*
X152525188Y-125296982D01*
X152561498Y-125416680D01*
X152620463Y-125526994D01*
X152699815Y-125623685D01*
X152796506Y-125703037D01*
X152906820Y-125762002D01*
X153026518Y-125798312D01*
X153151000Y-125810572D01*
X153765250Y-125807500D01*
X153924000Y-125648750D01*
X153924000Y-124637000D01*
X154178000Y-124637000D01*
X154178000Y-125648750D01*
X154336750Y-125807500D01*
X154951000Y-125810572D01*
X155075482Y-125798312D01*
X155195180Y-125762002D01*
X155305494Y-125703037D01*
X155402185Y-125623685D01*
X155481537Y-125526994D01*
X155540502Y-125416680D01*
X155576812Y-125296982D01*
X155589072Y-125172500D01*
X155586000Y-124795750D01*
X155427250Y-124637000D01*
X154178000Y-124637000D01*
X153924000Y-124637000D01*
X152674750Y-124637000D01*
X152516000Y-124795750D01*
X152512928Y-125172500D01*
X148707607Y-125172500D01*
X148727475Y-125152632D01*
X148889990Y-124909411D01*
X149001932Y-124639158D01*
X149059000Y-124352260D01*
X149059000Y-124059740D01*
X149001932Y-123772842D01*
X148889990Y-123502589D01*
X148727475Y-123259368D01*
X148520632Y-123052525D01*
X148346240Y-122936000D01*
X148520632Y-122819475D01*
X148727475Y-122612632D01*
X148889990Y-122369411D01*
X149001932Y-122099158D01*
X149041547Y-121900000D01*
X153286928Y-121900000D01*
X153290000Y-122214250D01*
X153448750Y-122373000D01*
X154323000Y-122373000D01*
X154323000Y-121423750D01*
X154164250Y-121265000D01*
X153925000Y-121261928D01*
X153800518Y-121274188D01*
X153680820Y-121310498D01*
X153570506Y-121369463D01*
X153473815Y-121448815D01*
X153394463Y-121545506D01*
X153335498Y-121655820D01*
X153299188Y-121775518D01*
X153286928Y-121900000D01*
X149041547Y-121900000D01*
X149059000Y-121812260D01*
X149059000Y-121519740D01*
X149001932Y-121232842D01*
X148889990Y-120962589D01*
X148727475Y-120719368D01*
X148520632Y-120512525D01*
X148346240Y-120396000D01*
X148520632Y-120279475D01*
X148727475Y-120072632D01*
X148889990Y-119829411D01*
X149001932Y-119559158D01*
X149059000Y-119272260D01*
X149059000Y-118979740D01*
X149001932Y-118692842D01*
X148889990Y-118422589D01*
X148727475Y-118179368D01*
X148520632Y-117972525D01*
X148277411Y-117810010D01*
X148190738Y-117774109D01*
X150529848Y-115435000D01*
X152914991Y-115435000D01*
X152914990Y-117353227D01*
%TA.AperFunction,Conductor*%
D23*
G36*
X152914990Y-117353227D02*
G01*
X152910950Y-117394246D01*
X152921268Y-117499003D01*
X152927072Y-117557934D01*
X152974818Y-117715332D01*
X153052354Y-117860391D01*
X153156699Y-117987537D01*
X153188569Y-118013692D01*
X153936302Y-118761426D01*
X153962453Y-118793291D01*
X154089598Y-118897636D01*
X154221015Y-118967880D01*
X156515062Y-121261928D01*
X156474999Y-121261928D01*
X156301745Y-121278992D01*
X156135149Y-121329528D01*
X155981613Y-121411595D01*
X155847038Y-121522038D01*
X155736595Y-121656613D01*
X155654528Y-121810149D01*
X155612599Y-121948371D01*
X155613072Y-121900000D01*
X155600812Y-121775518D01*
X155564502Y-121655820D01*
X155505537Y-121545506D01*
X155426185Y-121448815D01*
X155329494Y-121369463D01*
X155219180Y-121310498D01*
X155099482Y-121274188D01*
X154975000Y-121261928D01*
X154735750Y-121265000D01*
X154577000Y-121423750D01*
X154577000Y-122373000D01*
X154597000Y-122373000D01*
X154597000Y-122627000D01*
X154577000Y-122627000D01*
X154577000Y-122647000D01*
X154323000Y-122647000D01*
X154323000Y-122627000D01*
X153448750Y-122627000D01*
X153290000Y-122785750D01*
X153286928Y-123100000D01*
X153297778Y-123210162D01*
X153151000Y-123209428D01*
X153026518Y-123221688D01*
X152906820Y-123257998D01*
X152796506Y-123316963D01*
X152699815Y-123396315D01*
X152620463Y-123493006D01*
X152561498Y-123603320D01*
X152525188Y-123723018D01*
X152512928Y-123847500D01*
X152516000Y-124224250D01*
X152674750Y-124383000D01*
X153924000Y-124383000D01*
X153924000Y-124363000D01*
X154178000Y-124363000D01*
X154178000Y-124383000D01*
X155427250Y-124383000D01*
X155586000Y-124224250D01*
X155589072Y-123847500D01*
X155576812Y-123723018D01*
X155540502Y-123603320D01*
X155481537Y-123493006D01*
X155477734Y-123488372D01*
X155505537Y-123454494D01*
X155564502Y-123344180D01*
X155600812Y-123224482D01*
X155613072Y-123100000D01*
X155612599Y-123051629D01*
X155654528Y-123189851D01*
X155736595Y-123343387D01*
X155847038Y-123477962D01*
X155981613Y-123588405D01*
X156085000Y-123643667D01*
X156085000Y-123810677D01*
X156081324Y-123848000D01*
X156085000Y-123885322D01*
X156085000Y-123885332D01*
X156095997Y-123996985D01*
X156130274Y-124109983D01*
X156139454Y-124140246D01*
X156210026Y-124272276D01*
X156249871Y-124320826D01*
X156304999Y-124388001D01*
X156334002Y-124411803D01*
X156481928Y-124559729D01*
X156481928Y-124978000D01*
X156494188Y-125102482D01*
X156501929Y-125128000D01*
X156494188Y-125153518D01*
X156481928Y-125278000D01*
X156485000Y-125317250D01*
X156643750Y-125476000D01*
X156725859Y-125476000D01*
X156765506Y-125508537D01*
X156875820Y-125567502D01*
X156992841Y-125603000D01*
X156875820Y-125638498D01*
X156765506Y-125697463D01*
X156725859Y-125730000D01*
X156643750Y-125730000D01*
X156485000Y-125888750D01*
X156481928Y-125928000D01*
X156494188Y-126052482D01*
X156501929Y-126078000D01*
X156494188Y-126103518D01*
X156481928Y-126228000D01*
X156481928Y-126646271D01*
X156253199Y-126875000D01*
X155517384Y-126875000D01*
X155439405Y-126729112D01*
X155328963Y-126594537D01*
X155194388Y-126484095D01*
X155040852Y-126402028D01*
X154874257Y-126351492D01*
X154701003Y-126334428D01*
X153825229Y-126334428D01*
X153725803Y-126235002D01*
X153702001Y-126205999D01*
X153586276Y-126111026D01*
X153454247Y-126040454D01*
X153310986Y-125996997D01*
X153199333Y-125986000D01*
X153199322Y-125986000D01*
X153162000Y-125982324D01*
X153124678Y-125986000D01*
X148852178Y-125986000D01*
X148727475Y-125799368D01*
X148520632Y-125592525D01*
X148346240Y-125476000D01*
X148520632Y-125359475D01*
X148707607Y-125172500D01*
X152512928Y-125172500D01*
X152525188Y-125296982D01*
X152561498Y-125416680D01*
X152620463Y-125526994D01*
X152699815Y-125623685D01*
X152796506Y-125703037D01*
X152906820Y-125762002D01*
X153026518Y-125798312D01*
X153151000Y-125810572D01*
X153765250Y-125807500D01*
X153924000Y-125648750D01*
X153924000Y-124637000D01*
X154178000Y-124637000D01*
X154178000Y-125648750D01*
X154336750Y-125807500D01*
X154951000Y-125810572D01*
X155075482Y-125798312D01*
X155195180Y-125762002D01*
X155305494Y-125703037D01*
X155402185Y-125623685D01*
X155481537Y-125526994D01*
X155540502Y-125416680D01*
X155576812Y-125296982D01*
X155589072Y-125172500D01*
X155586000Y-124795750D01*
X155427250Y-124637000D01*
X154178000Y-124637000D01*
X153924000Y-124637000D01*
X152674750Y-124637000D01*
X152516000Y-124795750D01*
X152512928Y-125172500D01*
X148707607Y-125172500D01*
X148727475Y-125152632D01*
X148889990Y-124909411D01*
X149001932Y-124639158D01*
X149059000Y-124352260D01*
X149059000Y-124059740D01*
X149001932Y-123772842D01*
X148889990Y-123502589D01*
X148727475Y-123259368D01*
X148520632Y-123052525D01*
X148346240Y-122936000D01*
X148520632Y-122819475D01*
X148727475Y-122612632D01*
X148889990Y-122369411D01*
X149001932Y-122099158D01*
X149041547Y-121900000D01*
X153286928Y-121900000D01*
X153290000Y-122214250D01*
X153448750Y-122373000D01*
X154323000Y-122373000D01*
X154323000Y-121423750D01*
X154164250Y-121265000D01*
X153925000Y-121261928D01*
X153800518Y-121274188D01*
X153680820Y-121310498D01*
X153570506Y-121369463D01*
X153473815Y-121448815D01*
X153394463Y-121545506D01*
X153335498Y-121655820D01*
X153299188Y-121775518D01*
X153286928Y-121900000D01*
X149041547Y-121900000D01*
X149059000Y-121812260D01*
X149059000Y-121519740D01*
X149001932Y-121232842D01*
X148889990Y-120962589D01*
X148727475Y-120719368D01*
X148520632Y-120512525D01*
X148346240Y-120396000D01*
X148520632Y-120279475D01*
X148727475Y-120072632D01*
X148889990Y-119829411D01*
X149001932Y-119559158D01*
X149059000Y-119272260D01*
X149059000Y-118979740D01*
X149001932Y-118692842D01*
X148889990Y-118422589D01*
X148727475Y-118179368D01*
X148520632Y-117972525D01*
X148277411Y-117810010D01*
X148190738Y-117774109D01*
X150529848Y-115435000D01*
X152914991Y-115435000D01*
X152914990Y-117353227D01*
G37*
%TD.AperFunction*%
D22*
X159090000Y-120564803D02*
X159090000Y-121475130D01*
X155627941Y-118013072D01*
X156100000Y-118013072D01*
X156273254Y-117996008D01*
X156439850Y-117945472D01*
X156459935Y-117934736D01*
X159090000Y-120564803D01*
%TA.AperFunction,Conductor*%
D23*
G36*
X159090000Y-120564803D02*
G01*
X159090000Y-121475130D01*
X155627941Y-118013072D01*
X156100000Y-118013072D01*
X156273254Y-117996008D01*
X156439850Y-117945472D01*
X156459935Y-117934736D01*
X159090000Y-120564803D01*
G37*
%TD.AperFunction*%
%TD*%
M02*
