M48
; DRILL file {KiCad (5.1.10-1-10_14)} date Monday, June 28, 2021 at 12:16:08 PM
; FORMAT={-:-/ absolute / metric / decimal}
; #@! TF.CreationDate,2021-06-28T12:16:08-04:00
; #@! TF.GenerationSoftware,Kicad,Pcbnew,(5.1.10-1-10_14)
FMAT,2
METRIC
T1C0.400
T2C0.600
T3C0.800
T4C1.000
T5C1.500
%
G90
G05
T1
X120.396Y-107.95
X120.396Y-110.49
X120.396Y-113.03
X120.396Y-115.57
X120.396Y-118.11
X120.396Y-120.65
X120.396Y-123.19
X120.396Y-125.73
X120.396Y-128.27
X120.396Y-130.81
X120.396Y-133.35
X122.936Y-109.22
X122.936Y-111.76
X122.936Y-114.3
X122.936Y-116.84
X122.936Y-119.38
X122.936Y-121.92
X122.936Y-124.46
X122.936Y-127.0
X122.936Y-129.54
X122.936Y-132.08
X125.476Y-107.95
X125.476Y-110.49
X125.476Y-113.03
X125.476Y-115.57
X125.476Y-118.11
X125.476Y-120.65
X125.476Y-123.19
X125.476Y-125.73
X125.476Y-128.27
X125.476Y-130.81
X125.476Y-133.35
X128.0Y-111.75
X128.0Y-114.25
X128.016Y-109.22
X130.5Y-111.75
X130.5Y-116.0
X130.556Y-107.95
X133.0Y-114.25
X133.096Y-109.22
X133.35Y-129.984
X133.35Y-132.524
X133.4Y-127.5
X135.636Y-107.95
X135.75Y-111.75
X135.89Y-116.014
X135.89Y-128.714
X135.89Y-131.255
X135.9Y-126.0
X138.176Y-109.22
X138.25Y-114.25
X138.4Y-124.3
X138.4Y-127.5
X138.43Y-129.984
X138.43Y-132.524
X140.716Y-107.95
X140.75Y-111.75
X140.9Y-126.1
X140.97Y-116.014
X140.97Y-128.714
X140.97Y-131.255
X143.25Y-114.25
X143.256Y-109.22
X143.5Y-124.3
X143.5Y-127.4
X143.51Y-129.984
X143.51Y-132.524
X145.288Y-125.984
X145.288Y-128.778
X145.288Y-131.318
X145.75Y-111.75
X145.75Y-116.0
X145.796Y-107.95
X148.25Y-114.25
X148.336Y-109.22
X150.75Y-111.75
X150.876Y-107.95
X150.876Y-120.65
X150.876Y-123.19
X150.876Y-125.73
X150.876Y-128.27
X150.876Y-130.81
X150.876Y-133.35
X150.876Y-134.874
X150.876Y-137.16
X150.876Y-139.7
X150.876Y-142.24
X150.876Y-144.526
X150.9Y-116.0
X150.9Y-118.2
X153.416Y-109.22
X153.416Y-129.54
X153.416Y-131.572
X153.416Y-144.526
X153.5Y-119.5
X155.9Y-111.7
X155.956Y-107.95
X155.956Y-131.572
X155.956Y-144.526
X156.0Y-118.25
X156.0Y-120.75
X156.083Y-125.603
X158.3Y-114.1
X158.496Y-109.22
X158.496Y-134.874
X158.496Y-137.16
X158.496Y-139.7
X158.496Y-142.24
X158.496Y-144.526
X159.004Y-132.969
X161.036Y-107.95
X161.036Y-110.49
X161.036Y-135.89
X161.036Y-138.43
X161.036Y-140.97
X161.036Y-143.51
X161.1Y-115.5
X161.417Y-132.905
X163.512Y-130.429
X163.576Y-109.22
X163.576Y-111.76
X163.576Y-114.25
X163.576Y-116.75
X163.576Y-132.08
X163.576Y-134.62
X163.576Y-137.16
X163.576Y-139.7
X163.576Y-142.24
X166.116Y-107.95
X166.116Y-110.49
X166.116Y-113.03
X166.116Y-115.57
X166.116Y-118.11
X166.116Y-120.65
X166.116Y-123.19
X166.116Y-125.73
X166.116Y-128.27
X166.116Y-130.81
X166.116Y-133.35
X166.116Y-135.89
X166.116Y-138.43
X166.116Y-140.97
X166.116Y-143.51
X168.656Y-109.22
X168.656Y-111.76
X168.656Y-114.3
X168.656Y-116.84
X168.656Y-119.38
X168.656Y-121.92
X168.656Y-124.46
X168.656Y-127.0
X168.656Y-129.54
X168.656Y-132.08
X168.656Y-134.62
X168.656Y-137.16
X168.656Y-139.7
X168.656Y-142.24
T2
X153.035Y-136.398
X156.635Y-136.398
T3
X139.63Y-136.0
X147.25Y-136.0
T4
X129.794Y-119.126
X129.794Y-121.666
X129.794Y-124.206
X129.794Y-126.746
X129.794Y-129.286
X129.794Y-131.826
X147.574Y-119.126
X147.574Y-121.666
X147.574Y-124.206
X147.574Y-126.746
X147.574Y-129.286
X147.574Y-131.826
X147.574Y-140.716
X147.574Y-143.256
T5
X153.035Y-142.398
X156.635Y-142.398
T0
M30
