%TF.GenerationSoftware,KiCad,Pcbnew,(5.1.10-1-10_14)*%
%TF.CreationDate,2021-06-28T12:16:04-04:00*%
%TF.ProjectId,fox_hunt_2m_fm,666f785f-6875-46e7-945f-326d5f666d2e,rev?*%
%TF.SameCoordinates,Original*%
%TF.FileFunction,Legend,Top*%
%TF.FilePolarity,Positive*%
%FSLAX46Y46*%
G04 Gerber Fmt 4.6, Leading zero omitted, Abs format (unit mm)*
G04 Created by KiCad (PCBNEW (5.1.10-1-10_14)) date 2021-06-28 12:16:04*
%MOMM*%
%LPD*%
G01*
G04 APERTURE LIST*
%ADD10C,0.300000*%
%ADD11C,0.120000*%
%ADD12C,0.150000*%
G04 APERTURE END LIST*
D10*
X160071428Y-109296428D02*
X160142857Y-109225000D01*
X160285714Y-109153571D01*
X160642857Y-109153571D01*
X160785714Y-109225000D01*
X160857142Y-109296428D01*
X160928571Y-109439285D01*
X160928571Y-109582142D01*
X160857142Y-109796428D01*
X160000000Y-110653571D01*
X160928571Y-110653571D01*
X161571428Y-110653571D02*
X161571428Y-109653571D01*
X161571428Y-109796428D02*
X161642857Y-109725000D01*
X161785714Y-109653571D01*
X162000000Y-109653571D01*
X162142857Y-109725000D01*
X162214285Y-109867857D01*
X162214285Y-110653571D01*
X162214285Y-109867857D02*
X162285714Y-109725000D01*
X162428571Y-109653571D01*
X162642857Y-109653571D01*
X162785714Y-109725000D01*
X162857142Y-109867857D01*
X162857142Y-110653571D01*
X165214285Y-109867857D02*
X164714285Y-109867857D01*
X164714285Y-110653571D02*
X164714285Y-109153571D01*
X165428571Y-109153571D01*
X166214285Y-110653571D02*
X166071428Y-110582142D01*
X166000000Y-110510714D01*
X165928571Y-110367857D01*
X165928571Y-109939285D01*
X166000000Y-109796428D01*
X166071428Y-109725000D01*
X166214285Y-109653571D01*
X166428571Y-109653571D01*
X166571428Y-109725000D01*
X166642857Y-109796428D01*
X166714285Y-109939285D01*
X166714285Y-110367857D01*
X166642857Y-110510714D01*
X166571428Y-110582142D01*
X166428571Y-110653571D01*
X166214285Y-110653571D01*
X167214285Y-110653571D02*
X168000000Y-109653571D01*
X167214285Y-109653571D02*
X168000000Y-110653571D01*
X161000000Y-113203571D02*
X161000000Y-112203571D01*
X161000000Y-112489285D02*
X161071428Y-112346428D01*
X161142857Y-112275000D01*
X161285714Y-112203571D01*
X161428571Y-112203571D01*
X162500000Y-113132142D02*
X162357142Y-113203571D01*
X162071428Y-113203571D01*
X161928571Y-113132142D01*
X161857142Y-112989285D01*
X161857142Y-112417857D01*
X161928571Y-112275000D01*
X162071428Y-112203571D01*
X162357142Y-112203571D01*
X162500000Y-112275000D01*
X162571428Y-112417857D01*
X162571428Y-112560714D01*
X161857142Y-112703571D01*
X163071428Y-112203571D02*
X163428571Y-113203571D01*
X163785714Y-112203571D01*
X164357142Y-113060714D02*
X164428571Y-113132142D01*
X164357142Y-113203571D01*
X164285714Y-113132142D01*
X164357142Y-113060714D01*
X164357142Y-113203571D01*
X167071428Y-113060714D02*
X167000000Y-113132142D01*
X166785714Y-113203571D01*
X166642857Y-113203571D01*
X166428571Y-113132142D01*
X166285714Y-112989285D01*
X166214285Y-112846428D01*
X166142857Y-112560714D01*
X166142857Y-112346428D01*
X166214285Y-112060714D01*
X166285714Y-111917857D01*
X166428571Y-111775000D01*
X166642857Y-111703571D01*
X166785714Y-111703571D01*
X167000000Y-111775000D01*
X167071428Y-111846428D01*
D11*
%TO.C,C7*%
X141104160Y-119779284D02*
X141104160Y-118575156D01*
X139284160Y-119779284D02*
X139284160Y-118575156D01*
%TO.C,D1*%
X144960000Y-137120000D02*
X144960000Y-134880000D01*
X144720000Y-137120000D02*
X144720000Y-134880000D01*
X144840000Y-137120000D02*
X144840000Y-134880000D01*
X140670000Y-136000000D02*
X141320000Y-136000000D01*
X146210000Y-136000000D02*
X145560000Y-136000000D01*
X141320000Y-137120000D02*
X145560000Y-137120000D01*
X141320000Y-134880000D02*
X141320000Y-137120000D01*
X145560000Y-134880000D02*
X141320000Y-134880000D01*
X145560000Y-137120000D02*
X145560000Y-134880000D01*
%TO.C,L3*%
X161390000Y-121163748D02*
X161390000Y-121686252D01*
X163610000Y-121163748D02*
X163610000Y-121686252D01*
%TO.C,L2*%
X154140000Y-115413748D02*
X154140000Y-115936252D01*
X156360000Y-115413748D02*
X156360000Y-115936252D01*
%TO.C,U2*%
X158304000Y-134129000D02*
X159704000Y-134129000D01*
X159704000Y-131809000D02*
X157804000Y-131809000D01*
%TO.C,U1*%
X159650000Y-123993000D02*
X157200000Y-123993000D01*
X157850000Y-127213000D02*
X159650000Y-127213000D01*
%TO.C,R3*%
X132090000Y-121722936D02*
X132090000Y-123177064D01*
X133910000Y-121722936D02*
X133910000Y-123177064D01*
%TO.C,L1*%
X155189758Y-123060000D02*
X156010242Y-123060000D01*
X155189758Y-121940000D02*
X156010242Y-121940000D01*
%TO.C,J4*%
X156025000Y-137458000D02*
X156025000Y-141788000D01*
X157245000Y-137458000D02*
X157245000Y-141788000D01*
X152425000Y-137458000D02*
X152425000Y-141788000D01*
X153645000Y-137458000D02*
X153645000Y-141788000D01*
%TO.C,C6*%
X153847748Y-134577500D02*
X155270252Y-134577500D01*
X153847748Y-132757500D02*
X155270252Y-132757500D01*
%TO.C,C5*%
X155788748Y-130610000D02*
X157211252Y-130610000D01*
X155788748Y-128790000D02*
X157211252Y-128790000D01*
%TO.C,C4*%
X144870980Y-119971752D02*
X144870980Y-118549248D01*
X143050980Y-119971752D02*
X143050980Y-118549248D01*
%TO.C,C3*%
X162710000Y-126911252D02*
X162710000Y-125488748D01*
X160890000Y-126911252D02*
X160890000Y-125488748D01*
%TO.C,C2*%
X137489740Y-119887132D02*
X137489740Y-118464628D01*
X135669740Y-119887132D02*
X135669740Y-118464628D01*
%TO.C,C1*%
X153141000Y-125361248D02*
X153141000Y-126783752D01*
X154961000Y-125361248D02*
X154961000Y-126783752D01*
%TO.C,BT1*%
X141906000Y-155639000D02*
X141906000Y-152139000D01*
X131366000Y-157719000D02*
X130736000Y-157719000D01*
X139826000Y-157719000D02*
X137366000Y-157719000D01*
X131366000Y-136159000D02*
X130736000Y-136159000D01*
X139826000Y-136159000D02*
X137366000Y-136159000D01*
X130736000Y-157719000D02*
X126786000Y-156279000D01*
X141906000Y-155639000D02*
X139826000Y-157719000D01*
X141906000Y-141739000D02*
X141906000Y-138239000D01*
X141906000Y-138239000D02*
X139826000Y-136159000D01*
X130736000Y-136159000D02*
X126786000Y-137599000D01*
X126777831Y-156264244D02*
G75*
G02*
X125816000Y-152939000I738169J2015244D01*
G01*
X125799470Y-140935646D02*
G75*
G02*
X126786000Y-137599000I1716530J1306646D01*
G01*
%TO.C,C7*%
D12*
X138731302Y-119343886D02*
X138778921Y-119391505D01*
X138826540Y-119534362D01*
X138826540Y-119629600D01*
X138778921Y-119772458D01*
X138683683Y-119867696D01*
X138588445Y-119915315D01*
X138397969Y-119962934D01*
X138255112Y-119962934D01*
X138064636Y-119915315D01*
X137969398Y-119867696D01*
X137874160Y-119772458D01*
X137826540Y-119629600D01*
X137826540Y-119534362D01*
X137874160Y-119391505D01*
X137921779Y-119343886D01*
X137826540Y-119010553D02*
X137826540Y-118343886D01*
X138826540Y-118772458D01*
%TO.C,D1*%
X142701904Y-138572380D02*
X142701904Y-137572380D01*
X142940000Y-137572380D01*
X143082857Y-137620000D01*
X143178095Y-137715238D01*
X143225714Y-137810476D01*
X143273333Y-138000952D01*
X143273333Y-138143809D01*
X143225714Y-138334285D01*
X143178095Y-138429523D01*
X143082857Y-138524761D01*
X142940000Y-138572380D01*
X142701904Y-138572380D01*
X144225714Y-138572380D02*
X143654285Y-138572380D01*
X143940000Y-138572380D02*
X143940000Y-137572380D01*
X143844761Y-137715238D01*
X143749523Y-137810476D01*
X143654285Y-137858095D01*
X146988095Y-138252380D02*
X146988095Y-137252380D01*
X147559523Y-138252380D02*
X147130952Y-137680952D01*
X147559523Y-137252380D02*
X146988095Y-137823809D01*
%TO.C,L3*%
X165002380Y-121591666D02*
X165002380Y-122067857D01*
X164002380Y-122067857D01*
X164002380Y-121353571D02*
X164002380Y-120734523D01*
X164383333Y-121067857D01*
X164383333Y-120925000D01*
X164430952Y-120829761D01*
X164478571Y-120782142D01*
X164573809Y-120734523D01*
X164811904Y-120734523D01*
X164907142Y-120782142D01*
X164954761Y-120829761D01*
X165002380Y-120925000D01*
X165002380Y-121210714D01*
X164954761Y-121305952D01*
X164907142Y-121353571D01*
%TO.C,L2*%
X157752380Y-115841666D02*
X157752380Y-116317857D01*
X156752380Y-116317857D01*
X156847619Y-115555952D02*
X156800000Y-115508333D01*
X156752380Y-115413095D01*
X156752380Y-115175000D01*
X156800000Y-115079761D01*
X156847619Y-115032142D01*
X156942857Y-114984523D01*
X157038095Y-114984523D01*
X157180952Y-115032142D01*
X157752380Y-115603571D01*
X157752380Y-114984523D01*
%TO.C,U2*%
X161313880Y-134937404D02*
X162123404Y-134937404D01*
X162218642Y-134889785D01*
X162266261Y-134842166D01*
X162313880Y-134746928D01*
X162313880Y-134556452D01*
X162266261Y-134461214D01*
X162218642Y-134413595D01*
X162123404Y-134365976D01*
X161313880Y-134365976D01*
X161409119Y-133937404D02*
X161361500Y-133889785D01*
X161313880Y-133794547D01*
X161313880Y-133556452D01*
X161361500Y-133461214D01*
X161409119Y-133413595D01*
X161504357Y-133365976D01*
X161599595Y-133365976D01*
X161742452Y-133413595D01*
X162313880Y-133985023D01*
X162313880Y-133365976D01*
%TO.C,U1*%
X157988095Y-122155380D02*
X157988095Y-122964904D01*
X158035714Y-123060142D01*
X158083333Y-123107761D01*
X158178571Y-123155380D01*
X158369047Y-123155380D01*
X158464285Y-123107761D01*
X158511904Y-123060142D01*
X158559523Y-122964904D01*
X158559523Y-122155380D01*
X159559523Y-123155380D02*
X158988095Y-123155380D01*
X159273809Y-123155380D02*
X159273809Y-122155380D01*
X159178571Y-122298238D01*
X159083333Y-122393476D01*
X158988095Y-122441095D01*
%TO.C,R3*%
X135272380Y-122616666D02*
X134796190Y-122950000D01*
X135272380Y-123188095D02*
X134272380Y-123188095D01*
X134272380Y-122807142D01*
X134320000Y-122711904D01*
X134367619Y-122664285D01*
X134462857Y-122616666D01*
X134605714Y-122616666D01*
X134700952Y-122664285D01*
X134748571Y-122711904D01*
X134796190Y-122807142D01*
X134796190Y-123188095D01*
X134272380Y-122283333D02*
X134272380Y-121664285D01*
X134653333Y-121997619D01*
X134653333Y-121854761D01*
X134700952Y-121759523D01*
X134748571Y-121711904D01*
X134843809Y-121664285D01*
X135081904Y-121664285D01*
X135177142Y-121711904D01*
X135224761Y-121759523D01*
X135272380Y-121854761D01*
X135272380Y-122140476D01*
X135224761Y-122235714D01*
X135177142Y-122283333D01*
%TO.C,L1*%
X154333333Y-121202380D02*
X153857142Y-121202380D01*
X153857142Y-120202380D01*
X155190476Y-121202380D02*
X154619047Y-121202380D01*
X154904761Y-121202380D02*
X154904761Y-120202380D01*
X154809523Y-120345238D01*
X154714285Y-120440476D01*
X154619047Y-120488095D01*
%TO.C,J4*%
X154328880Y-139238833D02*
X155043166Y-139238833D01*
X155186023Y-139286452D01*
X155281261Y-139381690D01*
X155328880Y-139524547D01*
X155328880Y-139619785D01*
X154662214Y-138334071D02*
X155328880Y-138334071D01*
X154281261Y-138572166D02*
X154995547Y-138810261D01*
X154995547Y-138191214D01*
%TO.C,C6*%
X154583333Y-132107142D02*
X154535714Y-132154761D01*
X154392857Y-132202380D01*
X154297619Y-132202380D01*
X154154761Y-132154761D01*
X154059523Y-132059523D01*
X154011904Y-131964285D01*
X153964285Y-131773809D01*
X153964285Y-131630952D01*
X154011904Y-131440476D01*
X154059523Y-131345238D01*
X154154761Y-131250000D01*
X154297619Y-131202380D01*
X154392857Y-131202380D01*
X154535714Y-131250000D01*
X154583333Y-131297619D01*
X155440476Y-131202380D02*
X155250000Y-131202380D01*
X155154761Y-131250000D01*
X155107142Y-131297619D01*
X155011904Y-131440476D01*
X154964285Y-131630952D01*
X154964285Y-132011904D01*
X155011904Y-132107142D01*
X155059523Y-132154761D01*
X155154761Y-132202380D01*
X155345238Y-132202380D01*
X155440476Y-132154761D01*
X155488095Y-132107142D01*
X155535714Y-132011904D01*
X155535714Y-131773809D01*
X155488095Y-131678571D01*
X155440476Y-131630952D01*
X155345238Y-131583333D01*
X155154761Y-131583333D01*
X155059523Y-131630952D01*
X155011904Y-131678571D01*
X154964285Y-131773809D01*
%TO.C,C5*%
X159933333Y-131257142D02*
X159885714Y-131304761D01*
X159742857Y-131352380D01*
X159647619Y-131352380D01*
X159504761Y-131304761D01*
X159409523Y-131209523D01*
X159361904Y-131114285D01*
X159314285Y-130923809D01*
X159314285Y-130780952D01*
X159361904Y-130590476D01*
X159409523Y-130495238D01*
X159504761Y-130400000D01*
X159647619Y-130352380D01*
X159742857Y-130352380D01*
X159885714Y-130400000D01*
X159933333Y-130447619D01*
X160838095Y-130352380D02*
X160361904Y-130352380D01*
X160314285Y-130828571D01*
X160361904Y-130780952D01*
X160457142Y-130733333D01*
X160695238Y-130733333D01*
X160790476Y-130780952D01*
X160838095Y-130828571D01*
X160885714Y-130923809D01*
X160885714Y-131161904D01*
X160838095Y-131257142D01*
X160790476Y-131304761D01*
X160695238Y-131352380D01*
X160457142Y-131352380D01*
X160361904Y-131304761D01*
X160314285Y-131257142D01*
%TO.C,C4*%
X142468122Y-119427166D02*
X142515741Y-119474785D01*
X142563360Y-119617642D01*
X142563360Y-119712880D01*
X142515741Y-119855738D01*
X142420503Y-119950976D01*
X142325265Y-119998595D01*
X142134789Y-120046214D01*
X141991932Y-120046214D01*
X141801456Y-119998595D01*
X141706218Y-119950976D01*
X141610980Y-119855738D01*
X141563360Y-119712880D01*
X141563360Y-119617642D01*
X141610980Y-119474785D01*
X141658599Y-119427166D01*
X141896694Y-118570023D02*
X142563360Y-118570023D01*
X141515741Y-118808119D02*
X142230027Y-119046214D01*
X142230027Y-118427166D01*
%TO.C,C3*%
X163833333Y-126757142D02*
X163785714Y-126804761D01*
X163642857Y-126852380D01*
X163547619Y-126852380D01*
X163404761Y-126804761D01*
X163309523Y-126709523D01*
X163261904Y-126614285D01*
X163214285Y-126423809D01*
X163214285Y-126280952D01*
X163261904Y-126090476D01*
X163309523Y-125995238D01*
X163404761Y-125900000D01*
X163547619Y-125852380D01*
X163642857Y-125852380D01*
X163785714Y-125900000D01*
X163833333Y-125947619D01*
X164166666Y-125852380D02*
X164785714Y-125852380D01*
X164452380Y-126233333D01*
X164595238Y-126233333D01*
X164690476Y-126280952D01*
X164738095Y-126328571D01*
X164785714Y-126423809D01*
X164785714Y-126661904D01*
X164738095Y-126757142D01*
X164690476Y-126804761D01*
X164595238Y-126852380D01*
X164309523Y-126852380D01*
X164214285Y-126804761D01*
X164166666Y-126757142D01*
%TO.C,C2*%
X135086882Y-119342546D02*
X135134501Y-119390165D01*
X135182120Y-119533022D01*
X135182120Y-119628260D01*
X135134501Y-119771118D01*
X135039263Y-119866356D01*
X134944025Y-119913975D01*
X134753549Y-119961594D01*
X134610692Y-119961594D01*
X134420216Y-119913975D01*
X134324978Y-119866356D01*
X134229740Y-119771118D01*
X134182120Y-119628260D01*
X134182120Y-119533022D01*
X134229740Y-119390165D01*
X134277359Y-119342546D01*
X134277359Y-118961594D02*
X134229740Y-118913975D01*
X134182120Y-118818737D01*
X134182120Y-118580641D01*
X134229740Y-118485403D01*
X134277359Y-118437784D01*
X134372597Y-118390165D01*
X134467835Y-118390165D01*
X134610692Y-118437784D01*
X135182120Y-119009213D01*
X135182120Y-118390165D01*
%TO.C,C1*%
X156258142Y-126239166D02*
X156305761Y-126286785D01*
X156353380Y-126429642D01*
X156353380Y-126524880D01*
X156305761Y-126667738D01*
X156210523Y-126762976D01*
X156115285Y-126810595D01*
X155924809Y-126858214D01*
X155781952Y-126858214D01*
X155591476Y-126810595D01*
X155496238Y-126762976D01*
X155401000Y-126667738D01*
X155353380Y-126524880D01*
X155353380Y-126429642D01*
X155401000Y-126286785D01*
X155448619Y-126239166D01*
X156353380Y-125286785D02*
X156353380Y-125858214D01*
X156353380Y-125572500D02*
X155353380Y-125572500D01*
X155496238Y-125667738D01*
X155591476Y-125762976D01*
X155639095Y-125858214D01*
%TO.C,BT1*%
X122674071Y-147788214D02*
X122721690Y-147645357D01*
X122769309Y-147597738D01*
X122864547Y-147550119D01*
X123007404Y-147550119D01*
X123102642Y-147597738D01*
X123150261Y-147645357D01*
X123197880Y-147740595D01*
X123197880Y-148121547D01*
X122197880Y-148121547D01*
X122197880Y-147788214D01*
X122245500Y-147692976D01*
X122293119Y-147645357D01*
X122388357Y-147597738D01*
X122483595Y-147597738D01*
X122578833Y-147645357D01*
X122626452Y-147692976D01*
X122674071Y-147788214D01*
X122674071Y-148121547D01*
X122197880Y-147264404D02*
X122197880Y-146692976D01*
X123197880Y-146978690D02*
X122197880Y-146978690D01*
X123197880Y-145835833D02*
X123197880Y-146407261D01*
X123197880Y-146121547D02*
X122197880Y-146121547D01*
X122340738Y-146216785D01*
X122435976Y-146312023D01*
X122483595Y-146407261D01*
%TD*%
M02*
