%TF.GenerationSoftware,KiCad,Pcbnew,(5.1.9)-1*%
%TF.CreationDate,2021-05-19T15:00:27-04:00*%
%TF.ProjectId,fox_hunt_2m_fm,666f785f-6875-46e7-945f-326d5f666d2e,rev?*%
%TF.SameCoordinates,Original*%
%TF.FileFunction,Soldermask,Top*%
%TF.FilePolarity,Negative*%
%FSLAX46Y46*%
G04 Gerber Fmt 4.6, Leading zero omitted, Abs format (unit mm)*
G04 Created by KiCad (PCBNEW (5.1.9)-1) date 2021-05-19 15:00:27*
%MOMM*%
%LPD*%
G01*
G04 APERTURE LIST*
%ADD10R,0.650000X0.400000*%
%ADD11R,1.060000X0.650000*%
%ADD12R,0.900000X0.800000*%
%ADD13C,1.500000*%
%ADD14C,1.600000*%
%ADD15O,1.700000X1.700000*%
%ADD16R,1.700000X1.700000*%
G04 APERTURE END LIST*
D10*
%TO.C,U2*%
X159954000Y-132319000D03*
X159954000Y-133619000D03*
X158054000Y-132969000D03*
X159954000Y-132969000D03*
X158054000Y-133619000D03*
X158054000Y-132319000D03*
%TD*%
D11*
%TO.C,U1*%
X159850000Y-125603000D03*
X159850000Y-124653000D03*
X159850000Y-126553000D03*
X157650000Y-126553000D03*
X157650000Y-125603000D03*
X157650000Y-124653000D03*
%TD*%
%TO.C,R4*%
G36*
G01*
X148199000Y-112612000D02*
X146949000Y-112612000D01*
G75*
G02*
X146699000Y-112362000I0J250000D01*
G01*
X146699000Y-111562000D01*
G75*
G02*
X146949000Y-111312000I250000J0D01*
G01*
X148199000Y-111312000D01*
G75*
G02*
X148449000Y-111562000I0J-250000D01*
G01*
X148449000Y-112362000D01*
G75*
G02*
X148199000Y-112612000I-250000J0D01*
G01*
G37*
G36*
G01*
X148199000Y-115712000D02*
X146949000Y-115712000D01*
G75*
G02*
X146699000Y-115462000I0J250000D01*
G01*
X146699000Y-114662000D01*
G75*
G02*
X146949000Y-114412000I250000J0D01*
G01*
X148199000Y-114412000D01*
G75*
G02*
X148449000Y-114662000I0J-250000D01*
G01*
X148449000Y-115462000D01*
G75*
G02*
X148199000Y-115712000I-250000J0D01*
G01*
G37*
%TD*%
%TO.C,R3*%
G36*
G01*
X129042000Y-113777000D02*
X130292000Y-113777000D01*
G75*
G02*
X130542000Y-114027000I0J-250000D01*
G01*
X130542000Y-114827000D01*
G75*
G02*
X130292000Y-115077000I-250000J0D01*
G01*
X129042000Y-115077000D01*
G75*
G02*
X128792000Y-114827000I0J250000D01*
G01*
X128792000Y-114027000D01*
G75*
G02*
X129042000Y-113777000I250000J0D01*
G01*
G37*
G36*
G01*
X129042000Y-110677000D02*
X130292000Y-110677000D01*
G75*
G02*
X130542000Y-110927000I0J-250000D01*
G01*
X130542000Y-111727000D01*
G75*
G02*
X130292000Y-111977000I-250000J0D01*
G01*
X129042000Y-111977000D01*
G75*
G02*
X128792000Y-111727000I0J250000D01*
G01*
X128792000Y-110927000D01*
G75*
G02*
X129042000Y-110677000I250000J0D01*
G01*
G37*
%TD*%
%TO.C,R2*%
G36*
G01*
X162570000Y-116317000D02*
X163820000Y-116317000D01*
G75*
G02*
X164070000Y-116567000I0J-250000D01*
G01*
X164070000Y-117367000D01*
G75*
G02*
X163820000Y-117617000I-250000J0D01*
G01*
X162570000Y-117617000D01*
G75*
G02*
X162320000Y-117367000I0J250000D01*
G01*
X162320000Y-116567000D01*
G75*
G02*
X162570000Y-116317000I250000J0D01*
G01*
G37*
G36*
G01*
X162570000Y-113217000D02*
X163820000Y-113217000D01*
G75*
G02*
X164070000Y-113467000I0J-250000D01*
G01*
X164070000Y-114267000D01*
G75*
G02*
X163820000Y-114517000I-250000J0D01*
G01*
X162570000Y-114517000D01*
G75*
G02*
X162320000Y-114267000I0J250000D01*
G01*
X162320000Y-113467000D01*
G75*
G02*
X162570000Y-113217000I250000J0D01*
G01*
G37*
%TD*%
%TO.C,R1*%
G36*
G01*
X158569500Y-116253500D02*
X159819500Y-116253500D01*
G75*
G02*
X160069500Y-116503500I0J-250000D01*
G01*
X160069500Y-117303500D01*
G75*
G02*
X159819500Y-117553500I-250000J0D01*
G01*
X158569500Y-117553500D01*
G75*
G02*
X158319500Y-117303500I0J250000D01*
G01*
X158319500Y-116503500D01*
G75*
G02*
X158569500Y-116253500I250000J0D01*
G01*
G37*
G36*
G01*
X158569500Y-113153500D02*
X159819500Y-113153500D01*
G75*
G02*
X160069500Y-113403500I0J-250000D01*
G01*
X160069500Y-114203500D01*
G75*
G02*
X159819500Y-114453500I-250000J0D01*
G01*
X158569500Y-114453500D01*
G75*
G02*
X158319500Y-114203500I0J250000D01*
G01*
X158319500Y-113403500D01*
G75*
G02*
X158569500Y-113153500I250000J0D01*
G01*
G37*
%TD*%
D12*
%TO.C,Q1*%
X135350000Y-112268000D03*
X133350000Y-113218000D03*
X133350000Y-111318000D03*
%TD*%
%TO.C,L1*%
G36*
G01*
X156320000Y-120111001D02*
X156320000Y-119410999D01*
G75*
G02*
X156569999Y-119161000I249999J0D01*
G01*
X157120001Y-119161000D01*
G75*
G02*
X157370000Y-119410999I0J-249999D01*
G01*
X157370000Y-120111001D01*
G75*
G02*
X157120001Y-120361000I-249999J0D01*
G01*
X156569999Y-120361000D01*
G75*
G02*
X156320000Y-120111001I0J249999D01*
G01*
G37*
G36*
G01*
X154020000Y-120111001D02*
X154020000Y-119410999D01*
G75*
G02*
X154269999Y-119161000I249999J0D01*
G01*
X154820001Y-119161000D01*
G75*
G02*
X155070000Y-119410999I0J-249999D01*
G01*
X155070000Y-120111001D01*
G75*
G02*
X154820001Y-120361000I-249999J0D01*
G01*
X154269999Y-120361000D01*
G75*
G02*
X154020000Y-120111001I0J249999D01*
G01*
G37*
%TD*%
D13*
%TO.C,J4*%
X156635000Y-142398000D03*
X153035000Y-142398000D03*
D14*
X156635000Y-136398000D03*
G36*
G01*
X152235000Y-136948000D02*
X152235000Y-135848000D01*
G75*
G02*
X152485000Y-135598000I250000J0D01*
G01*
X153585000Y-135598000D01*
G75*
G02*
X153835000Y-135848000I0J-250000D01*
G01*
X153835000Y-136948000D01*
G75*
G02*
X153585000Y-137198000I-250000J0D01*
G01*
X152485000Y-137198000D01*
G75*
G02*
X152235000Y-136948000I0J250000D01*
G01*
G37*
%TD*%
D15*
%TO.C,J3*%
X147574000Y-140716000D03*
D16*
X147574000Y-143256000D03*
%TD*%
D15*
%TO.C,J2*%
X129794000Y-119126000D03*
X129794000Y-121666000D03*
X129794000Y-124206000D03*
X129794000Y-126746000D03*
X129794000Y-129286000D03*
D16*
X129794000Y-131826000D03*
%TD*%
D15*
%TO.C,J1*%
X147574000Y-119126000D03*
X147574000Y-121666000D03*
X147574000Y-124206000D03*
X147574000Y-126746000D03*
X147574000Y-129286000D03*
D16*
X147574000Y-131826000D03*
%TD*%
%TO.C,C6*%
G36*
G01*
X155459000Y-134317501D02*
X155459000Y-133017499D01*
G75*
G02*
X155708999Y-132767500I249999J0D01*
G01*
X156534001Y-132767500D01*
G75*
G02*
X156784000Y-133017499I0J-249999D01*
G01*
X156784000Y-134317501D01*
G75*
G02*
X156534001Y-134567500I-249999J0D01*
G01*
X155708999Y-134567500D01*
G75*
G02*
X155459000Y-134317501I0J249999D01*
G01*
G37*
G36*
G01*
X152334000Y-134317501D02*
X152334000Y-133017499D01*
G75*
G02*
X152583999Y-132767500I249999J0D01*
G01*
X153409001Y-132767500D01*
G75*
G02*
X153659000Y-133017499I0J-249999D01*
G01*
X153659000Y-134317501D01*
G75*
G02*
X153409001Y-134567500I-249999J0D01*
G01*
X152583999Y-134567500D01*
G75*
G02*
X152334000Y-134317501I0J249999D01*
G01*
G37*
%TD*%
%TO.C,C5*%
G36*
G01*
X164099001Y-126265500D02*
X162798999Y-126265500D01*
G75*
G02*
X162549000Y-126015501I0J249999D01*
G01*
X162549000Y-125190499D01*
G75*
G02*
X162798999Y-124940500I249999J0D01*
G01*
X164099001Y-124940500D01*
G75*
G02*
X164349000Y-125190499I0J-249999D01*
G01*
X164349000Y-126015501D01*
G75*
G02*
X164099001Y-126265500I-249999J0D01*
G01*
G37*
G36*
G01*
X164099001Y-129390500D02*
X162798999Y-129390500D01*
G75*
G02*
X162549000Y-129140501I0J249999D01*
G01*
X162549000Y-128315499D01*
G75*
G02*
X162798999Y-128065500I249999J0D01*
G01*
X164099001Y-128065500D01*
G75*
G02*
X164349000Y-128315499I0J-249999D01*
G01*
X164349000Y-129140501D01*
G75*
G02*
X164099001Y-129390500I-249999J0D01*
G01*
G37*
%TD*%
%TO.C,C4*%
G36*
G01*
X140573999Y-126160500D02*
X141874001Y-126160500D01*
G75*
G02*
X142124000Y-126410499I0J-249999D01*
G01*
X142124000Y-127235501D01*
G75*
G02*
X141874001Y-127485500I-249999J0D01*
G01*
X140573999Y-127485500D01*
G75*
G02*
X140324000Y-127235501I0J249999D01*
G01*
X140324000Y-126410499D01*
G75*
G02*
X140573999Y-126160500I249999J0D01*
G01*
G37*
G36*
G01*
X140573999Y-123035500D02*
X141874001Y-123035500D01*
G75*
G02*
X142124000Y-123285499I0J-249999D01*
G01*
X142124000Y-124110501D01*
G75*
G02*
X141874001Y-124360500I-249999J0D01*
G01*
X140573999Y-124360500D01*
G75*
G02*
X140324000Y-124110501I0J249999D01*
G01*
X140324000Y-123285499D01*
G75*
G02*
X140573999Y-123035500I249999J0D01*
G01*
G37*
%TD*%
%TO.C,C3*%
G36*
G01*
X157938500Y-129270999D02*
X157938500Y-130571001D01*
G75*
G02*
X157688501Y-130821000I-249999J0D01*
G01*
X156863499Y-130821000D01*
G75*
G02*
X156613500Y-130571001I0J249999D01*
G01*
X156613500Y-129270999D01*
G75*
G02*
X156863499Y-129021000I249999J0D01*
G01*
X157688501Y-129021000D01*
G75*
G02*
X157938500Y-129270999I0J-249999D01*
G01*
G37*
G36*
G01*
X161063500Y-129270999D02*
X161063500Y-130571001D01*
G75*
G02*
X160813501Y-130821000I-249999J0D01*
G01*
X159988499Y-130821000D01*
G75*
G02*
X159738500Y-130571001I0J249999D01*
G01*
X159738500Y-129270999D01*
G75*
G02*
X159988499Y-129021000I249999J0D01*
G01*
X160813501Y-129021000D01*
G75*
G02*
X161063500Y-129270999I0J-249999D01*
G01*
G37*
%TD*%
%TO.C,C2*%
G36*
G01*
X135747999Y-126083500D02*
X137048001Y-126083500D01*
G75*
G02*
X137298000Y-126333499I0J-249999D01*
G01*
X137298000Y-127158501D01*
G75*
G02*
X137048001Y-127408500I-249999J0D01*
G01*
X135747999Y-127408500D01*
G75*
G02*
X135498000Y-127158501I0J249999D01*
G01*
X135498000Y-126333499D01*
G75*
G02*
X135747999Y-126083500I249999J0D01*
G01*
G37*
G36*
G01*
X135747999Y-122958500D02*
X137048001Y-122958500D01*
G75*
G02*
X137298000Y-123208499I0J-249999D01*
G01*
X137298000Y-124033501D01*
G75*
G02*
X137048001Y-124283500I-249999J0D01*
G01*
X135747999Y-124283500D01*
G75*
G02*
X135498000Y-124033501I0J249999D01*
G01*
X135498000Y-123208499D01*
G75*
G02*
X135747999Y-122958500I249999J0D01*
G01*
G37*
%TD*%
%TO.C,C1*%
G36*
G01*
X153400999Y-126972500D02*
X154701001Y-126972500D01*
G75*
G02*
X154951000Y-127222499I0J-249999D01*
G01*
X154951000Y-128047501D01*
G75*
G02*
X154701001Y-128297500I-249999J0D01*
G01*
X153400999Y-128297500D01*
G75*
G02*
X153151000Y-128047501I0J249999D01*
G01*
X153151000Y-127222499D01*
G75*
G02*
X153400999Y-126972500I249999J0D01*
G01*
G37*
G36*
G01*
X153400999Y-123847500D02*
X154701001Y-123847500D01*
G75*
G02*
X154951000Y-124097499I0J-249999D01*
G01*
X154951000Y-124922501D01*
G75*
G02*
X154701001Y-125172500I-249999J0D01*
G01*
X153400999Y-125172500D01*
G75*
G02*
X153151000Y-124922501I0J249999D01*
G01*
X153151000Y-124097499D01*
G75*
G02*
X153400999Y-123847500I249999J0D01*
G01*
G37*
%TD*%
M02*
