%TF.GenerationSoftware,KiCad,Pcbnew,(5.1.9)-1*%
%TF.CreationDate,2021-05-19T15:00:27-04:00*%
%TF.ProjectId,fox_hunt_2m_fm,666f785f-6875-46e7-945f-326d5f666d2e,rev?*%
%TF.SameCoordinates,Original*%
%TF.FileFunction,Copper,L1,Top*%
%TF.FilePolarity,Positive*%
%FSLAX46Y46*%
G04 Gerber Fmt 4.6, Leading zero omitted, Abs format (unit mm)*
G04 Created by KiCad (PCBNEW (5.1.9)-1) date 2021-05-19 15:00:27*
%MOMM*%
%LPD*%
G01*
G04 APERTURE LIST*
%TA.AperFunction,SMDPad,CuDef*%
%ADD10R,0.650000X0.400000*%
%TD*%
%TA.AperFunction,SMDPad,CuDef*%
%ADD11R,1.060000X0.650000*%
%TD*%
%TA.AperFunction,SMDPad,CuDef*%
%ADD12R,0.900000X0.800000*%
%TD*%
%TA.AperFunction,ComponentPad*%
%ADD13C,1.600000*%
%TD*%
%TA.AperFunction,ComponentPad*%
%ADD14O,1.700000X1.700000*%
%TD*%
%TA.AperFunction,ComponentPad*%
%ADD15R,1.700000X1.700000*%
%TD*%
%TA.AperFunction,ViaPad*%
%ADD16C,0.800000*%
%TD*%
%TA.AperFunction,Conductor*%
%ADD17C,0.250000*%
%TD*%
%TA.AperFunction,Conductor*%
%ADD18C,0.254000*%
%TD*%
%TA.AperFunction,Conductor*%
%ADD19C,0.100000*%
%TD*%
G04 APERTURE END LIST*
D10*
%TO.P,U2,6*%
%TO.N,Net-(C3-Pad1)*%
X159954000Y-132319000D03*
%TO.P,U2,4*%
%TO.N,GND*%
X159954000Y-133619000D03*
%TO.P,U2,2*%
X158054000Y-132969000D03*
%TO.P,U2,5*%
X159954000Y-132969000D03*
%TO.P,U2,3*%
%TO.N,Net-(C6-Pad2)*%
X158054000Y-133619000D03*
%TO.P,U2,1*%
%TO.N,+3V3*%
X158054000Y-132319000D03*
%TD*%
D11*
%TO.P,U1,5*%
%TO.N,+3V3*%
X159850000Y-125603000D03*
%TO.P,U1,6*%
%TO.N,Net-(R1-Pad2)*%
X159850000Y-124653000D03*
%TO.P,U1,4*%
%TO.N,Net-(R2-Pad2)*%
X159850000Y-126553000D03*
%TO.P,U1,3*%
%TO.N,TUNE*%
X157650000Y-126553000D03*
%TO.P,U1,2*%
%TO.N,GND*%
X157650000Y-125603000D03*
%TO.P,U1,1*%
%TO.N,Net-(L1-Pad2)*%
X157650000Y-124653000D03*
%TD*%
%TO.P,R4,2*%
%TO.N,+3V3*%
%TA.AperFunction,SMDPad,CuDef*%
G36*
G01*
X148199000Y-112612000D02*
X146949000Y-112612000D01*
G75*
G02*
X146699000Y-112362000I0J250000D01*
G01*
X146699000Y-111562000D01*
G75*
G02*
X146949000Y-111312000I250000J0D01*
G01*
X148199000Y-111312000D01*
G75*
G02*
X148449000Y-111562000I0J-250000D01*
G01*
X148449000Y-112362000D01*
G75*
G02*
X148199000Y-112612000I-250000J0D01*
G01*
G37*
%TD.AperFunction*%
%TO.P,R4,1*%
%TO.N,VCC*%
%TA.AperFunction,SMDPad,CuDef*%
G36*
G01*
X148199000Y-115712000D02*
X146949000Y-115712000D01*
G75*
G02*
X146699000Y-115462000I0J250000D01*
G01*
X146699000Y-114662000D01*
G75*
G02*
X146949000Y-114412000I250000J0D01*
G01*
X148199000Y-114412000D01*
G75*
G02*
X148449000Y-114662000I0J-250000D01*
G01*
X148449000Y-115462000D01*
G75*
G02*
X148199000Y-115712000I-250000J0D01*
G01*
G37*
%TD.AperFunction*%
%TD*%
%TO.P,R3,2*%
%TO.N,Net-(J2-Pad4)*%
%TA.AperFunction,SMDPad,CuDef*%
G36*
G01*
X129042000Y-113777000D02*
X130292000Y-113777000D01*
G75*
G02*
X130542000Y-114027000I0J-250000D01*
G01*
X130542000Y-114827000D01*
G75*
G02*
X130292000Y-115077000I-250000J0D01*
G01*
X129042000Y-115077000D01*
G75*
G02*
X128792000Y-114827000I0J250000D01*
G01*
X128792000Y-114027000D01*
G75*
G02*
X129042000Y-113777000I250000J0D01*
G01*
G37*
%TD.AperFunction*%
%TO.P,R3,1*%
%TO.N,Net-(Q1-Pad1)*%
%TA.AperFunction,SMDPad,CuDef*%
G36*
G01*
X129042000Y-110677000D02*
X130292000Y-110677000D01*
G75*
G02*
X130542000Y-110927000I0J-250000D01*
G01*
X130542000Y-111727000D01*
G75*
G02*
X130292000Y-111977000I-250000J0D01*
G01*
X129042000Y-111977000D01*
G75*
G02*
X128792000Y-111727000I0J250000D01*
G01*
X128792000Y-110927000D01*
G75*
G02*
X129042000Y-110677000I250000J0D01*
G01*
G37*
%TD.AperFunction*%
%TD*%
%TO.P,R2,2*%
%TO.N,Net-(R2-Pad2)*%
%TA.AperFunction,SMDPad,CuDef*%
G36*
G01*
X162570000Y-116317000D02*
X163820000Y-116317000D01*
G75*
G02*
X164070000Y-116567000I0J-250000D01*
G01*
X164070000Y-117367000D01*
G75*
G02*
X163820000Y-117617000I-250000J0D01*
G01*
X162570000Y-117617000D01*
G75*
G02*
X162320000Y-117367000I0J250000D01*
G01*
X162320000Y-116567000D01*
G75*
G02*
X162570000Y-116317000I250000J0D01*
G01*
G37*
%TD.AperFunction*%
%TO.P,R2,1*%
%TO.N,+3V3*%
%TA.AperFunction,SMDPad,CuDef*%
G36*
G01*
X162570000Y-113217000D02*
X163820000Y-113217000D01*
G75*
G02*
X164070000Y-113467000I0J-250000D01*
G01*
X164070000Y-114267000D01*
G75*
G02*
X163820000Y-114517000I-250000J0D01*
G01*
X162570000Y-114517000D01*
G75*
G02*
X162320000Y-114267000I0J250000D01*
G01*
X162320000Y-113467000D01*
G75*
G02*
X162570000Y-113217000I250000J0D01*
G01*
G37*
%TD.AperFunction*%
%TD*%
%TO.P,R1,2*%
%TO.N,Net-(R1-Pad2)*%
%TA.AperFunction,SMDPad,CuDef*%
G36*
G01*
X158569500Y-116253500D02*
X159819500Y-116253500D01*
G75*
G02*
X160069500Y-116503500I0J-250000D01*
G01*
X160069500Y-117303500D01*
G75*
G02*
X159819500Y-117553500I-250000J0D01*
G01*
X158569500Y-117553500D01*
G75*
G02*
X158319500Y-117303500I0J250000D01*
G01*
X158319500Y-116503500D01*
G75*
G02*
X158569500Y-116253500I250000J0D01*
G01*
G37*
%TD.AperFunction*%
%TO.P,R1,1*%
%TO.N,+3V3*%
%TA.AperFunction,SMDPad,CuDef*%
G36*
G01*
X158569500Y-113153500D02*
X159819500Y-113153500D01*
G75*
G02*
X160069500Y-113403500I0J-250000D01*
G01*
X160069500Y-114203500D01*
G75*
G02*
X159819500Y-114453500I-250000J0D01*
G01*
X158569500Y-114453500D01*
G75*
G02*
X158319500Y-114203500I0J250000D01*
G01*
X158319500Y-113403500D01*
G75*
G02*
X158569500Y-113153500I250000J0D01*
G01*
G37*
%TD.AperFunction*%
%TD*%
D12*
%TO.P,Q1,3*%
%TO.N,+3V3*%
X135350000Y-112268000D03*
%TO.P,Q1,2*%
%TO.N,GND*%
X133350000Y-113218000D03*
%TO.P,Q1,1*%
%TO.N,Net-(Q1-Pad1)*%
X133350000Y-111318000D03*
%TD*%
%TO.P,L1,2*%
%TO.N,Net-(L1-Pad2)*%
%TA.AperFunction,SMDPad,CuDef*%
G36*
G01*
X156320000Y-120111001D02*
X156320000Y-119410999D01*
G75*
G02*
X156569999Y-119161000I249999J0D01*
G01*
X157120001Y-119161000D01*
G75*
G02*
X157370000Y-119410999I0J-249999D01*
G01*
X157370000Y-120111001D01*
G75*
G02*
X157120001Y-120361000I-249999J0D01*
G01*
X156569999Y-120361000D01*
G75*
G02*
X156320000Y-120111001I0J249999D01*
G01*
G37*
%TD.AperFunction*%
%TO.P,L1,1*%
%TO.N,GND*%
%TA.AperFunction,SMDPad,CuDef*%
G36*
G01*
X154020000Y-120111001D02*
X154020000Y-119410999D01*
G75*
G02*
X154269999Y-119161000I249999J0D01*
G01*
X154820001Y-119161000D01*
G75*
G02*
X155070000Y-119410999I0J-249999D01*
G01*
X155070000Y-120111001D01*
G75*
G02*
X154820001Y-120361000I-249999J0D01*
G01*
X154269999Y-120361000D01*
G75*
G02*
X154020000Y-120111001I0J249999D01*
G01*
G37*
%TD.AperFunction*%
%TD*%
D13*
%TO.P,J4,2*%
%TO.N,GND*%
X156635000Y-136398000D03*
%TO.P,J4,1*%
%TO.N,Net-(C6-Pad1)*%
%TA.AperFunction,ComponentPad*%
G36*
G01*
X152235000Y-136948000D02*
X152235000Y-135848000D01*
G75*
G02*
X152485000Y-135598000I250000J0D01*
G01*
X153585000Y-135598000D01*
G75*
G02*
X153835000Y-135848000I0J-250000D01*
G01*
X153835000Y-136948000D01*
G75*
G02*
X153585000Y-137198000I-250000J0D01*
G01*
X152485000Y-137198000D01*
G75*
G02*
X152235000Y-136948000I0J250000D01*
G01*
G37*
%TD.AperFunction*%
%TD*%
D14*
%TO.P,J3,2*%
%TO.N,Net-(BT1-Pad1)*%
X147574000Y-140716000D03*
D15*
%TO.P,J3,1*%
%TO.N,Net-(BT1-Pad2)*%
X147574000Y-143256000D03*
%TD*%
D14*
%TO.P,J2,6*%
%TO.N,Net-(J2-Pad6)*%
X129794000Y-119126000D03*
%TO.P,J2,5*%
%TO.N,Net-(J2-Pad5)*%
X129794000Y-121666000D03*
%TO.P,J2,4*%
%TO.N,Net-(J2-Pad4)*%
X129794000Y-124206000D03*
%TO.P,J2,3*%
%TO.N,GND*%
X129794000Y-126746000D03*
%TO.P,J2,2*%
X129794000Y-129286000D03*
D15*
%TO.P,J2,1*%
X129794000Y-131826000D03*
%TD*%
D14*
%TO.P,J1,6*%
%TO.N,VCC*%
X147574000Y-119126000D03*
%TO.P,J1,5*%
X147574000Y-121666000D03*
%TO.P,J1,4*%
X147574000Y-124206000D03*
%TO.P,J1,3*%
%TO.N,TUNE*%
X147574000Y-126746000D03*
%TO.P,J1,2*%
%TO.N,Net-(J1-Pad2)*%
X147574000Y-129286000D03*
D15*
%TO.P,J1,1*%
%TO.N,Net-(J1-Pad1)*%
X147574000Y-131826000D03*
%TD*%
%TO.P,C6,2*%
%TO.N,Net-(C6-Pad2)*%
%TA.AperFunction,SMDPad,CuDef*%
G36*
G01*
X155459000Y-134317501D02*
X155459000Y-133017499D01*
G75*
G02*
X155708999Y-132767500I249999J0D01*
G01*
X156534001Y-132767500D01*
G75*
G02*
X156784000Y-133017499I0J-249999D01*
G01*
X156784000Y-134317501D01*
G75*
G02*
X156534001Y-134567500I-249999J0D01*
G01*
X155708999Y-134567500D01*
G75*
G02*
X155459000Y-134317501I0J249999D01*
G01*
G37*
%TD.AperFunction*%
%TO.P,C6,1*%
%TO.N,Net-(C6-Pad1)*%
%TA.AperFunction,SMDPad,CuDef*%
G36*
G01*
X152334000Y-134317501D02*
X152334000Y-133017499D01*
G75*
G02*
X152583999Y-132767500I249999J0D01*
G01*
X153409001Y-132767500D01*
G75*
G02*
X153659000Y-133017499I0J-249999D01*
G01*
X153659000Y-134317501D01*
G75*
G02*
X153409001Y-134567500I-249999J0D01*
G01*
X152583999Y-134567500D01*
G75*
G02*
X152334000Y-134317501I0J249999D01*
G01*
G37*
%TD.AperFunction*%
%TD*%
%TO.P,C5,2*%
%TO.N,+3V3*%
%TA.AperFunction,SMDPad,CuDef*%
G36*
G01*
X164099001Y-126265500D02*
X162798999Y-126265500D01*
G75*
G02*
X162549000Y-126015501I0J249999D01*
G01*
X162549000Y-125190499D01*
G75*
G02*
X162798999Y-124940500I249999J0D01*
G01*
X164099001Y-124940500D01*
G75*
G02*
X164349000Y-125190499I0J-249999D01*
G01*
X164349000Y-126015501D01*
G75*
G02*
X164099001Y-126265500I-249999J0D01*
G01*
G37*
%TD.AperFunction*%
%TO.P,C5,1*%
%TO.N,GND*%
%TA.AperFunction,SMDPad,CuDef*%
G36*
G01*
X164099001Y-129390500D02*
X162798999Y-129390500D01*
G75*
G02*
X162549000Y-129140501I0J249999D01*
G01*
X162549000Y-128315499D01*
G75*
G02*
X162798999Y-128065500I249999J0D01*
G01*
X164099001Y-128065500D01*
G75*
G02*
X164349000Y-128315499I0J-249999D01*
G01*
X164349000Y-129140501D01*
G75*
G02*
X164099001Y-129390500I-249999J0D01*
G01*
G37*
%TD.AperFunction*%
%TD*%
%TO.P,C4,2*%
%TO.N,GND*%
%TA.AperFunction,SMDPad,CuDef*%
G36*
G01*
X140573999Y-126160500D02*
X141874001Y-126160500D01*
G75*
G02*
X142124000Y-126410499I0J-249999D01*
G01*
X142124000Y-127235501D01*
G75*
G02*
X141874001Y-127485500I-249999J0D01*
G01*
X140573999Y-127485500D01*
G75*
G02*
X140324000Y-127235501I0J249999D01*
G01*
X140324000Y-126410499D01*
G75*
G02*
X140573999Y-126160500I249999J0D01*
G01*
G37*
%TD.AperFunction*%
%TO.P,C4,1*%
%TO.N,VCC*%
%TA.AperFunction,SMDPad,CuDef*%
G36*
G01*
X140573999Y-123035500D02*
X141874001Y-123035500D01*
G75*
G02*
X142124000Y-123285499I0J-249999D01*
G01*
X142124000Y-124110501D01*
G75*
G02*
X141874001Y-124360500I-249999J0D01*
G01*
X140573999Y-124360500D01*
G75*
G02*
X140324000Y-124110501I0J249999D01*
G01*
X140324000Y-123285499D01*
G75*
G02*
X140573999Y-123035500I249999J0D01*
G01*
G37*
%TD.AperFunction*%
%TD*%
%TO.P,C3,2*%
%TO.N,+3V3*%
%TA.AperFunction,SMDPad,CuDef*%
G36*
G01*
X157938500Y-129270999D02*
X157938500Y-130571001D01*
G75*
G02*
X157688501Y-130821000I-249999J0D01*
G01*
X156863499Y-130821000D01*
G75*
G02*
X156613500Y-130571001I0J249999D01*
G01*
X156613500Y-129270999D01*
G75*
G02*
X156863499Y-129021000I249999J0D01*
G01*
X157688501Y-129021000D01*
G75*
G02*
X157938500Y-129270999I0J-249999D01*
G01*
G37*
%TD.AperFunction*%
%TO.P,C3,1*%
%TO.N,Net-(C3-Pad1)*%
%TA.AperFunction,SMDPad,CuDef*%
G36*
G01*
X161063500Y-129270999D02*
X161063500Y-130571001D01*
G75*
G02*
X160813501Y-130821000I-249999J0D01*
G01*
X159988499Y-130821000D01*
G75*
G02*
X159738500Y-130571001I0J249999D01*
G01*
X159738500Y-129270999D01*
G75*
G02*
X159988499Y-129021000I249999J0D01*
G01*
X160813501Y-129021000D01*
G75*
G02*
X161063500Y-129270999I0J-249999D01*
G01*
G37*
%TD.AperFunction*%
%TD*%
%TO.P,C2,2*%
%TO.N,GND*%
%TA.AperFunction,SMDPad,CuDef*%
G36*
G01*
X135747999Y-126083500D02*
X137048001Y-126083500D01*
G75*
G02*
X137298000Y-126333499I0J-249999D01*
G01*
X137298000Y-127158501D01*
G75*
G02*
X137048001Y-127408500I-249999J0D01*
G01*
X135747999Y-127408500D01*
G75*
G02*
X135498000Y-127158501I0J249999D01*
G01*
X135498000Y-126333499D01*
G75*
G02*
X135747999Y-126083500I249999J0D01*
G01*
G37*
%TD.AperFunction*%
%TO.P,C2,1*%
%TO.N,VCC*%
%TA.AperFunction,SMDPad,CuDef*%
G36*
G01*
X135747999Y-122958500D02*
X137048001Y-122958500D01*
G75*
G02*
X137298000Y-123208499I0J-249999D01*
G01*
X137298000Y-124033501D01*
G75*
G02*
X137048001Y-124283500I-249999J0D01*
G01*
X135747999Y-124283500D01*
G75*
G02*
X135498000Y-124033501I0J249999D01*
G01*
X135498000Y-123208499D01*
G75*
G02*
X135747999Y-122958500I249999J0D01*
G01*
G37*
%TD.AperFunction*%
%TD*%
%TO.P,C1,2*%
%TO.N,TUNE*%
%TA.AperFunction,SMDPad,CuDef*%
G36*
G01*
X153400999Y-126972500D02*
X154701001Y-126972500D01*
G75*
G02*
X154951000Y-127222499I0J-249999D01*
G01*
X154951000Y-128047501D01*
G75*
G02*
X154701001Y-128297500I-249999J0D01*
G01*
X153400999Y-128297500D01*
G75*
G02*
X153151000Y-128047501I0J249999D01*
G01*
X153151000Y-127222499D01*
G75*
G02*
X153400999Y-126972500I249999J0D01*
G01*
G37*
%TD.AperFunction*%
%TO.P,C1,1*%
%TO.N,GND*%
%TA.AperFunction,SMDPad,CuDef*%
G36*
G01*
X153400999Y-123847500D02*
X154701001Y-123847500D01*
G75*
G02*
X154951000Y-124097499I0J-249999D01*
G01*
X154951000Y-124922501D01*
G75*
G02*
X154701001Y-125172500I-249999J0D01*
G01*
X153400999Y-125172500D01*
G75*
G02*
X153151000Y-124922501I0J249999D01*
G01*
X153151000Y-124097499D01*
G75*
G02*
X153400999Y-123847500I249999J0D01*
G01*
G37*
%TD.AperFunction*%
%TD*%
D16*
%TO.N,GND*%
X161417000Y-132905500D03*
X163512500Y-130429000D03*
X156083000Y-125603000D03*
X154559000Y-121920000D03*
X133350000Y-114744500D03*
X138684000Y-126746000D03*
X120396000Y-107950000D03*
X122936000Y-109220000D03*
X125476000Y-107950000D03*
X120396000Y-110490000D03*
X122936000Y-111760000D03*
X125476000Y-110490000D03*
X120396000Y-113030000D03*
X122936000Y-114300000D03*
X125476000Y-113030000D03*
X120396000Y-115570000D03*
X122936000Y-116840000D03*
X125476000Y-115570000D03*
X120396000Y-118110000D03*
X122936000Y-119380000D03*
X125476000Y-118110000D03*
X120396000Y-120650000D03*
X122936000Y-121920000D03*
X125476000Y-120650000D03*
X120396000Y-123190000D03*
X122936000Y-124460000D03*
X125476000Y-123190000D03*
X120396000Y-125730000D03*
X122936000Y-127000000D03*
X125476000Y-125730000D03*
X120396000Y-128270000D03*
X122936000Y-129540000D03*
X125476000Y-128270000D03*
X120396000Y-130810000D03*
X122936000Y-132080000D03*
X125476000Y-130810000D03*
X120396000Y-133350000D03*
X125476000Y-133350000D03*
X135890000Y-116014500D03*
X138430000Y-114744500D03*
X140970000Y-116014500D03*
X143510000Y-114744500D03*
X133350000Y-117284500D03*
X135890000Y-118554500D03*
X138430000Y-117284500D03*
X140970000Y-118554500D03*
X143510000Y-117284500D03*
X133350000Y-119824500D03*
X135890000Y-120142000D03*
X138430000Y-119824500D03*
X140970000Y-120142000D03*
X133350000Y-122364500D03*
X133350000Y-124904500D03*
X133350000Y-127444500D03*
X135890000Y-128714500D03*
X140970000Y-128714500D03*
X143510000Y-127444500D03*
X133350000Y-129984500D03*
X135890000Y-131254500D03*
X138430000Y-129984500D03*
X140970000Y-131254500D03*
X143510000Y-129984500D03*
X133350000Y-132524500D03*
X138430000Y-132524500D03*
X143510000Y-132524500D03*
X143510000Y-127444500D03*
X128016000Y-109220000D03*
X130556000Y-107950000D03*
X133096000Y-109220000D03*
X135636000Y-107950000D03*
X138176000Y-109220000D03*
X140716000Y-107950000D03*
X143256000Y-109220000D03*
X145796000Y-107950000D03*
X148336000Y-109220000D03*
X150876000Y-107950000D03*
X153416000Y-109220000D03*
X155956000Y-107950000D03*
X158496000Y-109220000D03*
X161036000Y-107950000D03*
X163576000Y-109220000D03*
X166116000Y-107950000D03*
X168656000Y-109220000D03*
X166116000Y-110490000D03*
X168656000Y-111760000D03*
X166116000Y-113030000D03*
X168656000Y-114300000D03*
X166116000Y-115570000D03*
X168656000Y-116840000D03*
X166116000Y-118110000D03*
X168656000Y-119380000D03*
X166116000Y-120650000D03*
X168656000Y-121920000D03*
X166116000Y-123190000D03*
X168656000Y-124460000D03*
X166116000Y-125730000D03*
X168656000Y-127000000D03*
X166116000Y-128270000D03*
X168656000Y-129540000D03*
X166116000Y-130810000D03*
X168656000Y-132080000D03*
X166116000Y-133350000D03*
X168656000Y-134620000D03*
X166116000Y-135890000D03*
X168656000Y-137160000D03*
X166116000Y-138430000D03*
X168656000Y-139700000D03*
X166116000Y-140970000D03*
X168656000Y-142240000D03*
X166116000Y-143510000D03*
X161036000Y-110490000D03*
X163576000Y-111760000D03*
X163576000Y-132080000D03*
X163576000Y-134620000D03*
X163576000Y-137160000D03*
X163576000Y-139700000D03*
X163576000Y-142240000D03*
X161036000Y-143510000D03*
X161036000Y-140970000D03*
X161036000Y-138430000D03*
X161036000Y-135890000D03*
X158496000Y-137160000D03*
X158496000Y-139700000D03*
X158496000Y-142240000D03*
X150876000Y-137160000D03*
X150876000Y-139700000D03*
X150876000Y-142240000D03*
X150876000Y-134874000D03*
X150876000Y-133350000D03*
X150876000Y-130810000D03*
X150876000Y-128270000D03*
X153416000Y-129540000D03*
X153416000Y-131572000D03*
X155956000Y-131572000D03*
X150876000Y-113030000D03*
X150876000Y-115570000D03*
X150876000Y-118110000D03*
X150876000Y-120650000D03*
X150876000Y-123190000D03*
X150876000Y-125730000D03*
X153416000Y-114300000D03*
X153416000Y-116840000D03*
X155956000Y-115570000D03*
X158496000Y-134874000D03*
X158496000Y-144526000D03*
X155956000Y-144526000D03*
X153416000Y-144526000D03*
X150876000Y-144526000D03*
X145288000Y-125984000D03*
X145288000Y-128778000D03*
X145288000Y-131318000D03*
%TD*%
D17*
%TO.N,TUNE*%
X156568000Y-127635000D02*
X157650000Y-126553000D01*
X154051000Y-127635000D02*
X156568000Y-127635000D01*
X153162000Y-126746000D02*
X154051000Y-127635000D01*
X147574000Y-126746000D02*
X153162000Y-126746000D01*
%TO.N,GND*%
X159954000Y-133619000D02*
X159954000Y-133544000D01*
X158054000Y-132969000D02*
X159954000Y-132969000D01*
X159954000Y-133619000D02*
X159954000Y-132969000D01*
X161353500Y-132969000D02*
X161417000Y-132905500D01*
X159954000Y-132969000D02*
X161353500Y-132969000D01*
X163449000Y-130365500D02*
X163512500Y-130429000D01*
X163449000Y-128728000D02*
X163449000Y-130365500D01*
X154051000Y-124510000D02*
X155144000Y-125603000D01*
X155892500Y-125603000D02*
X156083000Y-125603000D01*
X155144000Y-125603000D02*
X155892500Y-125603000D01*
X155892500Y-125603000D02*
X157650000Y-125603000D01*
X133350000Y-113218000D02*
X133350000Y-114744500D01*
X141147000Y-126746000D02*
X141224000Y-126823000D01*
X136398000Y-126746000D02*
X138684000Y-126746000D01*
X138684000Y-126746000D02*
X141147000Y-126746000D01*
X154559000Y-121920000D02*
X154559000Y-121348500D01*
X154545000Y-119761000D02*
X154559000Y-121920000D01*
%TO.N,VCC*%
X147574000Y-119126000D02*
X147574000Y-115062000D01*
%TO.N,+3V3*%
X147268000Y-112268000D02*
X147574000Y-111962000D01*
X135350000Y-112268000D02*
X147268000Y-112268000D01*
X158054000Y-130699000D02*
X157276000Y-129921000D01*
X158054000Y-132319000D02*
X158054000Y-130699000D01*
X160705001Y-115314001D02*
X159194500Y-113803500D01*
X160705001Y-125527999D02*
X160705001Y-115314001D01*
X160630000Y-125603000D02*
X160705001Y-125527999D01*
X159850000Y-125603000D02*
X160630000Y-125603000D01*
X163131500Y-113803500D02*
X163195000Y-113867000D01*
X159194500Y-113803500D02*
X163131500Y-113803500D01*
X157353000Y-111962000D02*
X159194500Y-113803500D01*
X147574000Y-111962000D02*
X157353000Y-111962000D01*
X164395010Y-124656990D02*
X164395010Y-115067010D01*
X164395010Y-115067010D02*
X163195000Y-113867000D01*
X163449000Y-125603000D02*
X164395010Y-124656990D01*
X158505001Y-126167999D02*
X159070000Y-125603000D01*
X158505001Y-128691999D02*
X158505001Y-126167999D01*
X159070000Y-125603000D02*
X159850000Y-125603000D01*
X157276000Y-129921000D02*
X158505001Y-128691999D01*
%TO.N,Net-(C3-Pad1)*%
X159954000Y-130368000D02*
X160401000Y-129921000D01*
X159954000Y-132319000D02*
X159954000Y-130368000D01*
%TO.N,Net-(C6-Pad2)*%
X158019000Y-133654000D02*
X158054000Y-133619000D01*
X158005500Y-133667500D02*
X158054000Y-133619000D01*
X156121500Y-133667500D02*
X158005500Y-133667500D01*
%TO.N,Net-(C6-Pad1)*%
X152996500Y-136359500D02*
X153035000Y-136398000D01*
X152996500Y-133667500D02*
X152996500Y-136359500D01*
%TO.N,Net-(J2-Pad4)*%
X129794000Y-124206000D02*
X131953000Y-122047000D01*
X131953000Y-116713000D02*
X129667000Y-114427000D01*
X131953000Y-122047000D02*
X131953000Y-116713000D01*
%TO.N,Net-(L1-Pad2)*%
X156845000Y-123848000D02*
X157650000Y-124653000D01*
X156845000Y-119761000D02*
X156845000Y-123848000D01*
%TO.N,Net-(Q1-Pad1)*%
X133341000Y-111327000D02*
X133350000Y-111318000D01*
X129667000Y-111327000D02*
X133341000Y-111327000D01*
%TO.N,Net-(R1-Pad2)*%
X159194500Y-123997500D02*
X159850000Y-124653000D01*
X159194500Y-116903500D02*
X159194500Y-123997500D01*
%TO.N,Net-(R2-Pad2)*%
X160340002Y-126553000D02*
X159850000Y-126553000D01*
X163195000Y-123698002D02*
X160340002Y-126553000D01*
X163195000Y-116967000D02*
X163195000Y-123698002D01*
%TD*%
D18*
%TO.N,VCC*%
X149475467Y-117224533D02*
X149479000Y-117237718D01*
X149479000Y-124824282D01*
X149475467Y-124837467D01*
X149462282Y-124841000D01*
X148908476Y-124841000D01*
X148970825Y-124710099D01*
X149015476Y-124562890D01*
X148894155Y-124333000D01*
X147701000Y-124333000D01*
X147701000Y-124353000D01*
X147447000Y-124353000D01*
X147447000Y-124333000D01*
X146253845Y-124333000D01*
X146132524Y-124562890D01*
X146177175Y-124710099D01*
X146239524Y-124841000D01*
X142539464Y-124841000D01*
X142575185Y-124811685D01*
X142654537Y-124714994D01*
X142713502Y-124604680D01*
X142749812Y-124484982D01*
X142762072Y-124360500D01*
X142759000Y-123983750D01*
X142600250Y-123825000D01*
X141351000Y-123825000D01*
X141351000Y-123845000D01*
X141097000Y-123845000D01*
X141097000Y-123825000D01*
X139847750Y-123825000D01*
X139689000Y-123983750D01*
X139685928Y-124360500D01*
X139698188Y-124484982D01*
X139734498Y-124604680D01*
X139793463Y-124714994D01*
X139872815Y-124811685D01*
X139908536Y-124841000D01*
X137602051Y-124841000D01*
X137652494Y-124814037D01*
X137749185Y-124734685D01*
X137828537Y-124637994D01*
X137887502Y-124527680D01*
X137923812Y-124407982D01*
X137936072Y-124283500D01*
X137933000Y-123906750D01*
X137774250Y-123748000D01*
X136525000Y-123748000D01*
X136525000Y-123768000D01*
X136271000Y-123768000D01*
X136271000Y-123748000D01*
X135021750Y-123748000D01*
X134863000Y-123906750D01*
X134859928Y-124283500D01*
X134872188Y-124407982D01*
X134908498Y-124527680D01*
X134967463Y-124637994D01*
X135046815Y-124734685D01*
X135143506Y-124814037D01*
X135193949Y-124841000D01*
X134763718Y-124841000D01*
X134750533Y-124837467D01*
X134747000Y-124824282D01*
X134747000Y-122958500D01*
X134859928Y-122958500D01*
X134863000Y-123335250D01*
X135021750Y-123494000D01*
X136271000Y-123494000D01*
X136271000Y-122482250D01*
X136525000Y-122482250D01*
X136525000Y-123494000D01*
X137774250Y-123494000D01*
X137933000Y-123335250D01*
X137935444Y-123035500D01*
X139685928Y-123035500D01*
X139689000Y-123412250D01*
X139847750Y-123571000D01*
X141097000Y-123571000D01*
X141097000Y-122559250D01*
X141351000Y-122559250D01*
X141351000Y-123571000D01*
X142600250Y-123571000D01*
X142759000Y-123412250D01*
X142762072Y-123035500D01*
X142749812Y-122911018D01*
X142713502Y-122791320D01*
X142654537Y-122681006D01*
X142575185Y-122584315D01*
X142478494Y-122504963D01*
X142368180Y-122445998D01*
X142248482Y-122409688D01*
X142124000Y-122397428D01*
X141509750Y-122400500D01*
X141351000Y-122559250D01*
X141097000Y-122559250D01*
X140938250Y-122400500D01*
X140324000Y-122397428D01*
X140199518Y-122409688D01*
X140079820Y-122445998D01*
X139969506Y-122504963D01*
X139872815Y-122584315D01*
X139793463Y-122681006D01*
X139734498Y-122791320D01*
X139698188Y-122911018D01*
X139685928Y-123035500D01*
X137935444Y-123035500D01*
X137936072Y-122958500D01*
X137923812Y-122834018D01*
X137887502Y-122714320D01*
X137828537Y-122604006D01*
X137749185Y-122507315D01*
X137652494Y-122427963D01*
X137542180Y-122368998D01*
X137422482Y-122332688D01*
X137298000Y-122320428D01*
X136683750Y-122323500D01*
X136525000Y-122482250D01*
X136271000Y-122482250D01*
X136112250Y-122323500D01*
X135498000Y-122320428D01*
X135373518Y-122332688D01*
X135253820Y-122368998D01*
X135143506Y-122427963D01*
X135046815Y-122507315D01*
X134967463Y-122604006D01*
X134908498Y-122714320D01*
X134872188Y-122834018D01*
X134859928Y-122958500D01*
X134747000Y-122958500D01*
X134747000Y-122022890D01*
X146132524Y-122022890D01*
X146177175Y-122170099D01*
X146302359Y-122432920D01*
X146476412Y-122666269D01*
X146692645Y-122861178D01*
X146818255Y-122936000D01*
X146692645Y-123010822D01*
X146476412Y-123205731D01*
X146302359Y-123439080D01*
X146177175Y-123701901D01*
X146132524Y-123849110D01*
X146253845Y-124079000D01*
X147447000Y-124079000D01*
X147447000Y-121793000D01*
X147701000Y-121793000D01*
X147701000Y-124079000D01*
X148894155Y-124079000D01*
X149015476Y-123849110D01*
X148970825Y-123701901D01*
X148845641Y-123439080D01*
X148671588Y-123205731D01*
X148455355Y-123010822D01*
X148329745Y-122936000D01*
X148455355Y-122861178D01*
X148671588Y-122666269D01*
X148845641Y-122432920D01*
X148970825Y-122170099D01*
X149015476Y-122022890D01*
X148894155Y-121793000D01*
X147701000Y-121793000D01*
X147447000Y-121793000D01*
X146253845Y-121793000D01*
X146132524Y-122022890D01*
X134747000Y-122022890D01*
X134747000Y-121555718D01*
X134750533Y-121542533D01*
X134763718Y-121539000D01*
X142857905Y-121539000D01*
X142893337Y-121533957D01*
X142961386Y-121514187D01*
X142984498Y-121504932D01*
X143005360Y-121491345D01*
X143021217Y-121476218D01*
X143068080Y-121423064D01*
X143087729Y-121393152D01*
X143986676Y-119482890D01*
X146132524Y-119482890D01*
X146177175Y-119630099D01*
X146302359Y-119892920D01*
X146476412Y-120126269D01*
X146692645Y-120321178D01*
X146818255Y-120396000D01*
X146692645Y-120470822D01*
X146476412Y-120665731D01*
X146302359Y-120899080D01*
X146177175Y-121161901D01*
X146132524Y-121309110D01*
X146253845Y-121539000D01*
X147447000Y-121539000D01*
X147447000Y-119253000D01*
X147701000Y-119253000D01*
X147701000Y-121539000D01*
X148894155Y-121539000D01*
X149015476Y-121309110D01*
X148970825Y-121161901D01*
X148845641Y-120899080D01*
X148671588Y-120665731D01*
X148455355Y-120470822D01*
X148329745Y-120396000D01*
X148455355Y-120321178D01*
X148671588Y-120126269D01*
X148845641Y-119892920D01*
X148970825Y-119630099D01*
X149015476Y-119482890D01*
X148894155Y-119253000D01*
X147701000Y-119253000D01*
X147447000Y-119253000D01*
X146253845Y-119253000D01*
X146132524Y-119482890D01*
X143986676Y-119482890D01*
X144322572Y-118769110D01*
X146132524Y-118769110D01*
X146253845Y-118999000D01*
X147447000Y-118999000D01*
X147447000Y-117805186D01*
X147701000Y-117805186D01*
X147701000Y-118999000D01*
X148894155Y-118999000D01*
X149015476Y-118769110D01*
X148970825Y-118621901D01*
X148845641Y-118359080D01*
X148671588Y-118125731D01*
X148455355Y-117930822D01*
X148205252Y-117781843D01*
X147930891Y-117684519D01*
X147701000Y-117805186D01*
X147447000Y-117805186D01*
X147217109Y-117684519D01*
X146942748Y-117781843D01*
X146692645Y-117930822D01*
X146476412Y-118125731D01*
X146302359Y-118359080D01*
X146177175Y-118621901D01*
X146132524Y-118769110D01*
X144322572Y-118769110D01*
X145043399Y-117237355D01*
X145053909Y-117225433D01*
X145069169Y-117221000D01*
X149462282Y-117221000D01*
X149475467Y-117224533D01*
%TA.AperFunction,Conductor*%
D19*
G36*
X149475467Y-117224533D02*
G01*
X149479000Y-117237718D01*
X149479000Y-124824282D01*
X149475467Y-124837467D01*
X149462282Y-124841000D01*
X148908476Y-124841000D01*
X148970825Y-124710099D01*
X149015476Y-124562890D01*
X148894155Y-124333000D01*
X147701000Y-124333000D01*
X147701000Y-124353000D01*
X147447000Y-124353000D01*
X147447000Y-124333000D01*
X146253845Y-124333000D01*
X146132524Y-124562890D01*
X146177175Y-124710099D01*
X146239524Y-124841000D01*
X142539464Y-124841000D01*
X142575185Y-124811685D01*
X142654537Y-124714994D01*
X142713502Y-124604680D01*
X142749812Y-124484982D01*
X142762072Y-124360500D01*
X142759000Y-123983750D01*
X142600250Y-123825000D01*
X141351000Y-123825000D01*
X141351000Y-123845000D01*
X141097000Y-123845000D01*
X141097000Y-123825000D01*
X139847750Y-123825000D01*
X139689000Y-123983750D01*
X139685928Y-124360500D01*
X139698188Y-124484982D01*
X139734498Y-124604680D01*
X139793463Y-124714994D01*
X139872815Y-124811685D01*
X139908536Y-124841000D01*
X137602051Y-124841000D01*
X137652494Y-124814037D01*
X137749185Y-124734685D01*
X137828537Y-124637994D01*
X137887502Y-124527680D01*
X137923812Y-124407982D01*
X137936072Y-124283500D01*
X137933000Y-123906750D01*
X137774250Y-123748000D01*
X136525000Y-123748000D01*
X136525000Y-123768000D01*
X136271000Y-123768000D01*
X136271000Y-123748000D01*
X135021750Y-123748000D01*
X134863000Y-123906750D01*
X134859928Y-124283500D01*
X134872188Y-124407982D01*
X134908498Y-124527680D01*
X134967463Y-124637994D01*
X135046815Y-124734685D01*
X135143506Y-124814037D01*
X135193949Y-124841000D01*
X134763718Y-124841000D01*
X134750533Y-124837467D01*
X134747000Y-124824282D01*
X134747000Y-122958500D01*
X134859928Y-122958500D01*
X134863000Y-123335250D01*
X135021750Y-123494000D01*
X136271000Y-123494000D01*
X136271000Y-122482250D01*
X136525000Y-122482250D01*
X136525000Y-123494000D01*
X137774250Y-123494000D01*
X137933000Y-123335250D01*
X137935444Y-123035500D01*
X139685928Y-123035500D01*
X139689000Y-123412250D01*
X139847750Y-123571000D01*
X141097000Y-123571000D01*
X141097000Y-122559250D01*
X141351000Y-122559250D01*
X141351000Y-123571000D01*
X142600250Y-123571000D01*
X142759000Y-123412250D01*
X142762072Y-123035500D01*
X142749812Y-122911018D01*
X142713502Y-122791320D01*
X142654537Y-122681006D01*
X142575185Y-122584315D01*
X142478494Y-122504963D01*
X142368180Y-122445998D01*
X142248482Y-122409688D01*
X142124000Y-122397428D01*
X141509750Y-122400500D01*
X141351000Y-122559250D01*
X141097000Y-122559250D01*
X140938250Y-122400500D01*
X140324000Y-122397428D01*
X140199518Y-122409688D01*
X140079820Y-122445998D01*
X139969506Y-122504963D01*
X139872815Y-122584315D01*
X139793463Y-122681006D01*
X139734498Y-122791320D01*
X139698188Y-122911018D01*
X139685928Y-123035500D01*
X137935444Y-123035500D01*
X137936072Y-122958500D01*
X137923812Y-122834018D01*
X137887502Y-122714320D01*
X137828537Y-122604006D01*
X137749185Y-122507315D01*
X137652494Y-122427963D01*
X137542180Y-122368998D01*
X137422482Y-122332688D01*
X137298000Y-122320428D01*
X136683750Y-122323500D01*
X136525000Y-122482250D01*
X136271000Y-122482250D01*
X136112250Y-122323500D01*
X135498000Y-122320428D01*
X135373518Y-122332688D01*
X135253820Y-122368998D01*
X135143506Y-122427963D01*
X135046815Y-122507315D01*
X134967463Y-122604006D01*
X134908498Y-122714320D01*
X134872188Y-122834018D01*
X134859928Y-122958500D01*
X134747000Y-122958500D01*
X134747000Y-122022890D01*
X146132524Y-122022890D01*
X146177175Y-122170099D01*
X146302359Y-122432920D01*
X146476412Y-122666269D01*
X146692645Y-122861178D01*
X146818255Y-122936000D01*
X146692645Y-123010822D01*
X146476412Y-123205731D01*
X146302359Y-123439080D01*
X146177175Y-123701901D01*
X146132524Y-123849110D01*
X146253845Y-124079000D01*
X147447000Y-124079000D01*
X147447000Y-121793000D01*
X147701000Y-121793000D01*
X147701000Y-124079000D01*
X148894155Y-124079000D01*
X149015476Y-123849110D01*
X148970825Y-123701901D01*
X148845641Y-123439080D01*
X148671588Y-123205731D01*
X148455355Y-123010822D01*
X148329745Y-122936000D01*
X148455355Y-122861178D01*
X148671588Y-122666269D01*
X148845641Y-122432920D01*
X148970825Y-122170099D01*
X149015476Y-122022890D01*
X148894155Y-121793000D01*
X147701000Y-121793000D01*
X147447000Y-121793000D01*
X146253845Y-121793000D01*
X146132524Y-122022890D01*
X134747000Y-122022890D01*
X134747000Y-121555718D01*
X134750533Y-121542533D01*
X134763718Y-121539000D01*
X142857905Y-121539000D01*
X142893337Y-121533957D01*
X142961386Y-121514187D01*
X142984498Y-121504932D01*
X143005360Y-121491345D01*
X143021217Y-121476218D01*
X143068080Y-121423064D01*
X143087729Y-121393152D01*
X143986676Y-119482890D01*
X146132524Y-119482890D01*
X146177175Y-119630099D01*
X146302359Y-119892920D01*
X146476412Y-120126269D01*
X146692645Y-120321178D01*
X146818255Y-120396000D01*
X146692645Y-120470822D01*
X146476412Y-120665731D01*
X146302359Y-120899080D01*
X146177175Y-121161901D01*
X146132524Y-121309110D01*
X146253845Y-121539000D01*
X147447000Y-121539000D01*
X147447000Y-119253000D01*
X147701000Y-119253000D01*
X147701000Y-121539000D01*
X148894155Y-121539000D01*
X149015476Y-121309110D01*
X148970825Y-121161901D01*
X148845641Y-120899080D01*
X148671588Y-120665731D01*
X148455355Y-120470822D01*
X148329745Y-120396000D01*
X148455355Y-120321178D01*
X148671588Y-120126269D01*
X148845641Y-119892920D01*
X148970825Y-119630099D01*
X149015476Y-119482890D01*
X148894155Y-119253000D01*
X147701000Y-119253000D01*
X147447000Y-119253000D01*
X146253845Y-119253000D01*
X146132524Y-119482890D01*
X143986676Y-119482890D01*
X144322572Y-118769110D01*
X146132524Y-118769110D01*
X146253845Y-118999000D01*
X147447000Y-118999000D01*
X147447000Y-117805186D01*
X147701000Y-117805186D01*
X147701000Y-118999000D01*
X148894155Y-118999000D01*
X149015476Y-118769110D01*
X148970825Y-118621901D01*
X148845641Y-118359080D01*
X148671588Y-118125731D01*
X148455355Y-117930822D01*
X148205252Y-117781843D01*
X147930891Y-117684519D01*
X147701000Y-117805186D01*
X147447000Y-117805186D01*
X147217109Y-117684519D01*
X146942748Y-117781843D01*
X146692645Y-117930822D01*
X146476412Y-118125731D01*
X146302359Y-118359080D01*
X146177175Y-118621901D01*
X146132524Y-118769110D01*
X144322572Y-118769110D01*
X145043399Y-117237355D01*
X145053909Y-117225433D01*
X145069169Y-117221000D01*
X149462282Y-117221000D01*
X149475467Y-117224533D01*
G37*
%TD.AperFunction*%
%TD*%
D18*
%TO.N,GND*%
X169266001Y-145009000D02*
X150527419Y-145009000D01*
X150495000Y-145005807D01*
X150462581Y-145009000D01*
X150365617Y-145018550D01*
X150241207Y-145056290D01*
X150241000Y-145056401D01*
X150241000Y-137668000D01*
X151511000Y-137668000D01*
X151511000Y-143510000D01*
X151513440Y-143534777D01*
X151532775Y-143631979D01*
X151540002Y-143655803D01*
X151551738Y-143677759D01*
X151606798Y-143760162D01*
X151622592Y-143779408D01*
X151641838Y-143795202D01*
X151724241Y-143850262D01*
X151746197Y-143861998D01*
X151770021Y-143869225D01*
X151867223Y-143888560D01*
X151892000Y-143891000D01*
X157734000Y-143891000D01*
X157758777Y-143888560D01*
X157855979Y-143869225D01*
X157879803Y-143861998D01*
X157901759Y-143850262D01*
X157984162Y-143795202D01*
X158003408Y-143779408D01*
X158019202Y-143760162D01*
X158074262Y-143677759D01*
X158085998Y-143655803D01*
X158093225Y-143631979D01*
X158112560Y-143534777D01*
X158115000Y-143510000D01*
X158115000Y-137668000D01*
X158112560Y-137643223D01*
X158093225Y-137546021D01*
X158085998Y-137522197D01*
X158074262Y-137500241D01*
X158019202Y-137417838D01*
X158003408Y-137398592D01*
X157984162Y-137382798D01*
X157901759Y-137327738D01*
X157879803Y-137316002D01*
X157855979Y-137308775D01*
X157758777Y-137289440D01*
X157734000Y-137287000D01*
X157703607Y-137287000D01*
X157627704Y-137211097D01*
X157871671Y-137139514D01*
X157992571Y-136884004D01*
X158061300Y-136609816D01*
X158075217Y-136327488D01*
X158033787Y-136047870D01*
X157938603Y-135781708D01*
X157871671Y-135656486D01*
X157627702Y-135584903D01*
X156814605Y-136398000D01*
X156828748Y-136412143D01*
X156649143Y-136591748D01*
X156635000Y-136577605D01*
X156620858Y-136591748D01*
X156441253Y-136412143D01*
X156455395Y-136398000D01*
X155642298Y-135584903D01*
X155398329Y-135656486D01*
X155277429Y-135911996D01*
X155208700Y-136186184D01*
X155194783Y-136468512D01*
X155236213Y-136748130D01*
X155331397Y-137014292D01*
X155398329Y-137139514D01*
X155642296Y-137211097D01*
X155566393Y-137287000D01*
X154405730Y-137287000D01*
X154456008Y-137121254D01*
X154473072Y-136948000D01*
X154473072Y-135848000D01*
X154456008Y-135674746D01*
X154405472Y-135508150D01*
X154323405Y-135354614D01*
X154212962Y-135220038D01*
X154078386Y-135109595D01*
X153932186Y-135031449D01*
X154036962Y-134945462D01*
X154147405Y-134810887D01*
X154229472Y-134657351D01*
X154280008Y-134490755D01*
X154297072Y-134317501D01*
X154297072Y-133017499D01*
X154280008Y-132844245D01*
X154229472Y-132677649D01*
X154147405Y-132524113D01*
X154036962Y-132389538D01*
X153902387Y-132279095D01*
X153748851Y-132197028D01*
X153582255Y-132146492D01*
X153409001Y-132129428D01*
X152583999Y-132129428D01*
X152410745Y-132146492D01*
X152244149Y-132197028D01*
X152090613Y-132279095D01*
X151956038Y-132389538D01*
X151845595Y-132524113D01*
X151763528Y-132677649D01*
X151712992Y-132844245D01*
X151695928Y-133017499D01*
X151695928Y-134317501D01*
X151712992Y-134490755D01*
X151763528Y-134657351D01*
X151845595Y-134810887D01*
X151956038Y-134945462D01*
X152090613Y-135055905D01*
X152091337Y-135056292D01*
X151991614Y-135109595D01*
X151857038Y-135220038D01*
X151746595Y-135354614D01*
X151664528Y-135508150D01*
X151613992Y-135674746D01*
X151596928Y-135848000D01*
X151596928Y-136948000D01*
X151613992Y-137121254D01*
X151664528Y-137287850D01*
X151695952Y-137346640D01*
X151641838Y-137382798D01*
X151622592Y-137398592D01*
X151606798Y-137417838D01*
X151551738Y-137500241D01*
X151540002Y-137522197D01*
X151532775Y-137546021D01*
X151513440Y-137643223D01*
X151511000Y-137668000D01*
X150241000Y-137668000D01*
X150241000Y-134404926D01*
X150238564Y-134380170D01*
X150219261Y-134283044D01*
X150212038Y-134259218D01*
X150200327Y-134237292D01*
X150145350Y-134154929D01*
X150129565Y-134135677D01*
X150110362Y-134119897D01*
X150028069Y-134064815D01*
X150006122Y-134053061D01*
X149982343Y-134045823D01*
X149885242Y-134026395D01*
X149860489Y-134023927D01*
X119772417Y-133985340D01*
X119712445Y-133973369D01*
X119672154Y-133946477D01*
X119659000Y-133926863D01*
X119659000Y-132676000D01*
X128305928Y-132676000D01*
X128318188Y-132800482D01*
X128354498Y-132920180D01*
X128413463Y-133030494D01*
X128492815Y-133127185D01*
X128589506Y-133206537D01*
X128699820Y-133265502D01*
X128819518Y-133301812D01*
X128944000Y-133314072D01*
X129508250Y-133311000D01*
X129667000Y-133152250D01*
X129667000Y-131953000D01*
X129921000Y-131953000D01*
X129921000Y-133152250D01*
X130079750Y-133311000D01*
X130644000Y-133314072D01*
X130768482Y-133301812D01*
X130888180Y-133265502D01*
X130998494Y-133206537D01*
X131095185Y-133127185D01*
X131174537Y-133030494D01*
X131233502Y-132920180D01*
X131269812Y-132800482D01*
X131282072Y-132676000D01*
X131279000Y-132111750D01*
X131120250Y-131953000D01*
X129921000Y-131953000D01*
X129667000Y-131953000D01*
X128467750Y-131953000D01*
X128309000Y-132111750D01*
X128305928Y-132676000D01*
X119659000Y-132676000D01*
X119659000Y-130976000D01*
X128305928Y-130976000D01*
X128309000Y-131540250D01*
X128467750Y-131699000D01*
X129667000Y-131699000D01*
X129667000Y-129413000D01*
X129921000Y-129413000D01*
X129921000Y-131699000D01*
X131120250Y-131699000D01*
X131279000Y-131540250D01*
X131282072Y-130976000D01*
X131269812Y-130851518D01*
X131233502Y-130731820D01*
X131174537Y-130621506D01*
X131095185Y-130524815D01*
X130998494Y-130445463D01*
X130888180Y-130386498D01*
X130807534Y-130362034D01*
X130891588Y-130286269D01*
X131065641Y-130052920D01*
X131190825Y-129790099D01*
X131235476Y-129642890D01*
X131114155Y-129413000D01*
X129921000Y-129413000D01*
X129667000Y-129413000D01*
X128473845Y-129413000D01*
X128352524Y-129642890D01*
X128397175Y-129790099D01*
X128522359Y-130052920D01*
X128696412Y-130286269D01*
X128780466Y-130362034D01*
X128699820Y-130386498D01*
X128589506Y-130445463D01*
X128492815Y-130524815D01*
X128413463Y-130621506D01*
X128354498Y-130731820D01*
X128318188Y-130851518D01*
X128305928Y-130976000D01*
X119659000Y-130976000D01*
X119659000Y-127102890D01*
X128352524Y-127102890D01*
X128397175Y-127250099D01*
X128522359Y-127512920D01*
X128696412Y-127746269D01*
X128912645Y-127941178D01*
X129038255Y-128016000D01*
X128912645Y-128090822D01*
X128696412Y-128285731D01*
X128522359Y-128519080D01*
X128397175Y-128781901D01*
X128352524Y-128929110D01*
X128473845Y-129159000D01*
X129667000Y-129159000D01*
X129667000Y-126873000D01*
X129921000Y-126873000D01*
X129921000Y-129159000D01*
X131114155Y-129159000D01*
X131235476Y-128929110D01*
X131190825Y-128781901D01*
X131065641Y-128519080D01*
X130891588Y-128285731D01*
X130675355Y-128090822D01*
X130549745Y-128016000D01*
X130675355Y-127941178D01*
X130891588Y-127746269D01*
X131065641Y-127512920D01*
X131115377Y-127408500D01*
X134859928Y-127408500D01*
X134872188Y-127532982D01*
X134908498Y-127652680D01*
X134967463Y-127762994D01*
X135046815Y-127859685D01*
X135143506Y-127939037D01*
X135253820Y-127998002D01*
X135373518Y-128034312D01*
X135498000Y-128046572D01*
X136112250Y-128043500D01*
X136271000Y-127884750D01*
X136271000Y-126873000D01*
X136525000Y-126873000D01*
X136525000Y-127884750D01*
X136683750Y-128043500D01*
X137298000Y-128046572D01*
X137422482Y-128034312D01*
X137542180Y-127998002D01*
X137652494Y-127939037D01*
X137749185Y-127859685D01*
X137828537Y-127762994D01*
X137887502Y-127652680D01*
X137923812Y-127532982D01*
X137928488Y-127485500D01*
X139685928Y-127485500D01*
X139698188Y-127609982D01*
X139734498Y-127729680D01*
X139793463Y-127839994D01*
X139872815Y-127936685D01*
X139969506Y-128016037D01*
X140079820Y-128075002D01*
X140199518Y-128111312D01*
X140324000Y-128123572D01*
X140938250Y-128120500D01*
X141097000Y-127961750D01*
X141097000Y-126950000D01*
X141351000Y-126950000D01*
X141351000Y-127961750D01*
X141509750Y-128120500D01*
X142124000Y-128123572D01*
X142248482Y-128111312D01*
X142368180Y-128075002D01*
X142478494Y-128016037D01*
X142575185Y-127936685D01*
X142654537Y-127839994D01*
X142713502Y-127729680D01*
X142749812Y-127609982D01*
X142762072Y-127485500D01*
X142759000Y-127108750D01*
X142600250Y-126950000D01*
X141351000Y-126950000D01*
X141097000Y-126950000D01*
X139847750Y-126950000D01*
X139689000Y-127108750D01*
X139685928Y-127485500D01*
X137928488Y-127485500D01*
X137936072Y-127408500D01*
X137933000Y-127031750D01*
X137774250Y-126873000D01*
X136525000Y-126873000D01*
X136271000Y-126873000D01*
X135021750Y-126873000D01*
X134863000Y-127031750D01*
X134859928Y-127408500D01*
X131115377Y-127408500D01*
X131190825Y-127250099D01*
X131235476Y-127102890D01*
X131114155Y-126873000D01*
X129921000Y-126873000D01*
X129667000Y-126873000D01*
X128473845Y-126873000D01*
X128352524Y-127102890D01*
X119659000Y-127102890D01*
X119659000Y-114027000D01*
X128153928Y-114027000D01*
X128153928Y-114827000D01*
X128170992Y-115000254D01*
X128221528Y-115166850D01*
X128303595Y-115320386D01*
X128414038Y-115454962D01*
X128548614Y-115565405D01*
X128702150Y-115647472D01*
X128868746Y-115698008D01*
X129042000Y-115715072D01*
X129880271Y-115715072D01*
X131193001Y-117027803D01*
X131193001Y-118622995D01*
X131109990Y-118422589D01*
X130947475Y-118179368D01*
X130740632Y-117972525D01*
X130497411Y-117810010D01*
X130227158Y-117698068D01*
X129940260Y-117641000D01*
X129647740Y-117641000D01*
X129360842Y-117698068D01*
X129090589Y-117810010D01*
X128847368Y-117972525D01*
X128640525Y-118179368D01*
X128478010Y-118422589D01*
X128366068Y-118692842D01*
X128309000Y-118979740D01*
X128309000Y-119272260D01*
X128366068Y-119559158D01*
X128478010Y-119829411D01*
X128640525Y-120072632D01*
X128847368Y-120279475D01*
X129021760Y-120396000D01*
X128847368Y-120512525D01*
X128640525Y-120719368D01*
X128478010Y-120962589D01*
X128366068Y-121232842D01*
X128309000Y-121519740D01*
X128309000Y-121812260D01*
X128366068Y-122099158D01*
X128478010Y-122369411D01*
X128640525Y-122612632D01*
X128847368Y-122819475D01*
X129021760Y-122936000D01*
X128847368Y-123052525D01*
X128640525Y-123259368D01*
X128478010Y-123502589D01*
X128366068Y-123772842D01*
X128309000Y-124059740D01*
X128309000Y-124352260D01*
X128366068Y-124639158D01*
X128478010Y-124909411D01*
X128640525Y-125152632D01*
X128847368Y-125359475D01*
X129029534Y-125481195D01*
X128912645Y-125550822D01*
X128696412Y-125745731D01*
X128522359Y-125979080D01*
X128397175Y-126241901D01*
X128352524Y-126389110D01*
X128473845Y-126619000D01*
X129667000Y-126619000D01*
X129667000Y-126599000D01*
X129921000Y-126599000D01*
X129921000Y-126619000D01*
X131114155Y-126619000D01*
X131235476Y-126389110D01*
X131190825Y-126241901D01*
X131065641Y-125979080D01*
X130891588Y-125745731D01*
X130675355Y-125550822D01*
X130558466Y-125481195D01*
X130740632Y-125359475D01*
X130947475Y-125152632D01*
X131109990Y-124909411D01*
X131221932Y-124639158D01*
X131279000Y-124352260D01*
X131279000Y-124059740D01*
X131235209Y-123839592D01*
X132464004Y-122610798D01*
X132493001Y-122587001D01*
X132525751Y-122547095D01*
X132587974Y-122471277D01*
X132658546Y-122339247D01*
X132659078Y-122337492D01*
X132702003Y-122195986D01*
X132713000Y-122084333D01*
X132713000Y-122084324D01*
X132716676Y-122047001D01*
X132713000Y-122009678D01*
X132713000Y-116750322D01*
X132716676Y-116712999D01*
X132713000Y-116675676D01*
X132713000Y-116675667D01*
X132702003Y-116564014D01*
X132658546Y-116420753D01*
X132587974Y-116288724D01*
X132493001Y-116172999D01*
X132464003Y-116149201D01*
X131176641Y-114861839D01*
X131180072Y-114827000D01*
X131180072Y-114027000D01*
X131163008Y-113853746D01*
X131112472Y-113687150D01*
X131075511Y-113618000D01*
X132261928Y-113618000D01*
X132274188Y-113742482D01*
X132310498Y-113862180D01*
X132369463Y-113972494D01*
X132448815Y-114069185D01*
X132545506Y-114148537D01*
X132655820Y-114207502D01*
X132775518Y-114243812D01*
X132900000Y-114256072D01*
X133064250Y-114253000D01*
X133223000Y-114094250D01*
X133223000Y-113345000D01*
X133477000Y-113345000D01*
X133477000Y-114094250D01*
X133635750Y-114253000D01*
X133800000Y-114256072D01*
X133924482Y-114243812D01*
X134044180Y-114207502D01*
X134154494Y-114148537D01*
X134251185Y-114069185D01*
X134330537Y-113972494D01*
X134389502Y-113862180D01*
X134425812Y-113742482D01*
X134438072Y-113618000D01*
X134435000Y-113503750D01*
X134276250Y-113345000D01*
X133477000Y-113345000D01*
X133223000Y-113345000D01*
X132423750Y-113345000D01*
X132265000Y-113503750D01*
X132261928Y-113618000D01*
X131075511Y-113618000D01*
X131030405Y-113533614D01*
X130919962Y-113399038D01*
X130785386Y-113288595D01*
X130631850Y-113206528D01*
X130465254Y-113155992D01*
X130292000Y-113138928D01*
X129042000Y-113138928D01*
X128868746Y-113155992D01*
X128702150Y-113206528D01*
X128548614Y-113288595D01*
X128414038Y-113399038D01*
X128303595Y-113533614D01*
X128221528Y-113687150D01*
X128170992Y-113853746D01*
X128153928Y-114027000D01*
X119659000Y-114027000D01*
X119659000Y-110927000D01*
X128153928Y-110927000D01*
X128153928Y-111727000D01*
X128170992Y-111900254D01*
X128221528Y-112066850D01*
X128303595Y-112220386D01*
X128414038Y-112354962D01*
X128548614Y-112465405D01*
X128702150Y-112547472D01*
X128868746Y-112598008D01*
X129042000Y-112615072D01*
X130292000Y-112615072D01*
X130465254Y-112598008D01*
X130631850Y-112547472D01*
X130785386Y-112465405D01*
X130919962Y-112354962D01*
X131030405Y-112220386D01*
X131101702Y-112087000D01*
X132381368Y-112087000D01*
X132448815Y-112169185D01*
X132545506Y-112248537D01*
X132581918Y-112268000D01*
X132545506Y-112287463D01*
X132448815Y-112366815D01*
X132369463Y-112463506D01*
X132310498Y-112573820D01*
X132274188Y-112693518D01*
X132261928Y-112818000D01*
X132265000Y-112932250D01*
X132423750Y-113091000D01*
X133223000Y-113091000D01*
X133223000Y-113071000D01*
X133477000Y-113071000D01*
X133477000Y-113091000D01*
X134276250Y-113091000D01*
X134360857Y-113006393D01*
X134369463Y-113022494D01*
X134448815Y-113119185D01*
X134545506Y-113198537D01*
X134655820Y-113257502D01*
X134775518Y-113293812D01*
X134900000Y-113306072D01*
X135800000Y-113306072D01*
X135924482Y-113293812D01*
X136044180Y-113257502D01*
X136154494Y-113198537D01*
X136251185Y-113119185D01*
X136326018Y-113028000D01*
X146367388Y-113028000D01*
X146455614Y-113100405D01*
X146609150Y-113182472D01*
X146775746Y-113233008D01*
X146949000Y-113250072D01*
X148199000Y-113250072D01*
X148372254Y-113233008D01*
X148538850Y-113182472D01*
X148692386Y-113100405D01*
X148826962Y-112989962D01*
X148937405Y-112855386D01*
X149008702Y-112722000D01*
X157038199Y-112722000D01*
X157684859Y-113368661D01*
X157681428Y-113403500D01*
X157681428Y-114203500D01*
X157698492Y-114376754D01*
X157749028Y-114543350D01*
X157831095Y-114696886D01*
X157941538Y-114831462D01*
X158076114Y-114941905D01*
X158229650Y-115023972D01*
X158396246Y-115074508D01*
X158569500Y-115091572D01*
X159407771Y-115091572D01*
X159943876Y-115627678D01*
X159819500Y-115615428D01*
X158569500Y-115615428D01*
X158396246Y-115632492D01*
X158229650Y-115683028D01*
X158076114Y-115765095D01*
X157941538Y-115875538D01*
X157831095Y-116010114D01*
X157749028Y-116163650D01*
X157698492Y-116330246D01*
X157681428Y-116503500D01*
X157681428Y-117303500D01*
X157698492Y-117476754D01*
X157749028Y-117643350D01*
X157831095Y-117796886D01*
X157941538Y-117931462D01*
X158076114Y-118041905D01*
X158229650Y-118123972D01*
X158396246Y-118174508D01*
X158434500Y-118178276D01*
X158434501Y-123744015D01*
X158424180Y-123738498D01*
X158304482Y-123702188D01*
X158180000Y-123689928D01*
X157761729Y-123689928D01*
X157605000Y-123533199D01*
X157605000Y-120853888D01*
X157613387Y-120849405D01*
X157747962Y-120738962D01*
X157858405Y-120604387D01*
X157940472Y-120450851D01*
X157991008Y-120284255D01*
X158008072Y-120111001D01*
X158008072Y-119410999D01*
X157991008Y-119237745D01*
X157940472Y-119071149D01*
X157858405Y-118917613D01*
X157747962Y-118783038D01*
X157613387Y-118672595D01*
X157459851Y-118590528D01*
X157293255Y-118539992D01*
X157120001Y-118522928D01*
X156569999Y-118522928D01*
X156396745Y-118539992D01*
X156230149Y-118590528D01*
X156076613Y-118672595D01*
X155942038Y-118783038D01*
X155831595Y-118917613D01*
X155749528Y-119071149D01*
X155707599Y-119209371D01*
X155708072Y-119161000D01*
X155695812Y-119036518D01*
X155659502Y-118916820D01*
X155600537Y-118806506D01*
X155521185Y-118709815D01*
X155424494Y-118630463D01*
X155314180Y-118571498D01*
X155194482Y-118535188D01*
X155070000Y-118522928D01*
X154830750Y-118526000D01*
X154672000Y-118684750D01*
X154672000Y-119634000D01*
X154692000Y-119634000D01*
X154692000Y-119888000D01*
X154672000Y-119888000D01*
X154672000Y-120837250D01*
X154830750Y-120996000D01*
X155070000Y-120999072D01*
X155194482Y-120986812D01*
X155314180Y-120950502D01*
X155424494Y-120891537D01*
X155521185Y-120812185D01*
X155600537Y-120715494D01*
X155659502Y-120605180D01*
X155695812Y-120485482D01*
X155708072Y-120361000D01*
X155707599Y-120312629D01*
X155749528Y-120450851D01*
X155831595Y-120604387D01*
X155942038Y-120738962D01*
X156076613Y-120849405D01*
X156085000Y-120853888D01*
X156085001Y-123810668D01*
X156081324Y-123848000D01*
X156085001Y-123885333D01*
X156095335Y-123990249D01*
X156095998Y-123996985D01*
X156139454Y-124140246D01*
X156210026Y-124272276D01*
X156248776Y-124319492D01*
X156305000Y-124388001D01*
X156333998Y-124411799D01*
X156481928Y-124559729D01*
X156481928Y-124978000D01*
X156494188Y-125102482D01*
X156501929Y-125128000D01*
X156494188Y-125153518D01*
X156481928Y-125278000D01*
X156485000Y-125317250D01*
X156643750Y-125476000D01*
X156725859Y-125476000D01*
X156765506Y-125508537D01*
X156875820Y-125567502D01*
X156992841Y-125603000D01*
X156875820Y-125638498D01*
X156765506Y-125697463D01*
X156725859Y-125730000D01*
X156643750Y-125730000D01*
X156485000Y-125888750D01*
X156481928Y-125928000D01*
X156494188Y-126052482D01*
X156501929Y-126078000D01*
X156494188Y-126103518D01*
X156481928Y-126228000D01*
X156481928Y-126646271D01*
X156253199Y-126875000D01*
X155517384Y-126875000D01*
X155439405Y-126729113D01*
X155328962Y-126594538D01*
X155194387Y-126484095D01*
X155040851Y-126402028D01*
X154874255Y-126351492D01*
X154701001Y-126334428D01*
X153825229Y-126334428D01*
X153725803Y-126235002D01*
X153702001Y-126205999D01*
X153586276Y-126111026D01*
X153454247Y-126040454D01*
X153310986Y-125996997D01*
X153199333Y-125986000D01*
X153199322Y-125986000D01*
X153162000Y-125982324D01*
X153124678Y-125986000D01*
X148852178Y-125986000D01*
X148727475Y-125799368D01*
X148531107Y-125603000D01*
X149479000Y-125603000D01*
X149643352Y-125581362D01*
X149706852Y-125564347D01*
X149785504Y-125537649D01*
X149895287Y-125478968D01*
X149991513Y-125399998D01*
X150037998Y-125353513D01*
X150092763Y-125291065D01*
X150158498Y-125185355D01*
X150163336Y-125172500D01*
X152512928Y-125172500D01*
X152525188Y-125296982D01*
X152561498Y-125416680D01*
X152620463Y-125526994D01*
X152699815Y-125623685D01*
X152796506Y-125703037D01*
X152906820Y-125762002D01*
X153026518Y-125798312D01*
X153151000Y-125810572D01*
X153765250Y-125807500D01*
X153924000Y-125648750D01*
X153924000Y-124637000D01*
X154178000Y-124637000D01*
X154178000Y-125648750D01*
X154336750Y-125807500D01*
X154951000Y-125810572D01*
X155075482Y-125798312D01*
X155195180Y-125762002D01*
X155305494Y-125703037D01*
X155402185Y-125623685D01*
X155481537Y-125526994D01*
X155540502Y-125416680D01*
X155576812Y-125296982D01*
X155589072Y-125172500D01*
X155586000Y-124795750D01*
X155427250Y-124637000D01*
X154178000Y-124637000D01*
X153924000Y-124637000D01*
X152674750Y-124637000D01*
X152516000Y-124795750D01*
X152512928Y-125172500D01*
X150163336Y-125172500D01*
X150202347Y-125068852D01*
X150219362Y-125005352D01*
X150241000Y-124841000D01*
X150241000Y-123847500D01*
X152512928Y-123847500D01*
X152516000Y-124224250D01*
X152674750Y-124383000D01*
X153924000Y-124383000D01*
X153924000Y-123371250D01*
X154178000Y-123371250D01*
X154178000Y-124383000D01*
X155427250Y-124383000D01*
X155586000Y-124224250D01*
X155589072Y-123847500D01*
X155576812Y-123723018D01*
X155540502Y-123603320D01*
X155481537Y-123493006D01*
X155402185Y-123396315D01*
X155305494Y-123316963D01*
X155195180Y-123257998D01*
X155075482Y-123221688D01*
X154951000Y-123209428D01*
X154336750Y-123212500D01*
X154178000Y-123371250D01*
X153924000Y-123371250D01*
X153765250Y-123212500D01*
X153151000Y-123209428D01*
X153026518Y-123221688D01*
X152906820Y-123257998D01*
X152796506Y-123316963D01*
X152699815Y-123396315D01*
X152620463Y-123493006D01*
X152561498Y-123603320D01*
X152525188Y-123723018D01*
X152512928Y-123847500D01*
X150241000Y-123847500D01*
X150241000Y-120361000D01*
X153381928Y-120361000D01*
X153394188Y-120485482D01*
X153430498Y-120605180D01*
X153489463Y-120715494D01*
X153568815Y-120812185D01*
X153665506Y-120891537D01*
X153775820Y-120950502D01*
X153895518Y-120986812D01*
X154020000Y-120999072D01*
X154259250Y-120996000D01*
X154418000Y-120837250D01*
X154418000Y-119888000D01*
X153543750Y-119888000D01*
X153385000Y-120046750D01*
X153381928Y-120361000D01*
X150241000Y-120361000D01*
X150241000Y-119161000D01*
X153381928Y-119161000D01*
X153385000Y-119475250D01*
X153543750Y-119634000D01*
X154418000Y-119634000D01*
X154418000Y-118684750D01*
X154259250Y-118526000D01*
X154020000Y-118522928D01*
X153895518Y-118535188D01*
X153775820Y-118571498D01*
X153665506Y-118630463D01*
X153568815Y-118709815D01*
X153489463Y-118806506D01*
X153430498Y-118916820D01*
X153394188Y-119036518D01*
X153381928Y-119161000D01*
X150241000Y-119161000D01*
X150241000Y-117221000D01*
X150219362Y-117056648D01*
X150202347Y-116993148D01*
X150175649Y-116914496D01*
X150116968Y-116804713D01*
X150037998Y-116708487D01*
X149991513Y-116662002D01*
X149929065Y-116607237D01*
X149823355Y-116541502D01*
X149706852Y-116497653D01*
X149643352Y-116480638D01*
X149479000Y-116459000D01*
X148334000Y-116459000D01*
X148334000Y-116336776D01*
X148372254Y-116333008D01*
X148538850Y-116282472D01*
X148692386Y-116200405D01*
X148826962Y-116089962D01*
X148937405Y-115955386D01*
X149019472Y-115801850D01*
X149070008Y-115635254D01*
X149087072Y-115462000D01*
X149087072Y-114662000D01*
X149070008Y-114488746D01*
X149019472Y-114322150D01*
X148937405Y-114168614D01*
X148826962Y-114034038D01*
X148692386Y-113923595D01*
X148538850Y-113841528D01*
X148372254Y-113790992D01*
X148199000Y-113773928D01*
X146949000Y-113773928D01*
X146775746Y-113790992D01*
X146609150Y-113841528D01*
X146455614Y-113923595D01*
X146321038Y-114034038D01*
X146210595Y-114168614D01*
X146128528Y-114322150D01*
X146077992Y-114488746D01*
X146060928Y-114662000D01*
X146060928Y-115462000D01*
X146077992Y-115635254D01*
X146128528Y-115801850D01*
X146210595Y-115955386D01*
X146321038Y-116089962D01*
X146455614Y-116200405D01*
X146609150Y-116282472D01*
X146775746Y-116333008D01*
X146814001Y-116336776D01*
X146814001Y-116459000D01*
X145051095Y-116459000D01*
X144873936Y-116484213D01*
X144805887Y-116503983D01*
X144703693Y-116543518D01*
X144597810Y-116608974D01*
X144506732Y-116693830D01*
X144459869Y-116746984D01*
X144361623Y-116896543D01*
X142535525Y-120777000D01*
X134747000Y-120777000D01*
X134582648Y-120798638D01*
X134519148Y-120815653D01*
X134440496Y-120842351D01*
X134330713Y-120901032D01*
X134234487Y-120980002D01*
X134188002Y-121026487D01*
X134133237Y-121088935D01*
X134067502Y-121194645D01*
X134023653Y-121311148D01*
X134006638Y-121374648D01*
X133985000Y-121539000D01*
X133985000Y-124841000D01*
X134006638Y-125005352D01*
X134023653Y-125068852D01*
X134050351Y-125147504D01*
X134109032Y-125257287D01*
X134188002Y-125353513D01*
X134234487Y-125399998D01*
X134296935Y-125454763D01*
X134402645Y-125520498D01*
X134519148Y-125564347D01*
X134582648Y-125581362D01*
X134747000Y-125603000D01*
X135082536Y-125603000D01*
X135046815Y-125632315D01*
X134967463Y-125729006D01*
X134908498Y-125839320D01*
X134872188Y-125959018D01*
X134859928Y-126083500D01*
X134863000Y-126460250D01*
X135021750Y-126619000D01*
X136271000Y-126619000D01*
X136271000Y-126599000D01*
X136525000Y-126599000D01*
X136525000Y-126619000D01*
X137774250Y-126619000D01*
X137933000Y-126460250D01*
X137936072Y-126083500D01*
X137923812Y-125959018D01*
X137887502Y-125839320D01*
X137828537Y-125729006D01*
X137749185Y-125632315D01*
X137713464Y-125603000D01*
X140019949Y-125603000D01*
X139969506Y-125629963D01*
X139872815Y-125709315D01*
X139793463Y-125806006D01*
X139734498Y-125916320D01*
X139698188Y-126036018D01*
X139685928Y-126160500D01*
X139689000Y-126537250D01*
X139847750Y-126696000D01*
X141097000Y-126696000D01*
X141097000Y-126676000D01*
X141351000Y-126676000D01*
X141351000Y-126696000D01*
X142600250Y-126696000D01*
X142759000Y-126537250D01*
X142762072Y-126160500D01*
X142749812Y-126036018D01*
X142713502Y-125916320D01*
X142654537Y-125806006D01*
X142575185Y-125709315D01*
X142478494Y-125629963D01*
X142428051Y-125603000D01*
X146616893Y-125603000D01*
X146420525Y-125799368D01*
X146258010Y-126042589D01*
X146146068Y-126312842D01*
X146089000Y-126599740D01*
X146089000Y-126892260D01*
X146146068Y-127179158D01*
X146258010Y-127449411D01*
X146420525Y-127692632D01*
X146627368Y-127899475D01*
X146801760Y-128016000D01*
X146627368Y-128132525D01*
X146420525Y-128339368D01*
X146258010Y-128582589D01*
X146146068Y-128852842D01*
X146089000Y-129139740D01*
X146089000Y-129432260D01*
X146146068Y-129719158D01*
X146258010Y-129989411D01*
X146420525Y-130232632D01*
X146552380Y-130364487D01*
X146479820Y-130386498D01*
X146369506Y-130445463D01*
X146272815Y-130524815D01*
X146193463Y-130621506D01*
X146134498Y-130731820D01*
X146098188Y-130851518D01*
X146085928Y-130976000D01*
X146085928Y-132676000D01*
X146098188Y-132800482D01*
X146134498Y-132920180D01*
X146193463Y-133030494D01*
X146272815Y-133127185D01*
X146369506Y-133206537D01*
X146479820Y-133265502D01*
X146599518Y-133301812D01*
X146724000Y-133314072D01*
X148424000Y-133314072D01*
X148548482Y-133301812D01*
X148668180Y-133265502D01*
X148778494Y-133206537D01*
X148875185Y-133127185D01*
X148954537Y-133030494D01*
X149013502Y-132920180D01*
X149049812Y-132800482D01*
X149062072Y-132676000D01*
X149062072Y-130976000D01*
X149049812Y-130851518D01*
X149013502Y-130731820D01*
X148954537Y-130621506D01*
X148875185Y-130524815D01*
X148778494Y-130445463D01*
X148668180Y-130386498D01*
X148595620Y-130364487D01*
X148727475Y-130232632D01*
X148889990Y-129989411D01*
X149001932Y-129719158D01*
X149059000Y-129432260D01*
X149059000Y-129139740D01*
X149001932Y-128852842D01*
X148889990Y-128582589D01*
X148727475Y-128339368D01*
X148520632Y-128132525D01*
X148346240Y-128016000D01*
X148520632Y-127899475D01*
X148727475Y-127692632D01*
X148852178Y-127506000D01*
X152512928Y-127506000D01*
X152512928Y-128047501D01*
X152529992Y-128220755D01*
X152580528Y-128387351D01*
X152662595Y-128540887D01*
X152773038Y-128675462D01*
X152907613Y-128785905D01*
X153061149Y-128867972D01*
X153227745Y-128918508D01*
X153400999Y-128935572D01*
X154701001Y-128935572D01*
X154874255Y-128918508D01*
X155040851Y-128867972D01*
X155194387Y-128785905D01*
X155328962Y-128675462D01*
X155439405Y-128540887D01*
X155517384Y-128395000D01*
X156530678Y-128395000D01*
X156568000Y-128398676D01*
X156605322Y-128395000D01*
X156605333Y-128395000D01*
X156716986Y-128384003D01*
X156860247Y-128340546D01*
X156992276Y-128269974D01*
X157108001Y-128175001D01*
X157131804Y-128145998D01*
X157745001Y-127532800D01*
X157745001Y-128377197D01*
X157734718Y-128387480D01*
X157688501Y-128382928D01*
X156863499Y-128382928D01*
X156690245Y-128399992D01*
X156523649Y-128450528D01*
X156370113Y-128532595D01*
X156235538Y-128643038D01*
X156125095Y-128777613D01*
X156043028Y-128931149D01*
X155992492Y-129097745D01*
X155975428Y-129270999D01*
X155975428Y-130571001D01*
X155992492Y-130744255D01*
X156043028Y-130910851D01*
X156125095Y-131064387D01*
X156235538Y-131198962D01*
X156370113Y-131309405D01*
X156523649Y-131391472D01*
X156690245Y-131442008D01*
X156863499Y-131459072D01*
X157294001Y-131459072D01*
X157294000Y-131654532D01*
X157277815Y-131667815D01*
X157198463Y-131764506D01*
X157139498Y-131874820D01*
X157103188Y-131994518D01*
X157090928Y-132119000D01*
X157090928Y-132331242D01*
X157027387Y-132279095D01*
X156873851Y-132197028D01*
X156707255Y-132146492D01*
X156534001Y-132129428D01*
X155708999Y-132129428D01*
X155535745Y-132146492D01*
X155369149Y-132197028D01*
X155215613Y-132279095D01*
X155081038Y-132389538D01*
X154970595Y-132524113D01*
X154888528Y-132677649D01*
X154837992Y-132844245D01*
X154820928Y-133017499D01*
X154820928Y-134317501D01*
X154837992Y-134490755D01*
X154888528Y-134657351D01*
X154970595Y-134810887D01*
X155081038Y-134945462D01*
X155215613Y-135055905D01*
X155369149Y-135137972D01*
X155535745Y-135188508D01*
X155708999Y-135205572D01*
X155880505Y-135205572D01*
X155821903Y-135405298D01*
X156635000Y-136218395D01*
X157448097Y-135405298D01*
X157376514Y-135161329D01*
X157121004Y-135040429D01*
X157063736Y-135026074D01*
X157161962Y-134945462D01*
X157272405Y-134810887D01*
X157354472Y-134657351D01*
X157405008Y-134490755D01*
X157411238Y-134427500D01*
X157547448Y-134427500D01*
X157604518Y-134444812D01*
X157729000Y-134457072D01*
X158379000Y-134457072D01*
X158503482Y-134444812D01*
X158623180Y-134408502D01*
X158733494Y-134349537D01*
X158830185Y-134270185D01*
X158909537Y-134173494D01*
X158968502Y-134063180D01*
X159004715Y-133943801D01*
X159006454Y-133958902D01*
X159045710Y-134077666D01*
X159107381Y-134186490D01*
X159189097Y-134281192D01*
X159287719Y-134358132D01*
X159399456Y-134414353D01*
X159520014Y-134447695D01*
X159644761Y-134456877D01*
X159668250Y-134454000D01*
X159827000Y-134295250D01*
X159827000Y-133692000D01*
X159807000Y-133692000D01*
X159807000Y-133665250D01*
X159827000Y-133645250D01*
X159827000Y-133472000D01*
X160081000Y-133472000D01*
X160081000Y-133645250D01*
X160127750Y-133692000D01*
X160081000Y-133692000D01*
X160081000Y-134295250D01*
X160239750Y-134454000D01*
X160263239Y-134456877D01*
X160387986Y-134447695D01*
X160508544Y-134414353D01*
X160620281Y-134358132D01*
X160718903Y-134281192D01*
X160800619Y-134186490D01*
X160862290Y-134077666D01*
X160901546Y-133958902D01*
X160914000Y-133850750D01*
X160755250Y-133692000D01*
X160640959Y-133692000D01*
X160718903Y-133631192D01*
X160800619Y-133536490D01*
X160847519Y-133453731D01*
X160914000Y-133387250D01*
X160903262Y-133294000D01*
X160914000Y-133200750D01*
X160847519Y-133134269D01*
X160800619Y-133051510D01*
X160730312Y-132970030D01*
X160809537Y-132873494D01*
X160846032Y-132805218D01*
X160914000Y-132737250D01*
X160903645Y-132647328D01*
X160904812Y-132643482D01*
X160917072Y-132519000D01*
X160917072Y-132119000D01*
X160904812Y-131994518D01*
X160868502Y-131874820D01*
X160809537Y-131764506D01*
X160730185Y-131667815D01*
X160714000Y-131654532D01*
X160714000Y-131459072D01*
X160813501Y-131459072D01*
X160986755Y-131442008D01*
X161153351Y-131391472D01*
X161306887Y-131309405D01*
X161441462Y-131198962D01*
X161551905Y-131064387D01*
X161633972Y-130910851D01*
X161684508Y-130744255D01*
X161701572Y-130571001D01*
X161701572Y-129390500D01*
X161910928Y-129390500D01*
X161923188Y-129514982D01*
X161959498Y-129634680D01*
X162018463Y-129744994D01*
X162097815Y-129841685D01*
X162194506Y-129921037D01*
X162304820Y-129980002D01*
X162424518Y-130016312D01*
X162549000Y-130028572D01*
X163163250Y-130025500D01*
X163322000Y-129866750D01*
X163322000Y-128855000D01*
X163576000Y-128855000D01*
X163576000Y-129866750D01*
X163734750Y-130025500D01*
X164349000Y-130028572D01*
X164473482Y-130016312D01*
X164593180Y-129980002D01*
X164703494Y-129921037D01*
X164800185Y-129841685D01*
X164879537Y-129744994D01*
X164938502Y-129634680D01*
X164974812Y-129514982D01*
X164987072Y-129390500D01*
X164984000Y-129013750D01*
X164825250Y-128855000D01*
X163576000Y-128855000D01*
X163322000Y-128855000D01*
X162072750Y-128855000D01*
X161914000Y-129013750D01*
X161910928Y-129390500D01*
X161701572Y-129390500D01*
X161701572Y-129270999D01*
X161684508Y-129097745D01*
X161633972Y-128931149D01*
X161551905Y-128777613D01*
X161441462Y-128643038D01*
X161306887Y-128532595D01*
X161153351Y-128450528D01*
X160986755Y-128399992D01*
X160813501Y-128382928D01*
X159988499Y-128382928D01*
X159815245Y-128399992D01*
X159648649Y-128450528D01*
X159495113Y-128532595D01*
X159360538Y-128643038D01*
X159261630Y-128763558D01*
X159265001Y-128729332D01*
X159265001Y-128729322D01*
X159268677Y-128691999D01*
X159265001Y-128654676D01*
X159265001Y-128065500D01*
X161910928Y-128065500D01*
X161914000Y-128442250D01*
X162072750Y-128601000D01*
X163322000Y-128601000D01*
X163322000Y-127589250D01*
X163576000Y-127589250D01*
X163576000Y-128601000D01*
X164825250Y-128601000D01*
X164984000Y-128442250D01*
X164987072Y-128065500D01*
X164974812Y-127941018D01*
X164938502Y-127821320D01*
X164879537Y-127711006D01*
X164800185Y-127614315D01*
X164703494Y-127534963D01*
X164593180Y-127475998D01*
X164473482Y-127439688D01*
X164349000Y-127427428D01*
X163734750Y-127430500D01*
X163576000Y-127589250D01*
X163322000Y-127589250D01*
X163163250Y-127430500D01*
X162549000Y-127427428D01*
X162424518Y-127439688D01*
X162304820Y-127475998D01*
X162194506Y-127534963D01*
X162097815Y-127614315D01*
X162018463Y-127711006D01*
X161959498Y-127821320D01*
X161923188Y-127941018D01*
X161910928Y-128065500D01*
X159265001Y-128065500D01*
X159265001Y-127510655D01*
X159320000Y-127516072D01*
X160380000Y-127516072D01*
X160504482Y-127503812D01*
X160624180Y-127467502D01*
X160734494Y-127408537D01*
X160831185Y-127329185D01*
X160910537Y-127232494D01*
X160969502Y-127122180D01*
X161005812Y-127002482D01*
X161010236Y-126957568D01*
X161914638Y-126053166D01*
X161927992Y-126188755D01*
X161978528Y-126355351D01*
X162060595Y-126508887D01*
X162171038Y-126643462D01*
X162305613Y-126753905D01*
X162459149Y-126835972D01*
X162625745Y-126886508D01*
X162798999Y-126903572D01*
X164099001Y-126903572D01*
X164272255Y-126886508D01*
X164438851Y-126835972D01*
X164592387Y-126753905D01*
X164726962Y-126643462D01*
X164837405Y-126508887D01*
X164919472Y-126355351D01*
X164970008Y-126188755D01*
X164987072Y-126015501D01*
X164987072Y-125190499D01*
X164982064Y-125139656D01*
X165029984Y-125081266D01*
X165100556Y-124949237D01*
X165144013Y-124805976D01*
X165155010Y-124694323D01*
X165155010Y-124694314D01*
X165158686Y-124656991D01*
X165155010Y-124619668D01*
X165155010Y-115104332D01*
X165158686Y-115067009D01*
X165155010Y-115029686D01*
X165155010Y-115029677D01*
X165144013Y-114918024D01*
X165100556Y-114774763D01*
X165029984Y-114642734D01*
X165016821Y-114626695D01*
X164958809Y-114556006D01*
X164958805Y-114556002D01*
X164935011Y-114527009D01*
X164906018Y-114503215D01*
X164704641Y-114301838D01*
X164708072Y-114267000D01*
X164708072Y-113467000D01*
X164691008Y-113293746D01*
X164640472Y-113127150D01*
X164558405Y-112973614D01*
X164447962Y-112839038D01*
X164313386Y-112728595D01*
X164159850Y-112646528D01*
X163993254Y-112595992D01*
X163820000Y-112578928D01*
X162570000Y-112578928D01*
X162396746Y-112595992D01*
X162230150Y-112646528D01*
X162076614Y-112728595D01*
X161942038Y-112839038D01*
X161831595Y-112973614D01*
X161794240Y-113043500D01*
X160629202Y-113043500D01*
X160557905Y-112910114D01*
X160447462Y-112775538D01*
X160312886Y-112665095D01*
X160159350Y-112583028D01*
X159992754Y-112532492D01*
X159819500Y-112515428D01*
X158981230Y-112515428D01*
X157916804Y-111451003D01*
X157893001Y-111421999D01*
X157777276Y-111327026D01*
X157645247Y-111256454D01*
X157501986Y-111212997D01*
X157390333Y-111202000D01*
X157390322Y-111202000D01*
X157353000Y-111198324D01*
X157315678Y-111202000D01*
X149008702Y-111202000D01*
X148937405Y-111068614D01*
X148826962Y-110934038D01*
X148692386Y-110823595D01*
X148538850Y-110741528D01*
X148372254Y-110690992D01*
X148199000Y-110673928D01*
X146949000Y-110673928D01*
X146775746Y-110690992D01*
X146609150Y-110741528D01*
X146455614Y-110823595D01*
X146321038Y-110934038D01*
X146210595Y-111068614D01*
X146128528Y-111222150D01*
X146077992Y-111388746D01*
X146066247Y-111508000D01*
X136326018Y-111508000D01*
X136251185Y-111416815D01*
X136154494Y-111337463D01*
X136044180Y-111278498D01*
X135924482Y-111242188D01*
X135800000Y-111229928D01*
X134900000Y-111229928D01*
X134775518Y-111242188D01*
X134655820Y-111278498D01*
X134545506Y-111337463D01*
X134448815Y-111416815D01*
X134438072Y-111429905D01*
X134438072Y-110918000D01*
X134425812Y-110793518D01*
X134389502Y-110673820D01*
X134330537Y-110563506D01*
X134251185Y-110466815D01*
X134154494Y-110387463D01*
X134044180Y-110328498D01*
X133924482Y-110292188D01*
X133800000Y-110279928D01*
X132900000Y-110279928D01*
X132775518Y-110292188D01*
X132655820Y-110328498D01*
X132545506Y-110387463D01*
X132448815Y-110466815D01*
X132369463Y-110563506D01*
X132367595Y-110567000D01*
X131101702Y-110567000D01*
X131030405Y-110433614D01*
X130919962Y-110299038D01*
X130785386Y-110188595D01*
X130631850Y-110106528D01*
X130465254Y-110055992D01*
X130292000Y-110038928D01*
X129042000Y-110038928D01*
X128868746Y-110055992D01*
X128702150Y-110106528D01*
X128548614Y-110188595D01*
X128414038Y-110299038D01*
X128303595Y-110433614D01*
X128221528Y-110587150D01*
X128170992Y-110753746D01*
X128153928Y-110927000D01*
X119659000Y-110927000D01*
X119659000Y-107213000D01*
X169266000Y-107213000D01*
X169266001Y-145009000D01*
%TA.AperFunction,Conductor*%
D19*
G36*
X169266001Y-145009000D02*
G01*
X150527419Y-145009000D01*
X150495000Y-145005807D01*
X150462581Y-145009000D01*
X150365617Y-145018550D01*
X150241207Y-145056290D01*
X150241000Y-145056401D01*
X150241000Y-137668000D01*
X151511000Y-137668000D01*
X151511000Y-143510000D01*
X151513440Y-143534777D01*
X151532775Y-143631979D01*
X151540002Y-143655803D01*
X151551738Y-143677759D01*
X151606798Y-143760162D01*
X151622592Y-143779408D01*
X151641838Y-143795202D01*
X151724241Y-143850262D01*
X151746197Y-143861998D01*
X151770021Y-143869225D01*
X151867223Y-143888560D01*
X151892000Y-143891000D01*
X157734000Y-143891000D01*
X157758777Y-143888560D01*
X157855979Y-143869225D01*
X157879803Y-143861998D01*
X157901759Y-143850262D01*
X157984162Y-143795202D01*
X158003408Y-143779408D01*
X158019202Y-143760162D01*
X158074262Y-143677759D01*
X158085998Y-143655803D01*
X158093225Y-143631979D01*
X158112560Y-143534777D01*
X158115000Y-143510000D01*
X158115000Y-137668000D01*
X158112560Y-137643223D01*
X158093225Y-137546021D01*
X158085998Y-137522197D01*
X158074262Y-137500241D01*
X158019202Y-137417838D01*
X158003408Y-137398592D01*
X157984162Y-137382798D01*
X157901759Y-137327738D01*
X157879803Y-137316002D01*
X157855979Y-137308775D01*
X157758777Y-137289440D01*
X157734000Y-137287000D01*
X157703607Y-137287000D01*
X157627704Y-137211097D01*
X157871671Y-137139514D01*
X157992571Y-136884004D01*
X158061300Y-136609816D01*
X158075217Y-136327488D01*
X158033787Y-136047870D01*
X157938603Y-135781708D01*
X157871671Y-135656486D01*
X157627702Y-135584903D01*
X156814605Y-136398000D01*
X156828748Y-136412143D01*
X156649143Y-136591748D01*
X156635000Y-136577605D01*
X156620858Y-136591748D01*
X156441253Y-136412143D01*
X156455395Y-136398000D01*
X155642298Y-135584903D01*
X155398329Y-135656486D01*
X155277429Y-135911996D01*
X155208700Y-136186184D01*
X155194783Y-136468512D01*
X155236213Y-136748130D01*
X155331397Y-137014292D01*
X155398329Y-137139514D01*
X155642296Y-137211097D01*
X155566393Y-137287000D01*
X154405730Y-137287000D01*
X154456008Y-137121254D01*
X154473072Y-136948000D01*
X154473072Y-135848000D01*
X154456008Y-135674746D01*
X154405472Y-135508150D01*
X154323405Y-135354614D01*
X154212962Y-135220038D01*
X154078386Y-135109595D01*
X153932186Y-135031449D01*
X154036962Y-134945462D01*
X154147405Y-134810887D01*
X154229472Y-134657351D01*
X154280008Y-134490755D01*
X154297072Y-134317501D01*
X154297072Y-133017499D01*
X154280008Y-132844245D01*
X154229472Y-132677649D01*
X154147405Y-132524113D01*
X154036962Y-132389538D01*
X153902387Y-132279095D01*
X153748851Y-132197028D01*
X153582255Y-132146492D01*
X153409001Y-132129428D01*
X152583999Y-132129428D01*
X152410745Y-132146492D01*
X152244149Y-132197028D01*
X152090613Y-132279095D01*
X151956038Y-132389538D01*
X151845595Y-132524113D01*
X151763528Y-132677649D01*
X151712992Y-132844245D01*
X151695928Y-133017499D01*
X151695928Y-134317501D01*
X151712992Y-134490755D01*
X151763528Y-134657351D01*
X151845595Y-134810887D01*
X151956038Y-134945462D01*
X152090613Y-135055905D01*
X152091337Y-135056292D01*
X151991614Y-135109595D01*
X151857038Y-135220038D01*
X151746595Y-135354614D01*
X151664528Y-135508150D01*
X151613992Y-135674746D01*
X151596928Y-135848000D01*
X151596928Y-136948000D01*
X151613992Y-137121254D01*
X151664528Y-137287850D01*
X151695952Y-137346640D01*
X151641838Y-137382798D01*
X151622592Y-137398592D01*
X151606798Y-137417838D01*
X151551738Y-137500241D01*
X151540002Y-137522197D01*
X151532775Y-137546021D01*
X151513440Y-137643223D01*
X151511000Y-137668000D01*
X150241000Y-137668000D01*
X150241000Y-134404926D01*
X150238564Y-134380170D01*
X150219261Y-134283044D01*
X150212038Y-134259218D01*
X150200327Y-134237292D01*
X150145350Y-134154929D01*
X150129565Y-134135677D01*
X150110362Y-134119897D01*
X150028069Y-134064815D01*
X150006122Y-134053061D01*
X149982343Y-134045823D01*
X149885242Y-134026395D01*
X149860489Y-134023927D01*
X119772417Y-133985340D01*
X119712445Y-133973369D01*
X119672154Y-133946477D01*
X119659000Y-133926863D01*
X119659000Y-132676000D01*
X128305928Y-132676000D01*
X128318188Y-132800482D01*
X128354498Y-132920180D01*
X128413463Y-133030494D01*
X128492815Y-133127185D01*
X128589506Y-133206537D01*
X128699820Y-133265502D01*
X128819518Y-133301812D01*
X128944000Y-133314072D01*
X129508250Y-133311000D01*
X129667000Y-133152250D01*
X129667000Y-131953000D01*
X129921000Y-131953000D01*
X129921000Y-133152250D01*
X130079750Y-133311000D01*
X130644000Y-133314072D01*
X130768482Y-133301812D01*
X130888180Y-133265502D01*
X130998494Y-133206537D01*
X131095185Y-133127185D01*
X131174537Y-133030494D01*
X131233502Y-132920180D01*
X131269812Y-132800482D01*
X131282072Y-132676000D01*
X131279000Y-132111750D01*
X131120250Y-131953000D01*
X129921000Y-131953000D01*
X129667000Y-131953000D01*
X128467750Y-131953000D01*
X128309000Y-132111750D01*
X128305928Y-132676000D01*
X119659000Y-132676000D01*
X119659000Y-130976000D01*
X128305928Y-130976000D01*
X128309000Y-131540250D01*
X128467750Y-131699000D01*
X129667000Y-131699000D01*
X129667000Y-129413000D01*
X129921000Y-129413000D01*
X129921000Y-131699000D01*
X131120250Y-131699000D01*
X131279000Y-131540250D01*
X131282072Y-130976000D01*
X131269812Y-130851518D01*
X131233502Y-130731820D01*
X131174537Y-130621506D01*
X131095185Y-130524815D01*
X130998494Y-130445463D01*
X130888180Y-130386498D01*
X130807534Y-130362034D01*
X130891588Y-130286269D01*
X131065641Y-130052920D01*
X131190825Y-129790099D01*
X131235476Y-129642890D01*
X131114155Y-129413000D01*
X129921000Y-129413000D01*
X129667000Y-129413000D01*
X128473845Y-129413000D01*
X128352524Y-129642890D01*
X128397175Y-129790099D01*
X128522359Y-130052920D01*
X128696412Y-130286269D01*
X128780466Y-130362034D01*
X128699820Y-130386498D01*
X128589506Y-130445463D01*
X128492815Y-130524815D01*
X128413463Y-130621506D01*
X128354498Y-130731820D01*
X128318188Y-130851518D01*
X128305928Y-130976000D01*
X119659000Y-130976000D01*
X119659000Y-127102890D01*
X128352524Y-127102890D01*
X128397175Y-127250099D01*
X128522359Y-127512920D01*
X128696412Y-127746269D01*
X128912645Y-127941178D01*
X129038255Y-128016000D01*
X128912645Y-128090822D01*
X128696412Y-128285731D01*
X128522359Y-128519080D01*
X128397175Y-128781901D01*
X128352524Y-128929110D01*
X128473845Y-129159000D01*
X129667000Y-129159000D01*
X129667000Y-126873000D01*
X129921000Y-126873000D01*
X129921000Y-129159000D01*
X131114155Y-129159000D01*
X131235476Y-128929110D01*
X131190825Y-128781901D01*
X131065641Y-128519080D01*
X130891588Y-128285731D01*
X130675355Y-128090822D01*
X130549745Y-128016000D01*
X130675355Y-127941178D01*
X130891588Y-127746269D01*
X131065641Y-127512920D01*
X131115377Y-127408500D01*
X134859928Y-127408500D01*
X134872188Y-127532982D01*
X134908498Y-127652680D01*
X134967463Y-127762994D01*
X135046815Y-127859685D01*
X135143506Y-127939037D01*
X135253820Y-127998002D01*
X135373518Y-128034312D01*
X135498000Y-128046572D01*
X136112250Y-128043500D01*
X136271000Y-127884750D01*
X136271000Y-126873000D01*
X136525000Y-126873000D01*
X136525000Y-127884750D01*
X136683750Y-128043500D01*
X137298000Y-128046572D01*
X137422482Y-128034312D01*
X137542180Y-127998002D01*
X137652494Y-127939037D01*
X137749185Y-127859685D01*
X137828537Y-127762994D01*
X137887502Y-127652680D01*
X137923812Y-127532982D01*
X137928488Y-127485500D01*
X139685928Y-127485500D01*
X139698188Y-127609982D01*
X139734498Y-127729680D01*
X139793463Y-127839994D01*
X139872815Y-127936685D01*
X139969506Y-128016037D01*
X140079820Y-128075002D01*
X140199518Y-128111312D01*
X140324000Y-128123572D01*
X140938250Y-128120500D01*
X141097000Y-127961750D01*
X141097000Y-126950000D01*
X141351000Y-126950000D01*
X141351000Y-127961750D01*
X141509750Y-128120500D01*
X142124000Y-128123572D01*
X142248482Y-128111312D01*
X142368180Y-128075002D01*
X142478494Y-128016037D01*
X142575185Y-127936685D01*
X142654537Y-127839994D01*
X142713502Y-127729680D01*
X142749812Y-127609982D01*
X142762072Y-127485500D01*
X142759000Y-127108750D01*
X142600250Y-126950000D01*
X141351000Y-126950000D01*
X141097000Y-126950000D01*
X139847750Y-126950000D01*
X139689000Y-127108750D01*
X139685928Y-127485500D01*
X137928488Y-127485500D01*
X137936072Y-127408500D01*
X137933000Y-127031750D01*
X137774250Y-126873000D01*
X136525000Y-126873000D01*
X136271000Y-126873000D01*
X135021750Y-126873000D01*
X134863000Y-127031750D01*
X134859928Y-127408500D01*
X131115377Y-127408500D01*
X131190825Y-127250099D01*
X131235476Y-127102890D01*
X131114155Y-126873000D01*
X129921000Y-126873000D01*
X129667000Y-126873000D01*
X128473845Y-126873000D01*
X128352524Y-127102890D01*
X119659000Y-127102890D01*
X119659000Y-114027000D01*
X128153928Y-114027000D01*
X128153928Y-114827000D01*
X128170992Y-115000254D01*
X128221528Y-115166850D01*
X128303595Y-115320386D01*
X128414038Y-115454962D01*
X128548614Y-115565405D01*
X128702150Y-115647472D01*
X128868746Y-115698008D01*
X129042000Y-115715072D01*
X129880271Y-115715072D01*
X131193001Y-117027803D01*
X131193001Y-118622995D01*
X131109990Y-118422589D01*
X130947475Y-118179368D01*
X130740632Y-117972525D01*
X130497411Y-117810010D01*
X130227158Y-117698068D01*
X129940260Y-117641000D01*
X129647740Y-117641000D01*
X129360842Y-117698068D01*
X129090589Y-117810010D01*
X128847368Y-117972525D01*
X128640525Y-118179368D01*
X128478010Y-118422589D01*
X128366068Y-118692842D01*
X128309000Y-118979740D01*
X128309000Y-119272260D01*
X128366068Y-119559158D01*
X128478010Y-119829411D01*
X128640525Y-120072632D01*
X128847368Y-120279475D01*
X129021760Y-120396000D01*
X128847368Y-120512525D01*
X128640525Y-120719368D01*
X128478010Y-120962589D01*
X128366068Y-121232842D01*
X128309000Y-121519740D01*
X128309000Y-121812260D01*
X128366068Y-122099158D01*
X128478010Y-122369411D01*
X128640525Y-122612632D01*
X128847368Y-122819475D01*
X129021760Y-122936000D01*
X128847368Y-123052525D01*
X128640525Y-123259368D01*
X128478010Y-123502589D01*
X128366068Y-123772842D01*
X128309000Y-124059740D01*
X128309000Y-124352260D01*
X128366068Y-124639158D01*
X128478010Y-124909411D01*
X128640525Y-125152632D01*
X128847368Y-125359475D01*
X129029534Y-125481195D01*
X128912645Y-125550822D01*
X128696412Y-125745731D01*
X128522359Y-125979080D01*
X128397175Y-126241901D01*
X128352524Y-126389110D01*
X128473845Y-126619000D01*
X129667000Y-126619000D01*
X129667000Y-126599000D01*
X129921000Y-126599000D01*
X129921000Y-126619000D01*
X131114155Y-126619000D01*
X131235476Y-126389110D01*
X131190825Y-126241901D01*
X131065641Y-125979080D01*
X130891588Y-125745731D01*
X130675355Y-125550822D01*
X130558466Y-125481195D01*
X130740632Y-125359475D01*
X130947475Y-125152632D01*
X131109990Y-124909411D01*
X131221932Y-124639158D01*
X131279000Y-124352260D01*
X131279000Y-124059740D01*
X131235209Y-123839592D01*
X132464004Y-122610798D01*
X132493001Y-122587001D01*
X132525751Y-122547095D01*
X132587974Y-122471277D01*
X132658546Y-122339247D01*
X132659078Y-122337492D01*
X132702003Y-122195986D01*
X132713000Y-122084333D01*
X132713000Y-122084324D01*
X132716676Y-122047001D01*
X132713000Y-122009678D01*
X132713000Y-116750322D01*
X132716676Y-116712999D01*
X132713000Y-116675676D01*
X132713000Y-116675667D01*
X132702003Y-116564014D01*
X132658546Y-116420753D01*
X132587974Y-116288724D01*
X132493001Y-116172999D01*
X132464003Y-116149201D01*
X131176641Y-114861839D01*
X131180072Y-114827000D01*
X131180072Y-114027000D01*
X131163008Y-113853746D01*
X131112472Y-113687150D01*
X131075511Y-113618000D01*
X132261928Y-113618000D01*
X132274188Y-113742482D01*
X132310498Y-113862180D01*
X132369463Y-113972494D01*
X132448815Y-114069185D01*
X132545506Y-114148537D01*
X132655820Y-114207502D01*
X132775518Y-114243812D01*
X132900000Y-114256072D01*
X133064250Y-114253000D01*
X133223000Y-114094250D01*
X133223000Y-113345000D01*
X133477000Y-113345000D01*
X133477000Y-114094250D01*
X133635750Y-114253000D01*
X133800000Y-114256072D01*
X133924482Y-114243812D01*
X134044180Y-114207502D01*
X134154494Y-114148537D01*
X134251185Y-114069185D01*
X134330537Y-113972494D01*
X134389502Y-113862180D01*
X134425812Y-113742482D01*
X134438072Y-113618000D01*
X134435000Y-113503750D01*
X134276250Y-113345000D01*
X133477000Y-113345000D01*
X133223000Y-113345000D01*
X132423750Y-113345000D01*
X132265000Y-113503750D01*
X132261928Y-113618000D01*
X131075511Y-113618000D01*
X131030405Y-113533614D01*
X130919962Y-113399038D01*
X130785386Y-113288595D01*
X130631850Y-113206528D01*
X130465254Y-113155992D01*
X130292000Y-113138928D01*
X129042000Y-113138928D01*
X128868746Y-113155992D01*
X128702150Y-113206528D01*
X128548614Y-113288595D01*
X128414038Y-113399038D01*
X128303595Y-113533614D01*
X128221528Y-113687150D01*
X128170992Y-113853746D01*
X128153928Y-114027000D01*
X119659000Y-114027000D01*
X119659000Y-110927000D01*
X128153928Y-110927000D01*
X128153928Y-111727000D01*
X128170992Y-111900254D01*
X128221528Y-112066850D01*
X128303595Y-112220386D01*
X128414038Y-112354962D01*
X128548614Y-112465405D01*
X128702150Y-112547472D01*
X128868746Y-112598008D01*
X129042000Y-112615072D01*
X130292000Y-112615072D01*
X130465254Y-112598008D01*
X130631850Y-112547472D01*
X130785386Y-112465405D01*
X130919962Y-112354962D01*
X131030405Y-112220386D01*
X131101702Y-112087000D01*
X132381368Y-112087000D01*
X132448815Y-112169185D01*
X132545506Y-112248537D01*
X132581918Y-112268000D01*
X132545506Y-112287463D01*
X132448815Y-112366815D01*
X132369463Y-112463506D01*
X132310498Y-112573820D01*
X132274188Y-112693518D01*
X132261928Y-112818000D01*
X132265000Y-112932250D01*
X132423750Y-113091000D01*
X133223000Y-113091000D01*
X133223000Y-113071000D01*
X133477000Y-113071000D01*
X133477000Y-113091000D01*
X134276250Y-113091000D01*
X134360857Y-113006393D01*
X134369463Y-113022494D01*
X134448815Y-113119185D01*
X134545506Y-113198537D01*
X134655820Y-113257502D01*
X134775518Y-113293812D01*
X134900000Y-113306072D01*
X135800000Y-113306072D01*
X135924482Y-113293812D01*
X136044180Y-113257502D01*
X136154494Y-113198537D01*
X136251185Y-113119185D01*
X136326018Y-113028000D01*
X146367388Y-113028000D01*
X146455614Y-113100405D01*
X146609150Y-113182472D01*
X146775746Y-113233008D01*
X146949000Y-113250072D01*
X148199000Y-113250072D01*
X148372254Y-113233008D01*
X148538850Y-113182472D01*
X148692386Y-113100405D01*
X148826962Y-112989962D01*
X148937405Y-112855386D01*
X149008702Y-112722000D01*
X157038199Y-112722000D01*
X157684859Y-113368661D01*
X157681428Y-113403500D01*
X157681428Y-114203500D01*
X157698492Y-114376754D01*
X157749028Y-114543350D01*
X157831095Y-114696886D01*
X157941538Y-114831462D01*
X158076114Y-114941905D01*
X158229650Y-115023972D01*
X158396246Y-115074508D01*
X158569500Y-115091572D01*
X159407771Y-115091572D01*
X159943876Y-115627678D01*
X159819500Y-115615428D01*
X158569500Y-115615428D01*
X158396246Y-115632492D01*
X158229650Y-115683028D01*
X158076114Y-115765095D01*
X157941538Y-115875538D01*
X157831095Y-116010114D01*
X157749028Y-116163650D01*
X157698492Y-116330246D01*
X157681428Y-116503500D01*
X157681428Y-117303500D01*
X157698492Y-117476754D01*
X157749028Y-117643350D01*
X157831095Y-117796886D01*
X157941538Y-117931462D01*
X158076114Y-118041905D01*
X158229650Y-118123972D01*
X158396246Y-118174508D01*
X158434500Y-118178276D01*
X158434501Y-123744015D01*
X158424180Y-123738498D01*
X158304482Y-123702188D01*
X158180000Y-123689928D01*
X157761729Y-123689928D01*
X157605000Y-123533199D01*
X157605000Y-120853888D01*
X157613387Y-120849405D01*
X157747962Y-120738962D01*
X157858405Y-120604387D01*
X157940472Y-120450851D01*
X157991008Y-120284255D01*
X158008072Y-120111001D01*
X158008072Y-119410999D01*
X157991008Y-119237745D01*
X157940472Y-119071149D01*
X157858405Y-118917613D01*
X157747962Y-118783038D01*
X157613387Y-118672595D01*
X157459851Y-118590528D01*
X157293255Y-118539992D01*
X157120001Y-118522928D01*
X156569999Y-118522928D01*
X156396745Y-118539992D01*
X156230149Y-118590528D01*
X156076613Y-118672595D01*
X155942038Y-118783038D01*
X155831595Y-118917613D01*
X155749528Y-119071149D01*
X155707599Y-119209371D01*
X155708072Y-119161000D01*
X155695812Y-119036518D01*
X155659502Y-118916820D01*
X155600537Y-118806506D01*
X155521185Y-118709815D01*
X155424494Y-118630463D01*
X155314180Y-118571498D01*
X155194482Y-118535188D01*
X155070000Y-118522928D01*
X154830750Y-118526000D01*
X154672000Y-118684750D01*
X154672000Y-119634000D01*
X154692000Y-119634000D01*
X154692000Y-119888000D01*
X154672000Y-119888000D01*
X154672000Y-120837250D01*
X154830750Y-120996000D01*
X155070000Y-120999072D01*
X155194482Y-120986812D01*
X155314180Y-120950502D01*
X155424494Y-120891537D01*
X155521185Y-120812185D01*
X155600537Y-120715494D01*
X155659502Y-120605180D01*
X155695812Y-120485482D01*
X155708072Y-120361000D01*
X155707599Y-120312629D01*
X155749528Y-120450851D01*
X155831595Y-120604387D01*
X155942038Y-120738962D01*
X156076613Y-120849405D01*
X156085000Y-120853888D01*
X156085001Y-123810668D01*
X156081324Y-123848000D01*
X156085001Y-123885333D01*
X156095335Y-123990249D01*
X156095998Y-123996985D01*
X156139454Y-124140246D01*
X156210026Y-124272276D01*
X156248776Y-124319492D01*
X156305000Y-124388001D01*
X156333998Y-124411799D01*
X156481928Y-124559729D01*
X156481928Y-124978000D01*
X156494188Y-125102482D01*
X156501929Y-125128000D01*
X156494188Y-125153518D01*
X156481928Y-125278000D01*
X156485000Y-125317250D01*
X156643750Y-125476000D01*
X156725859Y-125476000D01*
X156765506Y-125508537D01*
X156875820Y-125567502D01*
X156992841Y-125603000D01*
X156875820Y-125638498D01*
X156765506Y-125697463D01*
X156725859Y-125730000D01*
X156643750Y-125730000D01*
X156485000Y-125888750D01*
X156481928Y-125928000D01*
X156494188Y-126052482D01*
X156501929Y-126078000D01*
X156494188Y-126103518D01*
X156481928Y-126228000D01*
X156481928Y-126646271D01*
X156253199Y-126875000D01*
X155517384Y-126875000D01*
X155439405Y-126729113D01*
X155328962Y-126594538D01*
X155194387Y-126484095D01*
X155040851Y-126402028D01*
X154874255Y-126351492D01*
X154701001Y-126334428D01*
X153825229Y-126334428D01*
X153725803Y-126235002D01*
X153702001Y-126205999D01*
X153586276Y-126111026D01*
X153454247Y-126040454D01*
X153310986Y-125996997D01*
X153199333Y-125986000D01*
X153199322Y-125986000D01*
X153162000Y-125982324D01*
X153124678Y-125986000D01*
X148852178Y-125986000D01*
X148727475Y-125799368D01*
X148531107Y-125603000D01*
X149479000Y-125603000D01*
X149643352Y-125581362D01*
X149706852Y-125564347D01*
X149785504Y-125537649D01*
X149895287Y-125478968D01*
X149991513Y-125399998D01*
X150037998Y-125353513D01*
X150092763Y-125291065D01*
X150158498Y-125185355D01*
X150163336Y-125172500D01*
X152512928Y-125172500D01*
X152525188Y-125296982D01*
X152561498Y-125416680D01*
X152620463Y-125526994D01*
X152699815Y-125623685D01*
X152796506Y-125703037D01*
X152906820Y-125762002D01*
X153026518Y-125798312D01*
X153151000Y-125810572D01*
X153765250Y-125807500D01*
X153924000Y-125648750D01*
X153924000Y-124637000D01*
X154178000Y-124637000D01*
X154178000Y-125648750D01*
X154336750Y-125807500D01*
X154951000Y-125810572D01*
X155075482Y-125798312D01*
X155195180Y-125762002D01*
X155305494Y-125703037D01*
X155402185Y-125623685D01*
X155481537Y-125526994D01*
X155540502Y-125416680D01*
X155576812Y-125296982D01*
X155589072Y-125172500D01*
X155586000Y-124795750D01*
X155427250Y-124637000D01*
X154178000Y-124637000D01*
X153924000Y-124637000D01*
X152674750Y-124637000D01*
X152516000Y-124795750D01*
X152512928Y-125172500D01*
X150163336Y-125172500D01*
X150202347Y-125068852D01*
X150219362Y-125005352D01*
X150241000Y-124841000D01*
X150241000Y-123847500D01*
X152512928Y-123847500D01*
X152516000Y-124224250D01*
X152674750Y-124383000D01*
X153924000Y-124383000D01*
X153924000Y-123371250D01*
X154178000Y-123371250D01*
X154178000Y-124383000D01*
X155427250Y-124383000D01*
X155586000Y-124224250D01*
X155589072Y-123847500D01*
X155576812Y-123723018D01*
X155540502Y-123603320D01*
X155481537Y-123493006D01*
X155402185Y-123396315D01*
X155305494Y-123316963D01*
X155195180Y-123257998D01*
X155075482Y-123221688D01*
X154951000Y-123209428D01*
X154336750Y-123212500D01*
X154178000Y-123371250D01*
X153924000Y-123371250D01*
X153765250Y-123212500D01*
X153151000Y-123209428D01*
X153026518Y-123221688D01*
X152906820Y-123257998D01*
X152796506Y-123316963D01*
X152699815Y-123396315D01*
X152620463Y-123493006D01*
X152561498Y-123603320D01*
X152525188Y-123723018D01*
X152512928Y-123847500D01*
X150241000Y-123847500D01*
X150241000Y-120361000D01*
X153381928Y-120361000D01*
X153394188Y-120485482D01*
X153430498Y-120605180D01*
X153489463Y-120715494D01*
X153568815Y-120812185D01*
X153665506Y-120891537D01*
X153775820Y-120950502D01*
X153895518Y-120986812D01*
X154020000Y-120999072D01*
X154259250Y-120996000D01*
X154418000Y-120837250D01*
X154418000Y-119888000D01*
X153543750Y-119888000D01*
X153385000Y-120046750D01*
X153381928Y-120361000D01*
X150241000Y-120361000D01*
X150241000Y-119161000D01*
X153381928Y-119161000D01*
X153385000Y-119475250D01*
X153543750Y-119634000D01*
X154418000Y-119634000D01*
X154418000Y-118684750D01*
X154259250Y-118526000D01*
X154020000Y-118522928D01*
X153895518Y-118535188D01*
X153775820Y-118571498D01*
X153665506Y-118630463D01*
X153568815Y-118709815D01*
X153489463Y-118806506D01*
X153430498Y-118916820D01*
X153394188Y-119036518D01*
X153381928Y-119161000D01*
X150241000Y-119161000D01*
X150241000Y-117221000D01*
X150219362Y-117056648D01*
X150202347Y-116993148D01*
X150175649Y-116914496D01*
X150116968Y-116804713D01*
X150037998Y-116708487D01*
X149991513Y-116662002D01*
X149929065Y-116607237D01*
X149823355Y-116541502D01*
X149706852Y-116497653D01*
X149643352Y-116480638D01*
X149479000Y-116459000D01*
X148334000Y-116459000D01*
X148334000Y-116336776D01*
X148372254Y-116333008D01*
X148538850Y-116282472D01*
X148692386Y-116200405D01*
X148826962Y-116089962D01*
X148937405Y-115955386D01*
X149019472Y-115801850D01*
X149070008Y-115635254D01*
X149087072Y-115462000D01*
X149087072Y-114662000D01*
X149070008Y-114488746D01*
X149019472Y-114322150D01*
X148937405Y-114168614D01*
X148826962Y-114034038D01*
X148692386Y-113923595D01*
X148538850Y-113841528D01*
X148372254Y-113790992D01*
X148199000Y-113773928D01*
X146949000Y-113773928D01*
X146775746Y-113790992D01*
X146609150Y-113841528D01*
X146455614Y-113923595D01*
X146321038Y-114034038D01*
X146210595Y-114168614D01*
X146128528Y-114322150D01*
X146077992Y-114488746D01*
X146060928Y-114662000D01*
X146060928Y-115462000D01*
X146077992Y-115635254D01*
X146128528Y-115801850D01*
X146210595Y-115955386D01*
X146321038Y-116089962D01*
X146455614Y-116200405D01*
X146609150Y-116282472D01*
X146775746Y-116333008D01*
X146814001Y-116336776D01*
X146814001Y-116459000D01*
X145051095Y-116459000D01*
X144873936Y-116484213D01*
X144805887Y-116503983D01*
X144703693Y-116543518D01*
X144597810Y-116608974D01*
X144506732Y-116693830D01*
X144459869Y-116746984D01*
X144361623Y-116896543D01*
X142535525Y-120777000D01*
X134747000Y-120777000D01*
X134582648Y-120798638D01*
X134519148Y-120815653D01*
X134440496Y-120842351D01*
X134330713Y-120901032D01*
X134234487Y-120980002D01*
X134188002Y-121026487D01*
X134133237Y-121088935D01*
X134067502Y-121194645D01*
X134023653Y-121311148D01*
X134006638Y-121374648D01*
X133985000Y-121539000D01*
X133985000Y-124841000D01*
X134006638Y-125005352D01*
X134023653Y-125068852D01*
X134050351Y-125147504D01*
X134109032Y-125257287D01*
X134188002Y-125353513D01*
X134234487Y-125399998D01*
X134296935Y-125454763D01*
X134402645Y-125520498D01*
X134519148Y-125564347D01*
X134582648Y-125581362D01*
X134747000Y-125603000D01*
X135082536Y-125603000D01*
X135046815Y-125632315D01*
X134967463Y-125729006D01*
X134908498Y-125839320D01*
X134872188Y-125959018D01*
X134859928Y-126083500D01*
X134863000Y-126460250D01*
X135021750Y-126619000D01*
X136271000Y-126619000D01*
X136271000Y-126599000D01*
X136525000Y-126599000D01*
X136525000Y-126619000D01*
X137774250Y-126619000D01*
X137933000Y-126460250D01*
X137936072Y-126083500D01*
X137923812Y-125959018D01*
X137887502Y-125839320D01*
X137828537Y-125729006D01*
X137749185Y-125632315D01*
X137713464Y-125603000D01*
X140019949Y-125603000D01*
X139969506Y-125629963D01*
X139872815Y-125709315D01*
X139793463Y-125806006D01*
X139734498Y-125916320D01*
X139698188Y-126036018D01*
X139685928Y-126160500D01*
X139689000Y-126537250D01*
X139847750Y-126696000D01*
X141097000Y-126696000D01*
X141097000Y-126676000D01*
X141351000Y-126676000D01*
X141351000Y-126696000D01*
X142600250Y-126696000D01*
X142759000Y-126537250D01*
X142762072Y-126160500D01*
X142749812Y-126036018D01*
X142713502Y-125916320D01*
X142654537Y-125806006D01*
X142575185Y-125709315D01*
X142478494Y-125629963D01*
X142428051Y-125603000D01*
X146616893Y-125603000D01*
X146420525Y-125799368D01*
X146258010Y-126042589D01*
X146146068Y-126312842D01*
X146089000Y-126599740D01*
X146089000Y-126892260D01*
X146146068Y-127179158D01*
X146258010Y-127449411D01*
X146420525Y-127692632D01*
X146627368Y-127899475D01*
X146801760Y-128016000D01*
X146627368Y-128132525D01*
X146420525Y-128339368D01*
X146258010Y-128582589D01*
X146146068Y-128852842D01*
X146089000Y-129139740D01*
X146089000Y-129432260D01*
X146146068Y-129719158D01*
X146258010Y-129989411D01*
X146420525Y-130232632D01*
X146552380Y-130364487D01*
X146479820Y-130386498D01*
X146369506Y-130445463D01*
X146272815Y-130524815D01*
X146193463Y-130621506D01*
X146134498Y-130731820D01*
X146098188Y-130851518D01*
X146085928Y-130976000D01*
X146085928Y-132676000D01*
X146098188Y-132800482D01*
X146134498Y-132920180D01*
X146193463Y-133030494D01*
X146272815Y-133127185D01*
X146369506Y-133206537D01*
X146479820Y-133265502D01*
X146599518Y-133301812D01*
X146724000Y-133314072D01*
X148424000Y-133314072D01*
X148548482Y-133301812D01*
X148668180Y-133265502D01*
X148778494Y-133206537D01*
X148875185Y-133127185D01*
X148954537Y-133030494D01*
X149013502Y-132920180D01*
X149049812Y-132800482D01*
X149062072Y-132676000D01*
X149062072Y-130976000D01*
X149049812Y-130851518D01*
X149013502Y-130731820D01*
X148954537Y-130621506D01*
X148875185Y-130524815D01*
X148778494Y-130445463D01*
X148668180Y-130386498D01*
X148595620Y-130364487D01*
X148727475Y-130232632D01*
X148889990Y-129989411D01*
X149001932Y-129719158D01*
X149059000Y-129432260D01*
X149059000Y-129139740D01*
X149001932Y-128852842D01*
X148889990Y-128582589D01*
X148727475Y-128339368D01*
X148520632Y-128132525D01*
X148346240Y-128016000D01*
X148520632Y-127899475D01*
X148727475Y-127692632D01*
X148852178Y-127506000D01*
X152512928Y-127506000D01*
X152512928Y-128047501D01*
X152529992Y-128220755D01*
X152580528Y-128387351D01*
X152662595Y-128540887D01*
X152773038Y-128675462D01*
X152907613Y-128785905D01*
X153061149Y-128867972D01*
X153227745Y-128918508D01*
X153400999Y-128935572D01*
X154701001Y-128935572D01*
X154874255Y-128918508D01*
X155040851Y-128867972D01*
X155194387Y-128785905D01*
X155328962Y-128675462D01*
X155439405Y-128540887D01*
X155517384Y-128395000D01*
X156530678Y-128395000D01*
X156568000Y-128398676D01*
X156605322Y-128395000D01*
X156605333Y-128395000D01*
X156716986Y-128384003D01*
X156860247Y-128340546D01*
X156992276Y-128269974D01*
X157108001Y-128175001D01*
X157131804Y-128145998D01*
X157745001Y-127532800D01*
X157745001Y-128377197D01*
X157734718Y-128387480D01*
X157688501Y-128382928D01*
X156863499Y-128382928D01*
X156690245Y-128399992D01*
X156523649Y-128450528D01*
X156370113Y-128532595D01*
X156235538Y-128643038D01*
X156125095Y-128777613D01*
X156043028Y-128931149D01*
X155992492Y-129097745D01*
X155975428Y-129270999D01*
X155975428Y-130571001D01*
X155992492Y-130744255D01*
X156043028Y-130910851D01*
X156125095Y-131064387D01*
X156235538Y-131198962D01*
X156370113Y-131309405D01*
X156523649Y-131391472D01*
X156690245Y-131442008D01*
X156863499Y-131459072D01*
X157294001Y-131459072D01*
X157294000Y-131654532D01*
X157277815Y-131667815D01*
X157198463Y-131764506D01*
X157139498Y-131874820D01*
X157103188Y-131994518D01*
X157090928Y-132119000D01*
X157090928Y-132331242D01*
X157027387Y-132279095D01*
X156873851Y-132197028D01*
X156707255Y-132146492D01*
X156534001Y-132129428D01*
X155708999Y-132129428D01*
X155535745Y-132146492D01*
X155369149Y-132197028D01*
X155215613Y-132279095D01*
X155081038Y-132389538D01*
X154970595Y-132524113D01*
X154888528Y-132677649D01*
X154837992Y-132844245D01*
X154820928Y-133017499D01*
X154820928Y-134317501D01*
X154837992Y-134490755D01*
X154888528Y-134657351D01*
X154970595Y-134810887D01*
X155081038Y-134945462D01*
X155215613Y-135055905D01*
X155369149Y-135137972D01*
X155535745Y-135188508D01*
X155708999Y-135205572D01*
X155880505Y-135205572D01*
X155821903Y-135405298D01*
X156635000Y-136218395D01*
X157448097Y-135405298D01*
X157376514Y-135161329D01*
X157121004Y-135040429D01*
X157063736Y-135026074D01*
X157161962Y-134945462D01*
X157272405Y-134810887D01*
X157354472Y-134657351D01*
X157405008Y-134490755D01*
X157411238Y-134427500D01*
X157547448Y-134427500D01*
X157604518Y-134444812D01*
X157729000Y-134457072D01*
X158379000Y-134457072D01*
X158503482Y-134444812D01*
X158623180Y-134408502D01*
X158733494Y-134349537D01*
X158830185Y-134270185D01*
X158909537Y-134173494D01*
X158968502Y-134063180D01*
X159004715Y-133943801D01*
X159006454Y-133958902D01*
X159045710Y-134077666D01*
X159107381Y-134186490D01*
X159189097Y-134281192D01*
X159287719Y-134358132D01*
X159399456Y-134414353D01*
X159520014Y-134447695D01*
X159644761Y-134456877D01*
X159668250Y-134454000D01*
X159827000Y-134295250D01*
X159827000Y-133692000D01*
X159807000Y-133692000D01*
X159807000Y-133665250D01*
X159827000Y-133645250D01*
X159827000Y-133472000D01*
X160081000Y-133472000D01*
X160081000Y-133645250D01*
X160127750Y-133692000D01*
X160081000Y-133692000D01*
X160081000Y-134295250D01*
X160239750Y-134454000D01*
X160263239Y-134456877D01*
X160387986Y-134447695D01*
X160508544Y-134414353D01*
X160620281Y-134358132D01*
X160718903Y-134281192D01*
X160800619Y-134186490D01*
X160862290Y-134077666D01*
X160901546Y-133958902D01*
X160914000Y-133850750D01*
X160755250Y-133692000D01*
X160640959Y-133692000D01*
X160718903Y-133631192D01*
X160800619Y-133536490D01*
X160847519Y-133453731D01*
X160914000Y-133387250D01*
X160903262Y-133294000D01*
X160914000Y-133200750D01*
X160847519Y-133134269D01*
X160800619Y-133051510D01*
X160730312Y-132970030D01*
X160809537Y-132873494D01*
X160846032Y-132805218D01*
X160914000Y-132737250D01*
X160903645Y-132647328D01*
X160904812Y-132643482D01*
X160917072Y-132519000D01*
X160917072Y-132119000D01*
X160904812Y-131994518D01*
X160868502Y-131874820D01*
X160809537Y-131764506D01*
X160730185Y-131667815D01*
X160714000Y-131654532D01*
X160714000Y-131459072D01*
X160813501Y-131459072D01*
X160986755Y-131442008D01*
X161153351Y-131391472D01*
X161306887Y-131309405D01*
X161441462Y-131198962D01*
X161551905Y-131064387D01*
X161633972Y-130910851D01*
X161684508Y-130744255D01*
X161701572Y-130571001D01*
X161701572Y-129390500D01*
X161910928Y-129390500D01*
X161923188Y-129514982D01*
X161959498Y-129634680D01*
X162018463Y-129744994D01*
X162097815Y-129841685D01*
X162194506Y-129921037D01*
X162304820Y-129980002D01*
X162424518Y-130016312D01*
X162549000Y-130028572D01*
X163163250Y-130025500D01*
X163322000Y-129866750D01*
X163322000Y-128855000D01*
X163576000Y-128855000D01*
X163576000Y-129866750D01*
X163734750Y-130025500D01*
X164349000Y-130028572D01*
X164473482Y-130016312D01*
X164593180Y-129980002D01*
X164703494Y-129921037D01*
X164800185Y-129841685D01*
X164879537Y-129744994D01*
X164938502Y-129634680D01*
X164974812Y-129514982D01*
X164987072Y-129390500D01*
X164984000Y-129013750D01*
X164825250Y-128855000D01*
X163576000Y-128855000D01*
X163322000Y-128855000D01*
X162072750Y-128855000D01*
X161914000Y-129013750D01*
X161910928Y-129390500D01*
X161701572Y-129390500D01*
X161701572Y-129270999D01*
X161684508Y-129097745D01*
X161633972Y-128931149D01*
X161551905Y-128777613D01*
X161441462Y-128643038D01*
X161306887Y-128532595D01*
X161153351Y-128450528D01*
X160986755Y-128399992D01*
X160813501Y-128382928D01*
X159988499Y-128382928D01*
X159815245Y-128399992D01*
X159648649Y-128450528D01*
X159495113Y-128532595D01*
X159360538Y-128643038D01*
X159261630Y-128763558D01*
X159265001Y-128729332D01*
X159265001Y-128729322D01*
X159268677Y-128691999D01*
X159265001Y-128654676D01*
X159265001Y-128065500D01*
X161910928Y-128065500D01*
X161914000Y-128442250D01*
X162072750Y-128601000D01*
X163322000Y-128601000D01*
X163322000Y-127589250D01*
X163576000Y-127589250D01*
X163576000Y-128601000D01*
X164825250Y-128601000D01*
X164984000Y-128442250D01*
X164987072Y-128065500D01*
X164974812Y-127941018D01*
X164938502Y-127821320D01*
X164879537Y-127711006D01*
X164800185Y-127614315D01*
X164703494Y-127534963D01*
X164593180Y-127475998D01*
X164473482Y-127439688D01*
X164349000Y-127427428D01*
X163734750Y-127430500D01*
X163576000Y-127589250D01*
X163322000Y-127589250D01*
X163163250Y-127430500D01*
X162549000Y-127427428D01*
X162424518Y-127439688D01*
X162304820Y-127475998D01*
X162194506Y-127534963D01*
X162097815Y-127614315D01*
X162018463Y-127711006D01*
X161959498Y-127821320D01*
X161923188Y-127941018D01*
X161910928Y-128065500D01*
X159265001Y-128065500D01*
X159265001Y-127510655D01*
X159320000Y-127516072D01*
X160380000Y-127516072D01*
X160504482Y-127503812D01*
X160624180Y-127467502D01*
X160734494Y-127408537D01*
X160831185Y-127329185D01*
X160910537Y-127232494D01*
X160969502Y-127122180D01*
X161005812Y-127002482D01*
X161010236Y-126957568D01*
X161914638Y-126053166D01*
X161927992Y-126188755D01*
X161978528Y-126355351D01*
X162060595Y-126508887D01*
X162171038Y-126643462D01*
X162305613Y-126753905D01*
X162459149Y-126835972D01*
X162625745Y-126886508D01*
X162798999Y-126903572D01*
X164099001Y-126903572D01*
X164272255Y-126886508D01*
X164438851Y-126835972D01*
X164592387Y-126753905D01*
X164726962Y-126643462D01*
X164837405Y-126508887D01*
X164919472Y-126355351D01*
X164970008Y-126188755D01*
X164987072Y-126015501D01*
X164987072Y-125190499D01*
X164982064Y-125139656D01*
X165029984Y-125081266D01*
X165100556Y-124949237D01*
X165144013Y-124805976D01*
X165155010Y-124694323D01*
X165155010Y-124694314D01*
X165158686Y-124656991D01*
X165155010Y-124619668D01*
X165155010Y-115104332D01*
X165158686Y-115067009D01*
X165155010Y-115029686D01*
X165155010Y-115029677D01*
X165144013Y-114918024D01*
X165100556Y-114774763D01*
X165029984Y-114642734D01*
X165016821Y-114626695D01*
X164958809Y-114556006D01*
X164958805Y-114556002D01*
X164935011Y-114527009D01*
X164906018Y-114503215D01*
X164704641Y-114301838D01*
X164708072Y-114267000D01*
X164708072Y-113467000D01*
X164691008Y-113293746D01*
X164640472Y-113127150D01*
X164558405Y-112973614D01*
X164447962Y-112839038D01*
X164313386Y-112728595D01*
X164159850Y-112646528D01*
X163993254Y-112595992D01*
X163820000Y-112578928D01*
X162570000Y-112578928D01*
X162396746Y-112595992D01*
X162230150Y-112646528D01*
X162076614Y-112728595D01*
X161942038Y-112839038D01*
X161831595Y-112973614D01*
X161794240Y-113043500D01*
X160629202Y-113043500D01*
X160557905Y-112910114D01*
X160447462Y-112775538D01*
X160312886Y-112665095D01*
X160159350Y-112583028D01*
X159992754Y-112532492D01*
X159819500Y-112515428D01*
X158981230Y-112515428D01*
X157916804Y-111451003D01*
X157893001Y-111421999D01*
X157777276Y-111327026D01*
X157645247Y-111256454D01*
X157501986Y-111212997D01*
X157390333Y-111202000D01*
X157390322Y-111202000D01*
X157353000Y-111198324D01*
X157315678Y-111202000D01*
X149008702Y-111202000D01*
X148937405Y-111068614D01*
X148826962Y-110934038D01*
X148692386Y-110823595D01*
X148538850Y-110741528D01*
X148372254Y-110690992D01*
X148199000Y-110673928D01*
X146949000Y-110673928D01*
X146775746Y-110690992D01*
X146609150Y-110741528D01*
X146455614Y-110823595D01*
X146321038Y-110934038D01*
X146210595Y-111068614D01*
X146128528Y-111222150D01*
X146077992Y-111388746D01*
X146066247Y-111508000D01*
X136326018Y-111508000D01*
X136251185Y-111416815D01*
X136154494Y-111337463D01*
X136044180Y-111278498D01*
X135924482Y-111242188D01*
X135800000Y-111229928D01*
X134900000Y-111229928D01*
X134775518Y-111242188D01*
X134655820Y-111278498D01*
X134545506Y-111337463D01*
X134448815Y-111416815D01*
X134438072Y-111429905D01*
X134438072Y-110918000D01*
X134425812Y-110793518D01*
X134389502Y-110673820D01*
X134330537Y-110563506D01*
X134251185Y-110466815D01*
X134154494Y-110387463D01*
X134044180Y-110328498D01*
X133924482Y-110292188D01*
X133800000Y-110279928D01*
X132900000Y-110279928D01*
X132775518Y-110292188D01*
X132655820Y-110328498D01*
X132545506Y-110387463D01*
X132448815Y-110466815D01*
X132369463Y-110563506D01*
X132367595Y-110567000D01*
X131101702Y-110567000D01*
X131030405Y-110433614D01*
X130919962Y-110299038D01*
X130785386Y-110188595D01*
X130631850Y-110106528D01*
X130465254Y-110055992D01*
X130292000Y-110038928D01*
X129042000Y-110038928D01*
X128868746Y-110055992D01*
X128702150Y-110106528D01*
X128548614Y-110188595D01*
X128414038Y-110299038D01*
X128303595Y-110433614D01*
X128221528Y-110587150D01*
X128170992Y-110753746D01*
X128153928Y-110927000D01*
X119659000Y-110927000D01*
X119659000Y-107213000D01*
X169266000Y-107213000D01*
X169266001Y-145009000D01*
G37*
%TD.AperFunction*%
%TD*%
M02*
