M48
; DRILL file {KiCad (5.1.9)-1} date 05/19/21 15:00:33
; FORMAT={-:-/ absolute / inch / decimal}
; #@! TF.CreationDate,2021-05-19T15:00:33-04:00
; #@! TF.GenerationSoftware,Kicad,Pcbnew,(5.1.9)-1
; #@! TF.FileFunction,Plated,1,2,PTH
FMAT,2
INCH
T1C0.0157
T2C0.0236
T3C0.0394
%
G90
G05
T1
X4.74Y-4.25
X4.74Y-4.35
X4.74Y-4.45
X4.74Y-4.55
X4.74Y-4.65
X4.74Y-4.75
X4.74Y-4.85
X4.74Y-4.95
X4.74Y-5.05
X4.74Y-5.15
X4.74Y-5.25
X4.84Y-4.3
X4.84Y-4.4
X4.84Y-4.5
X4.84Y-4.6
X4.84Y-4.7
X4.84Y-4.8
X4.84Y-4.9
X4.84Y-5.0
X4.84Y-5.1
X4.84Y-5.2
X4.94Y-4.25
X4.94Y-4.35
X4.94Y-4.45
X4.94Y-4.55
X4.94Y-4.65
X4.94Y-4.75
X4.94Y-4.85
X4.94Y-4.95
X4.94Y-5.05
X4.94Y-5.15
X4.94Y-5.25
X5.04Y-4.3
X5.14Y-4.25
X5.24Y-4.3
X5.25Y-4.5175
X5.25Y-4.6175
X5.25Y-4.7175
X5.25Y-4.8175
X5.25Y-4.9175
X5.25Y-5.0175
X5.25Y-5.1175
X5.25Y-5.2175
X5.34Y-4.25
X5.35Y-4.5675
X5.35Y-4.6675
X5.35Y-4.73
X5.35Y-5.0675
X5.35Y-5.1675
X5.44Y-4.3
X5.45Y-4.5175
X5.45Y-4.6175
X5.45Y-4.7175
X5.45Y-5.1175
X5.45Y-5.2175
X5.46Y-4.99
X5.54Y-4.25
X5.55Y-4.5675
X5.55Y-4.6675
X5.55Y-4.73
X5.55Y-5.0675
X5.55Y-5.1675
X5.64Y-4.3
X5.65Y-4.5175
X5.65Y-4.6175
X5.65Y-5.0175
X5.65Y-5.0175
X5.65Y-5.1175
X5.65Y-5.2175
X5.72Y-4.96
X5.72Y-5.07
X5.72Y-5.17
X5.74Y-4.25
X5.84Y-4.3
X5.94Y-4.25
X5.94Y-4.45
X5.94Y-4.55
X5.94Y-4.65
X5.94Y-4.75
X5.94Y-4.85
X5.94Y-4.95
X5.94Y-5.05
X5.94Y-5.15
X5.94Y-5.25
X5.94Y-5.31
X5.94Y-5.4
X5.94Y-5.5
X5.94Y-5.6
X5.94Y-5.69
X6.04Y-4.3
X6.04Y-4.5
X6.04Y-4.6
X6.04Y-5.1
X6.04Y-5.18
X6.04Y-5.69
X6.085Y-4.8
X6.14Y-4.25
X6.14Y-4.55
X6.14Y-5.18
X6.14Y-5.69
X6.145Y-4.945
X6.24Y-4.3
X6.24Y-5.31
X6.24Y-5.4
X6.24Y-5.5
X6.24Y-5.6
X6.24Y-5.69
X6.34Y-4.25
X6.34Y-4.35
X6.34Y-5.35
X6.34Y-5.45
X6.34Y-5.55
X6.34Y-5.65
X6.355Y-5.2325
X6.4375Y-5.135
X6.44Y-4.3
X6.44Y-4.4
X6.44Y-5.2
X6.44Y-5.3
X6.44Y-5.4
X6.44Y-5.5
X6.44Y-5.6
X6.54Y-4.25
X6.54Y-4.35
X6.54Y-4.45
X6.54Y-4.55
X6.54Y-4.65
X6.54Y-4.75
X6.54Y-4.85
X6.54Y-4.95
X6.54Y-5.05
X6.54Y-5.15
X6.54Y-5.25
X6.54Y-5.35
X6.54Y-5.45
X6.54Y-5.55
X6.54Y-5.65
X6.64Y-4.3
X6.64Y-4.4
X6.64Y-4.5
X6.64Y-4.6
X6.64Y-4.7
X6.64Y-4.8
X6.64Y-4.9
X6.64Y-5.0
X6.64Y-5.1
X6.64Y-5.2
X6.64Y-5.3
X6.64Y-5.4
X6.64Y-5.5
X6.64Y-5.6
T2
X6.025Y-5.37
X6.1667Y-5.37
T3
X5.11Y-4.69
X5.11Y-4.79
X5.11Y-4.89
X5.11Y-4.99
X5.11Y-5.09
X5.11Y-5.19
X5.81Y-4.69
X5.81Y-4.79
X5.81Y-4.89
X5.81Y-4.99
X5.81Y-5.09
X5.81Y-5.19
X5.81Y-5.54
X5.81Y-5.64
T0
M30
