%TF.GenerationSoftware,KiCad,Pcbnew,(5.1.9)-1*%
%TF.CreationDate,2021-05-28T16:26:46-04:00*%
%TF.ProjectId,fox_hunt_2m_fm,666f785f-6875-46e7-945f-326d5f666d2e,rev?*%
%TF.SameCoordinates,Original*%
%TF.FileFunction,Copper,L2,Bot*%
%TF.FilePolarity,Positive*%
%FSLAX46Y46*%
G04 Gerber Fmt 4.6, Leading zero omitted, Abs format (unit mm)*
G04 Created by KiCad (PCBNEW (5.1.9)-1) date 2021-05-28 16:26:46*
%MOMM*%
%LPD*%
G01*
G04 APERTURE LIST*
%TA.AperFunction,ComponentPad*%
%ADD10O,1.600000X1.600000*%
%TD*%
%TA.AperFunction,ComponentPad*%
%ADD11R,1.600000X1.600000*%
%TD*%
%TA.AperFunction,ComponentPad*%
%ADD12C,1.600000*%
%TD*%
%TA.AperFunction,ComponentPad*%
%ADD13O,1.700000X1.700000*%
%TD*%
%TA.AperFunction,ComponentPad*%
%ADD14R,1.700000X1.700000*%
%TD*%
%TA.AperFunction,ViaPad*%
%ADD15C,0.800000*%
%TD*%
%TA.AperFunction,Conductor*%
%ADD16C,0.250000*%
%TD*%
%TA.AperFunction,Conductor*%
%ADD17C,0.254000*%
%TD*%
%TA.AperFunction,Conductor*%
%ADD18C,0.100000*%
%TD*%
G04 APERTURE END LIST*
D10*
%TO.P,D1,2*%
%TO.N,Net-(BT1-Pad1)*%
X139630000Y-136000000D03*
D11*
%TO.P,D1,1*%
%TO.N,Net-(D1-Pad1)*%
X147250000Y-136000000D03*
%TD*%
D12*
%TO.P,J4,2*%
%TO.N,GND*%
X156635000Y-136398000D03*
%TO.P,J4,1*%
%TO.N,Net-(C6-Pad1)*%
%TA.AperFunction,ComponentPad*%
G36*
G01*
X152235000Y-136948000D02*
X152235000Y-135848000D01*
G75*
G02*
X152485000Y-135598000I250000J0D01*
G01*
X153585000Y-135598000D01*
G75*
G02*
X153835000Y-135848000I0J-250000D01*
G01*
X153835000Y-136948000D01*
G75*
G02*
X153585000Y-137198000I-250000J0D01*
G01*
X152485000Y-137198000D01*
G75*
G02*
X152235000Y-136948000I0J250000D01*
G01*
G37*
%TD.AperFunction*%
%TD*%
D13*
%TO.P,J3,2*%
%TO.N,Net-(D1-Pad1)*%
X147574000Y-140716000D03*
D14*
%TO.P,J3,1*%
%TO.N,Net-(BT1-Pad2)*%
X147574000Y-143256000D03*
%TD*%
D13*
%TO.P,J2,6*%
%TO.N,Net-(J2-Pad6)*%
X129794000Y-119126000D03*
%TO.P,J2,5*%
%TO.N,Net-(J2-Pad5)*%
X129794000Y-121666000D03*
%TO.P,J2,4*%
%TO.N,Net-(J2-Pad4)*%
X129794000Y-124206000D03*
%TO.P,J2,3*%
%TO.N,GND*%
X129794000Y-126746000D03*
%TO.P,J2,2*%
X129794000Y-129286000D03*
D14*
%TO.P,J2,1*%
X129794000Y-131826000D03*
%TD*%
D13*
%TO.P,J1,6*%
%TO.N,VCC*%
X147574000Y-119126000D03*
%TO.P,J1,5*%
X147574000Y-121666000D03*
%TO.P,J1,4*%
X147574000Y-124206000D03*
%TO.P,J1,3*%
%TO.N,TUNE*%
X147574000Y-126746000D03*
%TO.P,J1,2*%
%TO.N,Net-(J1-Pad2)*%
X147574000Y-129286000D03*
D14*
%TO.P,J1,1*%
%TO.N,Net-(J1-Pad1)*%
X147574000Y-131826000D03*
%TD*%
D15*
%TO.N,GND*%
X161417000Y-132905500D03*
X163512500Y-130429000D03*
X156083000Y-125603000D03*
X133350000Y-114744500D03*
X138684000Y-126746000D03*
X120396000Y-107950000D03*
X122936000Y-109220000D03*
X125476000Y-107950000D03*
X120396000Y-110490000D03*
X122936000Y-111760000D03*
X125476000Y-110490000D03*
X120396000Y-113030000D03*
X122936000Y-114300000D03*
X125476000Y-113030000D03*
X120396000Y-115570000D03*
X122936000Y-116840000D03*
X125476000Y-115570000D03*
X120396000Y-118110000D03*
X122936000Y-119380000D03*
X125476000Y-118110000D03*
X120396000Y-120650000D03*
X122936000Y-121920000D03*
X125476000Y-120650000D03*
X120396000Y-123190000D03*
X122936000Y-124460000D03*
X125476000Y-123190000D03*
X120396000Y-125730000D03*
X122936000Y-127000000D03*
X125476000Y-125730000D03*
X120396000Y-128270000D03*
X122936000Y-129540000D03*
X125476000Y-128270000D03*
X120396000Y-130810000D03*
X122936000Y-132080000D03*
X125476000Y-130810000D03*
X120396000Y-133350000D03*
X125476000Y-133350000D03*
X135890000Y-116014500D03*
X138430000Y-114744500D03*
X140970000Y-116014500D03*
X143510000Y-114744500D03*
X133350000Y-117284500D03*
X135890000Y-118554500D03*
X138430000Y-117284500D03*
X140970000Y-118554500D03*
X143510000Y-117284500D03*
X133350000Y-119824500D03*
X135890000Y-120142000D03*
X138430000Y-119824500D03*
X140970000Y-120142000D03*
X133350000Y-122364500D03*
X133350000Y-124904500D03*
X133350000Y-127444500D03*
X135890000Y-128714500D03*
X140970000Y-128714500D03*
X143510000Y-127444500D03*
X133350000Y-129984500D03*
X135890000Y-131254500D03*
X138430000Y-129984500D03*
X140970000Y-131254500D03*
X143510000Y-129984500D03*
X133350000Y-132524500D03*
X138430000Y-132524500D03*
X143510000Y-132524500D03*
X143510000Y-127444500D03*
X128016000Y-109220000D03*
X130556000Y-107950000D03*
X133096000Y-109220000D03*
X135636000Y-107950000D03*
X138176000Y-109220000D03*
X140716000Y-107950000D03*
X143256000Y-109220000D03*
X145796000Y-107950000D03*
X148336000Y-109220000D03*
X150876000Y-107950000D03*
X153416000Y-109220000D03*
X155956000Y-107950000D03*
X158496000Y-109220000D03*
X161036000Y-107950000D03*
X163576000Y-109220000D03*
X166116000Y-107950000D03*
X168656000Y-109220000D03*
X166116000Y-110490000D03*
X168656000Y-111760000D03*
X166116000Y-113030000D03*
X168656000Y-114300000D03*
X166116000Y-115570000D03*
X168656000Y-116840000D03*
X166116000Y-118110000D03*
X168656000Y-119380000D03*
X166116000Y-120650000D03*
X168656000Y-121920000D03*
X166116000Y-123190000D03*
X168656000Y-124460000D03*
X166116000Y-125730000D03*
X168656000Y-127000000D03*
X166116000Y-128270000D03*
X168656000Y-129540000D03*
X166116000Y-130810000D03*
X168656000Y-132080000D03*
X166116000Y-133350000D03*
X168656000Y-134620000D03*
X166116000Y-135890000D03*
X168656000Y-137160000D03*
X166116000Y-138430000D03*
X168656000Y-139700000D03*
X166116000Y-140970000D03*
X168656000Y-142240000D03*
X166116000Y-143510000D03*
X161036000Y-110490000D03*
X163576000Y-111760000D03*
X163576000Y-132080000D03*
X163576000Y-134620000D03*
X163576000Y-137160000D03*
X163576000Y-139700000D03*
X163576000Y-142240000D03*
X161036000Y-143510000D03*
X161036000Y-140970000D03*
X161036000Y-138430000D03*
X161036000Y-135890000D03*
X158496000Y-137160000D03*
X158496000Y-139700000D03*
X158496000Y-142240000D03*
X150876000Y-137160000D03*
X150876000Y-139700000D03*
X150876000Y-142240000D03*
X150876000Y-134874000D03*
X150876000Y-133350000D03*
X150876000Y-130810000D03*
X150876000Y-128270000D03*
X153416000Y-129540000D03*
X153416000Y-131572000D03*
X155956000Y-131572000D03*
X150876000Y-113030000D03*
X150876000Y-115570000D03*
X150876000Y-118110000D03*
X150876000Y-120650000D03*
X150876000Y-123190000D03*
X150876000Y-125730000D03*
X153416000Y-114300000D03*
X153416000Y-116840000D03*
X158496000Y-134874000D03*
X158496000Y-144526000D03*
X155956000Y-144526000D03*
X153416000Y-144526000D03*
X150876000Y-144526000D03*
X145288000Y-125984000D03*
X145288000Y-128778000D03*
X145288000Y-131318000D03*
X159004000Y-132969000D03*
X163576000Y-114250000D03*
X163576000Y-116750000D03*
X161000000Y-113000000D03*
X153500000Y-119500000D03*
X156000000Y-120750000D03*
X156000000Y-118250000D03*
%TD*%
D16*
%TO.N,Net-(BT1-Pad1)*%
X139584000Y-135954000D02*
X139630000Y-136000000D01*
%TD*%
D17*
%TO.N,GND*%
X169266001Y-145009000D02*
X150527419Y-145009000D01*
X150495000Y-145005807D01*
X150462581Y-145009000D01*
X150365617Y-145018550D01*
X150241207Y-145056290D01*
X150241000Y-145056401D01*
X150241000Y-137414000D01*
X151511000Y-137414000D01*
X151511000Y-143764000D01*
X151513440Y-143788776D01*
X151520667Y-143812601D01*
X151532403Y-143834557D01*
X151548197Y-143853803D01*
X151567443Y-143869597D01*
X151589399Y-143881333D01*
X151613224Y-143888560D01*
X151638000Y-143891000D01*
X157988000Y-143891000D01*
X158012776Y-143888560D01*
X158036601Y-143881333D01*
X158058557Y-143869597D01*
X158077803Y-143853803D01*
X158093597Y-143834557D01*
X158105333Y-143812601D01*
X158112560Y-143788776D01*
X158115000Y-143764000D01*
X158115000Y-137414000D01*
X158112560Y-137389224D01*
X158105333Y-137365399D01*
X158093597Y-137343443D01*
X158077803Y-137324197D01*
X158058557Y-137308403D01*
X158036601Y-137296667D01*
X158012776Y-137289440D01*
X157988000Y-137287000D01*
X157703607Y-137287000D01*
X157627704Y-137211097D01*
X157871671Y-137139514D01*
X157992571Y-136884004D01*
X158061300Y-136609816D01*
X158075217Y-136327488D01*
X158033787Y-136047870D01*
X157938603Y-135781708D01*
X157871671Y-135656486D01*
X157627702Y-135584903D01*
X156814605Y-136398000D01*
X156828748Y-136412143D01*
X156649143Y-136591748D01*
X156635000Y-136577605D01*
X156620858Y-136591748D01*
X156441253Y-136412143D01*
X156455395Y-136398000D01*
X155642298Y-135584903D01*
X155398329Y-135656486D01*
X155277429Y-135911996D01*
X155208700Y-136186184D01*
X155194783Y-136468512D01*
X155236213Y-136748130D01*
X155331397Y-137014292D01*
X155398329Y-137139514D01*
X155642296Y-137211097D01*
X155566393Y-137287000D01*
X154405730Y-137287000D01*
X154456008Y-137121254D01*
X154473072Y-136948000D01*
X154473072Y-135848000D01*
X154456008Y-135674746D01*
X154405472Y-135508150D01*
X154350497Y-135405298D01*
X155821903Y-135405298D01*
X156635000Y-136218395D01*
X157448097Y-135405298D01*
X157376514Y-135161329D01*
X157121004Y-135040429D01*
X156846816Y-134971700D01*
X156564488Y-134957783D01*
X156284870Y-134999213D01*
X156018708Y-135094397D01*
X155893486Y-135161329D01*
X155821903Y-135405298D01*
X154350497Y-135405298D01*
X154323405Y-135354614D01*
X154212962Y-135220038D01*
X154078386Y-135109595D01*
X153924850Y-135027528D01*
X153758254Y-134976992D01*
X153585000Y-134959928D01*
X152485000Y-134959928D01*
X152311746Y-134976992D01*
X152145150Y-135027528D01*
X151991614Y-135109595D01*
X151857038Y-135220038D01*
X151746595Y-135354614D01*
X151664528Y-135508150D01*
X151613992Y-135674746D01*
X151596928Y-135848000D01*
X151596928Y-136948000D01*
X151613992Y-137121254D01*
X151664270Y-137287000D01*
X151638000Y-137287000D01*
X151613224Y-137289440D01*
X151589399Y-137296667D01*
X151567443Y-137308403D01*
X151548197Y-137324197D01*
X151532403Y-137343443D01*
X151520667Y-137365399D01*
X151513440Y-137389224D01*
X151511000Y-137414000D01*
X150241000Y-137414000D01*
X150241000Y-134406231D01*
X150238548Y-134381395D01*
X150219120Y-134283968D01*
X150211881Y-134260147D01*
X150200066Y-134238094D01*
X150144753Y-134155571D01*
X150128932Y-134136349D01*
X150109563Y-134120515D01*
X150026828Y-134065520D01*
X150004843Y-134053837D01*
X149980881Y-134046643D01*
X149883379Y-134027590D01*
X149858533Y-134025234D01*
X119659000Y-134141468D01*
X119659000Y-132676000D01*
X128305928Y-132676000D01*
X128318188Y-132800482D01*
X128354498Y-132920180D01*
X128413463Y-133030494D01*
X128492815Y-133127185D01*
X128589506Y-133206537D01*
X128699820Y-133265502D01*
X128819518Y-133301812D01*
X128944000Y-133314072D01*
X129508250Y-133311000D01*
X129667000Y-133152250D01*
X129667000Y-131953000D01*
X129921000Y-131953000D01*
X129921000Y-133152250D01*
X130079750Y-133311000D01*
X130644000Y-133314072D01*
X130768482Y-133301812D01*
X130888180Y-133265502D01*
X130998494Y-133206537D01*
X131095185Y-133127185D01*
X131174537Y-133030494D01*
X131233502Y-132920180D01*
X131269812Y-132800482D01*
X131282072Y-132676000D01*
X131279000Y-132111750D01*
X131120250Y-131953000D01*
X129921000Y-131953000D01*
X129667000Y-131953000D01*
X128467750Y-131953000D01*
X128309000Y-132111750D01*
X128305928Y-132676000D01*
X119659000Y-132676000D01*
X119659000Y-130976000D01*
X128305928Y-130976000D01*
X128309000Y-131540250D01*
X128467750Y-131699000D01*
X129667000Y-131699000D01*
X129667000Y-129413000D01*
X129921000Y-129413000D01*
X129921000Y-131699000D01*
X131120250Y-131699000D01*
X131279000Y-131540250D01*
X131282072Y-130976000D01*
X146085928Y-130976000D01*
X146085928Y-132676000D01*
X146098188Y-132800482D01*
X146134498Y-132920180D01*
X146193463Y-133030494D01*
X146272815Y-133127185D01*
X146369506Y-133206537D01*
X146479820Y-133265502D01*
X146599518Y-133301812D01*
X146724000Y-133314072D01*
X148424000Y-133314072D01*
X148548482Y-133301812D01*
X148668180Y-133265502D01*
X148778494Y-133206537D01*
X148875185Y-133127185D01*
X148954537Y-133030494D01*
X149013502Y-132920180D01*
X149049812Y-132800482D01*
X149062072Y-132676000D01*
X149062072Y-130976000D01*
X149049812Y-130851518D01*
X149013502Y-130731820D01*
X148954537Y-130621506D01*
X148875185Y-130524815D01*
X148778494Y-130445463D01*
X148668180Y-130386498D01*
X148595620Y-130364487D01*
X148727475Y-130232632D01*
X148889990Y-129989411D01*
X149001932Y-129719158D01*
X149059000Y-129432260D01*
X149059000Y-129139740D01*
X149001932Y-128852842D01*
X148889990Y-128582589D01*
X148727475Y-128339368D01*
X148520632Y-128132525D01*
X148346240Y-128016000D01*
X148520632Y-127899475D01*
X148727475Y-127692632D01*
X148889990Y-127449411D01*
X149001932Y-127179158D01*
X149059000Y-126892260D01*
X149059000Y-126599740D01*
X149001932Y-126312842D01*
X148889990Y-126042589D01*
X148727475Y-125799368D01*
X148520632Y-125592525D01*
X148346240Y-125476000D01*
X148520632Y-125359475D01*
X148727475Y-125152632D01*
X148889990Y-124909411D01*
X149001932Y-124639158D01*
X149059000Y-124352260D01*
X149059000Y-124059740D01*
X149001932Y-123772842D01*
X148889990Y-123502589D01*
X148727475Y-123259368D01*
X148520632Y-123052525D01*
X148346240Y-122936000D01*
X148520632Y-122819475D01*
X148727475Y-122612632D01*
X148889990Y-122369411D01*
X149001932Y-122099158D01*
X149059000Y-121812260D01*
X149059000Y-121519740D01*
X149001932Y-121232842D01*
X148889990Y-120962589D01*
X148727475Y-120719368D01*
X148520632Y-120512525D01*
X148346240Y-120396000D01*
X148520632Y-120279475D01*
X148727475Y-120072632D01*
X148889990Y-119829411D01*
X149001932Y-119559158D01*
X149059000Y-119272260D01*
X149059000Y-118979740D01*
X149001932Y-118692842D01*
X148889990Y-118422589D01*
X148727475Y-118179368D01*
X148520632Y-117972525D01*
X148277411Y-117810010D01*
X148007158Y-117698068D01*
X147720260Y-117641000D01*
X147427740Y-117641000D01*
X147140842Y-117698068D01*
X146870589Y-117810010D01*
X146627368Y-117972525D01*
X146420525Y-118179368D01*
X146258010Y-118422589D01*
X146146068Y-118692842D01*
X146089000Y-118979740D01*
X146089000Y-119272260D01*
X146146068Y-119559158D01*
X146258010Y-119829411D01*
X146420525Y-120072632D01*
X146627368Y-120279475D01*
X146801760Y-120396000D01*
X146627368Y-120512525D01*
X146420525Y-120719368D01*
X146258010Y-120962589D01*
X146146068Y-121232842D01*
X146089000Y-121519740D01*
X146089000Y-121812260D01*
X146146068Y-122099158D01*
X146258010Y-122369411D01*
X146420525Y-122612632D01*
X146627368Y-122819475D01*
X146801760Y-122936000D01*
X146627368Y-123052525D01*
X146420525Y-123259368D01*
X146258010Y-123502589D01*
X146146068Y-123772842D01*
X146089000Y-124059740D01*
X146089000Y-124352260D01*
X146146068Y-124639158D01*
X146258010Y-124909411D01*
X146420525Y-125152632D01*
X146627368Y-125359475D01*
X146801760Y-125476000D01*
X146627368Y-125592525D01*
X146420525Y-125799368D01*
X146258010Y-126042589D01*
X146146068Y-126312842D01*
X146089000Y-126599740D01*
X146089000Y-126892260D01*
X146146068Y-127179158D01*
X146258010Y-127449411D01*
X146420525Y-127692632D01*
X146627368Y-127899475D01*
X146801760Y-128016000D01*
X146627368Y-128132525D01*
X146420525Y-128339368D01*
X146258010Y-128582589D01*
X146146068Y-128852842D01*
X146089000Y-129139740D01*
X146089000Y-129432260D01*
X146146068Y-129719158D01*
X146258010Y-129989411D01*
X146420525Y-130232632D01*
X146552380Y-130364487D01*
X146479820Y-130386498D01*
X146369506Y-130445463D01*
X146272815Y-130524815D01*
X146193463Y-130621506D01*
X146134498Y-130731820D01*
X146098188Y-130851518D01*
X146085928Y-130976000D01*
X131282072Y-130976000D01*
X131269812Y-130851518D01*
X131233502Y-130731820D01*
X131174537Y-130621506D01*
X131095185Y-130524815D01*
X130998494Y-130445463D01*
X130888180Y-130386498D01*
X130807534Y-130362034D01*
X130891588Y-130286269D01*
X131065641Y-130052920D01*
X131190825Y-129790099D01*
X131235476Y-129642890D01*
X131114155Y-129413000D01*
X129921000Y-129413000D01*
X129667000Y-129413000D01*
X128473845Y-129413000D01*
X128352524Y-129642890D01*
X128397175Y-129790099D01*
X128522359Y-130052920D01*
X128696412Y-130286269D01*
X128780466Y-130362034D01*
X128699820Y-130386498D01*
X128589506Y-130445463D01*
X128492815Y-130524815D01*
X128413463Y-130621506D01*
X128354498Y-130731820D01*
X128318188Y-130851518D01*
X128305928Y-130976000D01*
X119659000Y-130976000D01*
X119659000Y-127102890D01*
X128352524Y-127102890D01*
X128397175Y-127250099D01*
X128522359Y-127512920D01*
X128696412Y-127746269D01*
X128912645Y-127941178D01*
X129038255Y-128016000D01*
X128912645Y-128090822D01*
X128696412Y-128285731D01*
X128522359Y-128519080D01*
X128397175Y-128781901D01*
X128352524Y-128929110D01*
X128473845Y-129159000D01*
X129667000Y-129159000D01*
X129667000Y-126873000D01*
X129921000Y-126873000D01*
X129921000Y-129159000D01*
X131114155Y-129159000D01*
X131235476Y-128929110D01*
X131190825Y-128781901D01*
X131065641Y-128519080D01*
X130891588Y-128285731D01*
X130675355Y-128090822D01*
X130549745Y-128016000D01*
X130675355Y-127941178D01*
X130891588Y-127746269D01*
X131065641Y-127512920D01*
X131190825Y-127250099D01*
X131235476Y-127102890D01*
X131114155Y-126873000D01*
X129921000Y-126873000D01*
X129667000Y-126873000D01*
X128473845Y-126873000D01*
X128352524Y-127102890D01*
X119659000Y-127102890D01*
X119659000Y-118979740D01*
X128309000Y-118979740D01*
X128309000Y-119272260D01*
X128366068Y-119559158D01*
X128478010Y-119829411D01*
X128640525Y-120072632D01*
X128847368Y-120279475D01*
X129021760Y-120396000D01*
X128847368Y-120512525D01*
X128640525Y-120719368D01*
X128478010Y-120962589D01*
X128366068Y-121232842D01*
X128309000Y-121519740D01*
X128309000Y-121812260D01*
X128366068Y-122099158D01*
X128478010Y-122369411D01*
X128640525Y-122612632D01*
X128847368Y-122819475D01*
X129021760Y-122936000D01*
X128847368Y-123052525D01*
X128640525Y-123259368D01*
X128478010Y-123502589D01*
X128366068Y-123772842D01*
X128309000Y-124059740D01*
X128309000Y-124352260D01*
X128366068Y-124639158D01*
X128478010Y-124909411D01*
X128640525Y-125152632D01*
X128847368Y-125359475D01*
X129029534Y-125481195D01*
X128912645Y-125550822D01*
X128696412Y-125745731D01*
X128522359Y-125979080D01*
X128397175Y-126241901D01*
X128352524Y-126389110D01*
X128473845Y-126619000D01*
X129667000Y-126619000D01*
X129667000Y-126599000D01*
X129921000Y-126599000D01*
X129921000Y-126619000D01*
X131114155Y-126619000D01*
X131235476Y-126389110D01*
X131190825Y-126241901D01*
X131065641Y-125979080D01*
X130891588Y-125745731D01*
X130675355Y-125550822D01*
X130558466Y-125481195D01*
X130740632Y-125359475D01*
X130947475Y-125152632D01*
X131109990Y-124909411D01*
X131221932Y-124639158D01*
X131279000Y-124352260D01*
X131279000Y-124059740D01*
X131221932Y-123772842D01*
X131109990Y-123502589D01*
X130947475Y-123259368D01*
X130740632Y-123052525D01*
X130566240Y-122936000D01*
X130740632Y-122819475D01*
X130947475Y-122612632D01*
X131109990Y-122369411D01*
X131221932Y-122099158D01*
X131279000Y-121812260D01*
X131279000Y-121519740D01*
X131221932Y-121232842D01*
X131109990Y-120962589D01*
X130947475Y-120719368D01*
X130740632Y-120512525D01*
X130566240Y-120396000D01*
X130740632Y-120279475D01*
X130947475Y-120072632D01*
X131109990Y-119829411D01*
X131221932Y-119559158D01*
X131279000Y-119272260D01*
X131279000Y-118979740D01*
X131221932Y-118692842D01*
X131109990Y-118422589D01*
X130947475Y-118179368D01*
X130740632Y-117972525D01*
X130497411Y-117810010D01*
X130227158Y-117698068D01*
X129940260Y-117641000D01*
X129647740Y-117641000D01*
X129360842Y-117698068D01*
X129090589Y-117810010D01*
X128847368Y-117972525D01*
X128640525Y-118179368D01*
X128478010Y-118422589D01*
X128366068Y-118692842D01*
X128309000Y-118979740D01*
X119659000Y-118979740D01*
X119659000Y-107213000D01*
X169266000Y-107213000D01*
X169266001Y-145009000D01*
%TA.AperFunction,Conductor*%
D18*
G36*
X169266001Y-145009000D02*
G01*
X150527419Y-145009000D01*
X150495000Y-145005807D01*
X150462581Y-145009000D01*
X150365617Y-145018550D01*
X150241207Y-145056290D01*
X150241000Y-145056401D01*
X150241000Y-137414000D01*
X151511000Y-137414000D01*
X151511000Y-143764000D01*
X151513440Y-143788776D01*
X151520667Y-143812601D01*
X151532403Y-143834557D01*
X151548197Y-143853803D01*
X151567443Y-143869597D01*
X151589399Y-143881333D01*
X151613224Y-143888560D01*
X151638000Y-143891000D01*
X157988000Y-143891000D01*
X158012776Y-143888560D01*
X158036601Y-143881333D01*
X158058557Y-143869597D01*
X158077803Y-143853803D01*
X158093597Y-143834557D01*
X158105333Y-143812601D01*
X158112560Y-143788776D01*
X158115000Y-143764000D01*
X158115000Y-137414000D01*
X158112560Y-137389224D01*
X158105333Y-137365399D01*
X158093597Y-137343443D01*
X158077803Y-137324197D01*
X158058557Y-137308403D01*
X158036601Y-137296667D01*
X158012776Y-137289440D01*
X157988000Y-137287000D01*
X157703607Y-137287000D01*
X157627704Y-137211097D01*
X157871671Y-137139514D01*
X157992571Y-136884004D01*
X158061300Y-136609816D01*
X158075217Y-136327488D01*
X158033787Y-136047870D01*
X157938603Y-135781708D01*
X157871671Y-135656486D01*
X157627702Y-135584903D01*
X156814605Y-136398000D01*
X156828748Y-136412143D01*
X156649143Y-136591748D01*
X156635000Y-136577605D01*
X156620858Y-136591748D01*
X156441253Y-136412143D01*
X156455395Y-136398000D01*
X155642298Y-135584903D01*
X155398329Y-135656486D01*
X155277429Y-135911996D01*
X155208700Y-136186184D01*
X155194783Y-136468512D01*
X155236213Y-136748130D01*
X155331397Y-137014292D01*
X155398329Y-137139514D01*
X155642296Y-137211097D01*
X155566393Y-137287000D01*
X154405730Y-137287000D01*
X154456008Y-137121254D01*
X154473072Y-136948000D01*
X154473072Y-135848000D01*
X154456008Y-135674746D01*
X154405472Y-135508150D01*
X154350497Y-135405298D01*
X155821903Y-135405298D01*
X156635000Y-136218395D01*
X157448097Y-135405298D01*
X157376514Y-135161329D01*
X157121004Y-135040429D01*
X156846816Y-134971700D01*
X156564488Y-134957783D01*
X156284870Y-134999213D01*
X156018708Y-135094397D01*
X155893486Y-135161329D01*
X155821903Y-135405298D01*
X154350497Y-135405298D01*
X154323405Y-135354614D01*
X154212962Y-135220038D01*
X154078386Y-135109595D01*
X153924850Y-135027528D01*
X153758254Y-134976992D01*
X153585000Y-134959928D01*
X152485000Y-134959928D01*
X152311746Y-134976992D01*
X152145150Y-135027528D01*
X151991614Y-135109595D01*
X151857038Y-135220038D01*
X151746595Y-135354614D01*
X151664528Y-135508150D01*
X151613992Y-135674746D01*
X151596928Y-135848000D01*
X151596928Y-136948000D01*
X151613992Y-137121254D01*
X151664270Y-137287000D01*
X151638000Y-137287000D01*
X151613224Y-137289440D01*
X151589399Y-137296667D01*
X151567443Y-137308403D01*
X151548197Y-137324197D01*
X151532403Y-137343443D01*
X151520667Y-137365399D01*
X151513440Y-137389224D01*
X151511000Y-137414000D01*
X150241000Y-137414000D01*
X150241000Y-134406231D01*
X150238548Y-134381395D01*
X150219120Y-134283968D01*
X150211881Y-134260147D01*
X150200066Y-134238094D01*
X150144753Y-134155571D01*
X150128932Y-134136349D01*
X150109563Y-134120515D01*
X150026828Y-134065520D01*
X150004843Y-134053837D01*
X149980881Y-134046643D01*
X149883379Y-134027590D01*
X149858533Y-134025234D01*
X119659000Y-134141468D01*
X119659000Y-132676000D01*
X128305928Y-132676000D01*
X128318188Y-132800482D01*
X128354498Y-132920180D01*
X128413463Y-133030494D01*
X128492815Y-133127185D01*
X128589506Y-133206537D01*
X128699820Y-133265502D01*
X128819518Y-133301812D01*
X128944000Y-133314072D01*
X129508250Y-133311000D01*
X129667000Y-133152250D01*
X129667000Y-131953000D01*
X129921000Y-131953000D01*
X129921000Y-133152250D01*
X130079750Y-133311000D01*
X130644000Y-133314072D01*
X130768482Y-133301812D01*
X130888180Y-133265502D01*
X130998494Y-133206537D01*
X131095185Y-133127185D01*
X131174537Y-133030494D01*
X131233502Y-132920180D01*
X131269812Y-132800482D01*
X131282072Y-132676000D01*
X131279000Y-132111750D01*
X131120250Y-131953000D01*
X129921000Y-131953000D01*
X129667000Y-131953000D01*
X128467750Y-131953000D01*
X128309000Y-132111750D01*
X128305928Y-132676000D01*
X119659000Y-132676000D01*
X119659000Y-130976000D01*
X128305928Y-130976000D01*
X128309000Y-131540250D01*
X128467750Y-131699000D01*
X129667000Y-131699000D01*
X129667000Y-129413000D01*
X129921000Y-129413000D01*
X129921000Y-131699000D01*
X131120250Y-131699000D01*
X131279000Y-131540250D01*
X131282072Y-130976000D01*
X146085928Y-130976000D01*
X146085928Y-132676000D01*
X146098188Y-132800482D01*
X146134498Y-132920180D01*
X146193463Y-133030494D01*
X146272815Y-133127185D01*
X146369506Y-133206537D01*
X146479820Y-133265502D01*
X146599518Y-133301812D01*
X146724000Y-133314072D01*
X148424000Y-133314072D01*
X148548482Y-133301812D01*
X148668180Y-133265502D01*
X148778494Y-133206537D01*
X148875185Y-133127185D01*
X148954537Y-133030494D01*
X149013502Y-132920180D01*
X149049812Y-132800482D01*
X149062072Y-132676000D01*
X149062072Y-130976000D01*
X149049812Y-130851518D01*
X149013502Y-130731820D01*
X148954537Y-130621506D01*
X148875185Y-130524815D01*
X148778494Y-130445463D01*
X148668180Y-130386498D01*
X148595620Y-130364487D01*
X148727475Y-130232632D01*
X148889990Y-129989411D01*
X149001932Y-129719158D01*
X149059000Y-129432260D01*
X149059000Y-129139740D01*
X149001932Y-128852842D01*
X148889990Y-128582589D01*
X148727475Y-128339368D01*
X148520632Y-128132525D01*
X148346240Y-128016000D01*
X148520632Y-127899475D01*
X148727475Y-127692632D01*
X148889990Y-127449411D01*
X149001932Y-127179158D01*
X149059000Y-126892260D01*
X149059000Y-126599740D01*
X149001932Y-126312842D01*
X148889990Y-126042589D01*
X148727475Y-125799368D01*
X148520632Y-125592525D01*
X148346240Y-125476000D01*
X148520632Y-125359475D01*
X148727475Y-125152632D01*
X148889990Y-124909411D01*
X149001932Y-124639158D01*
X149059000Y-124352260D01*
X149059000Y-124059740D01*
X149001932Y-123772842D01*
X148889990Y-123502589D01*
X148727475Y-123259368D01*
X148520632Y-123052525D01*
X148346240Y-122936000D01*
X148520632Y-122819475D01*
X148727475Y-122612632D01*
X148889990Y-122369411D01*
X149001932Y-122099158D01*
X149059000Y-121812260D01*
X149059000Y-121519740D01*
X149001932Y-121232842D01*
X148889990Y-120962589D01*
X148727475Y-120719368D01*
X148520632Y-120512525D01*
X148346240Y-120396000D01*
X148520632Y-120279475D01*
X148727475Y-120072632D01*
X148889990Y-119829411D01*
X149001932Y-119559158D01*
X149059000Y-119272260D01*
X149059000Y-118979740D01*
X149001932Y-118692842D01*
X148889990Y-118422589D01*
X148727475Y-118179368D01*
X148520632Y-117972525D01*
X148277411Y-117810010D01*
X148007158Y-117698068D01*
X147720260Y-117641000D01*
X147427740Y-117641000D01*
X147140842Y-117698068D01*
X146870589Y-117810010D01*
X146627368Y-117972525D01*
X146420525Y-118179368D01*
X146258010Y-118422589D01*
X146146068Y-118692842D01*
X146089000Y-118979740D01*
X146089000Y-119272260D01*
X146146068Y-119559158D01*
X146258010Y-119829411D01*
X146420525Y-120072632D01*
X146627368Y-120279475D01*
X146801760Y-120396000D01*
X146627368Y-120512525D01*
X146420525Y-120719368D01*
X146258010Y-120962589D01*
X146146068Y-121232842D01*
X146089000Y-121519740D01*
X146089000Y-121812260D01*
X146146068Y-122099158D01*
X146258010Y-122369411D01*
X146420525Y-122612632D01*
X146627368Y-122819475D01*
X146801760Y-122936000D01*
X146627368Y-123052525D01*
X146420525Y-123259368D01*
X146258010Y-123502589D01*
X146146068Y-123772842D01*
X146089000Y-124059740D01*
X146089000Y-124352260D01*
X146146068Y-124639158D01*
X146258010Y-124909411D01*
X146420525Y-125152632D01*
X146627368Y-125359475D01*
X146801760Y-125476000D01*
X146627368Y-125592525D01*
X146420525Y-125799368D01*
X146258010Y-126042589D01*
X146146068Y-126312842D01*
X146089000Y-126599740D01*
X146089000Y-126892260D01*
X146146068Y-127179158D01*
X146258010Y-127449411D01*
X146420525Y-127692632D01*
X146627368Y-127899475D01*
X146801760Y-128016000D01*
X146627368Y-128132525D01*
X146420525Y-128339368D01*
X146258010Y-128582589D01*
X146146068Y-128852842D01*
X146089000Y-129139740D01*
X146089000Y-129432260D01*
X146146068Y-129719158D01*
X146258010Y-129989411D01*
X146420525Y-130232632D01*
X146552380Y-130364487D01*
X146479820Y-130386498D01*
X146369506Y-130445463D01*
X146272815Y-130524815D01*
X146193463Y-130621506D01*
X146134498Y-130731820D01*
X146098188Y-130851518D01*
X146085928Y-130976000D01*
X131282072Y-130976000D01*
X131269812Y-130851518D01*
X131233502Y-130731820D01*
X131174537Y-130621506D01*
X131095185Y-130524815D01*
X130998494Y-130445463D01*
X130888180Y-130386498D01*
X130807534Y-130362034D01*
X130891588Y-130286269D01*
X131065641Y-130052920D01*
X131190825Y-129790099D01*
X131235476Y-129642890D01*
X131114155Y-129413000D01*
X129921000Y-129413000D01*
X129667000Y-129413000D01*
X128473845Y-129413000D01*
X128352524Y-129642890D01*
X128397175Y-129790099D01*
X128522359Y-130052920D01*
X128696412Y-130286269D01*
X128780466Y-130362034D01*
X128699820Y-130386498D01*
X128589506Y-130445463D01*
X128492815Y-130524815D01*
X128413463Y-130621506D01*
X128354498Y-130731820D01*
X128318188Y-130851518D01*
X128305928Y-130976000D01*
X119659000Y-130976000D01*
X119659000Y-127102890D01*
X128352524Y-127102890D01*
X128397175Y-127250099D01*
X128522359Y-127512920D01*
X128696412Y-127746269D01*
X128912645Y-127941178D01*
X129038255Y-128016000D01*
X128912645Y-128090822D01*
X128696412Y-128285731D01*
X128522359Y-128519080D01*
X128397175Y-128781901D01*
X128352524Y-128929110D01*
X128473845Y-129159000D01*
X129667000Y-129159000D01*
X129667000Y-126873000D01*
X129921000Y-126873000D01*
X129921000Y-129159000D01*
X131114155Y-129159000D01*
X131235476Y-128929110D01*
X131190825Y-128781901D01*
X131065641Y-128519080D01*
X130891588Y-128285731D01*
X130675355Y-128090822D01*
X130549745Y-128016000D01*
X130675355Y-127941178D01*
X130891588Y-127746269D01*
X131065641Y-127512920D01*
X131190825Y-127250099D01*
X131235476Y-127102890D01*
X131114155Y-126873000D01*
X129921000Y-126873000D01*
X129667000Y-126873000D01*
X128473845Y-126873000D01*
X128352524Y-127102890D01*
X119659000Y-127102890D01*
X119659000Y-118979740D01*
X128309000Y-118979740D01*
X128309000Y-119272260D01*
X128366068Y-119559158D01*
X128478010Y-119829411D01*
X128640525Y-120072632D01*
X128847368Y-120279475D01*
X129021760Y-120396000D01*
X128847368Y-120512525D01*
X128640525Y-120719368D01*
X128478010Y-120962589D01*
X128366068Y-121232842D01*
X128309000Y-121519740D01*
X128309000Y-121812260D01*
X128366068Y-122099158D01*
X128478010Y-122369411D01*
X128640525Y-122612632D01*
X128847368Y-122819475D01*
X129021760Y-122936000D01*
X128847368Y-123052525D01*
X128640525Y-123259368D01*
X128478010Y-123502589D01*
X128366068Y-123772842D01*
X128309000Y-124059740D01*
X128309000Y-124352260D01*
X128366068Y-124639158D01*
X128478010Y-124909411D01*
X128640525Y-125152632D01*
X128847368Y-125359475D01*
X129029534Y-125481195D01*
X128912645Y-125550822D01*
X128696412Y-125745731D01*
X128522359Y-125979080D01*
X128397175Y-126241901D01*
X128352524Y-126389110D01*
X128473845Y-126619000D01*
X129667000Y-126619000D01*
X129667000Y-126599000D01*
X129921000Y-126599000D01*
X129921000Y-126619000D01*
X131114155Y-126619000D01*
X131235476Y-126389110D01*
X131190825Y-126241901D01*
X131065641Y-125979080D01*
X130891588Y-125745731D01*
X130675355Y-125550822D01*
X130558466Y-125481195D01*
X130740632Y-125359475D01*
X130947475Y-125152632D01*
X131109990Y-124909411D01*
X131221932Y-124639158D01*
X131279000Y-124352260D01*
X131279000Y-124059740D01*
X131221932Y-123772842D01*
X131109990Y-123502589D01*
X130947475Y-123259368D01*
X130740632Y-123052525D01*
X130566240Y-122936000D01*
X130740632Y-122819475D01*
X130947475Y-122612632D01*
X131109990Y-122369411D01*
X131221932Y-122099158D01*
X131279000Y-121812260D01*
X131279000Y-121519740D01*
X131221932Y-121232842D01*
X131109990Y-120962589D01*
X130947475Y-120719368D01*
X130740632Y-120512525D01*
X130566240Y-120396000D01*
X130740632Y-120279475D01*
X130947475Y-120072632D01*
X131109990Y-119829411D01*
X131221932Y-119559158D01*
X131279000Y-119272260D01*
X131279000Y-118979740D01*
X131221932Y-118692842D01*
X131109990Y-118422589D01*
X130947475Y-118179368D01*
X130740632Y-117972525D01*
X130497411Y-117810010D01*
X130227158Y-117698068D01*
X129940260Y-117641000D01*
X129647740Y-117641000D01*
X129360842Y-117698068D01*
X129090589Y-117810010D01*
X128847368Y-117972525D01*
X128640525Y-118179368D01*
X128478010Y-118422589D01*
X128366068Y-118692842D01*
X128309000Y-118979740D01*
X119659000Y-118979740D01*
X119659000Y-107213000D01*
X169266000Y-107213000D01*
X169266001Y-145009000D01*
G37*
%TD.AperFunction*%
%TD*%
M02*
