%TF.GenerationSoftware,KiCad,Pcbnew,(5.1.9)-1*%
%TF.CreationDate,2021-05-28T16:26:46-04:00*%
%TF.ProjectId,fox_hunt_2m_fm,666f785f-6875-46e7-945f-326d5f666d2e,rev?*%
%TF.SameCoordinates,Original*%
%TF.FileFunction,Legend,Top*%
%TF.FilePolarity,Positive*%
%FSLAX46Y46*%
G04 Gerber Fmt 4.6, Leading zero omitted, Abs format (unit mm)*
G04 Created by KiCad (PCBNEW (5.1.9)-1) date 2021-05-28 16:26:46*
%MOMM*%
%LPD*%
G01*
G04 APERTURE LIST*
%ADD10C,0.300000*%
%ADD11C,0.120000*%
%ADD12C,0.150000*%
G04 APERTURE END LIST*
D10*
X160071428Y-109296428D02*
X160142857Y-109225000D01*
X160285714Y-109153571D01*
X160642857Y-109153571D01*
X160785714Y-109225000D01*
X160857142Y-109296428D01*
X160928571Y-109439285D01*
X160928571Y-109582142D01*
X160857142Y-109796428D01*
X160000000Y-110653571D01*
X160928571Y-110653571D01*
X161571428Y-110653571D02*
X161571428Y-109653571D01*
X161571428Y-109796428D02*
X161642857Y-109725000D01*
X161785714Y-109653571D01*
X162000000Y-109653571D01*
X162142857Y-109725000D01*
X162214285Y-109867857D01*
X162214285Y-110653571D01*
X162214285Y-109867857D02*
X162285714Y-109725000D01*
X162428571Y-109653571D01*
X162642857Y-109653571D01*
X162785714Y-109725000D01*
X162857142Y-109867857D01*
X162857142Y-110653571D01*
X165214285Y-109867857D02*
X164714285Y-109867857D01*
X164714285Y-110653571D02*
X164714285Y-109153571D01*
X165428571Y-109153571D01*
X166214285Y-110653571D02*
X166071428Y-110582142D01*
X166000000Y-110510714D01*
X165928571Y-110367857D01*
X165928571Y-109939285D01*
X166000000Y-109796428D01*
X166071428Y-109725000D01*
X166214285Y-109653571D01*
X166428571Y-109653571D01*
X166571428Y-109725000D01*
X166642857Y-109796428D01*
X166714285Y-109939285D01*
X166714285Y-110367857D01*
X166642857Y-110510714D01*
X166571428Y-110582142D01*
X166428571Y-110653571D01*
X166214285Y-110653571D01*
X167214285Y-110653571D02*
X168000000Y-109653571D01*
X167214285Y-109653571D02*
X168000000Y-110653571D01*
X161000000Y-113203571D02*
X161000000Y-112203571D01*
X161000000Y-112489285D02*
X161071428Y-112346428D01*
X161142857Y-112275000D01*
X161285714Y-112203571D01*
X161428571Y-112203571D01*
X162500000Y-113132142D02*
X162357142Y-113203571D01*
X162071428Y-113203571D01*
X161928571Y-113132142D01*
X161857142Y-112989285D01*
X161857142Y-112417857D01*
X161928571Y-112275000D01*
X162071428Y-112203571D01*
X162357142Y-112203571D01*
X162500000Y-112275000D01*
X162571428Y-112417857D01*
X162571428Y-112560714D01*
X161857142Y-112703571D01*
X163071428Y-112203571D02*
X163428571Y-113203571D01*
X163785714Y-112203571D01*
X164357142Y-113060714D02*
X164428571Y-113132142D01*
X164357142Y-113203571D01*
X164285714Y-113132142D01*
X164357142Y-113060714D01*
X164357142Y-113203571D01*
X166714285Y-112417857D02*
X166928571Y-112489285D01*
X167000000Y-112560714D01*
X167071428Y-112703571D01*
X167071428Y-112917857D01*
X167000000Y-113060714D01*
X166928571Y-113132142D01*
X166785714Y-113203571D01*
X166214285Y-113203571D01*
X166214285Y-111703571D01*
X166714285Y-111703571D01*
X166857142Y-111775000D01*
X166928571Y-111846428D01*
X167000000Y-111989285D01*
X167000000Y-112132142D01*
X166928571Y-112275000D01*
X166857142Y-112346428D01*
X166714285Y-112417857D01*
X166214285Y-112417857D01*
D11*
%TO.C,D1*%
X144960000Y-137120000D02*
X144960000Y-134880000D01*
X144720000Y-137120000D02*
X144720000Y-134880000D01*
X144840000Y-137120000D02*
X144840000Y-134880000D01*
X140670000Y-136000000D02*
X141320000Y-136000000D01*
X146210000Y-136000000D02*
X145560000Y-136000000D01*
X141320000Y-137120000D02*
X145560000Y-137120000D01*
X141320000Y-134880000D02*
X141320000Y-137120000D01*
X145560000Y-134880000D02*
X141320000Y-134880000D01*
X145560000Y-137120000D02*
X145560000Y-134880000D01*
%TO.C,L3*%
X161390000Y-121163748D02*
X161390000Y-121686252D01*
X163610000Y-121163748D02*
X163610000Y-121686252D01*
%TO.C,L2*%
X154140000Y-115413748D02*
X154140000Y-115936252D01*
X156360000Y-115413748D02*
X156360000Y-115936252D01*
%TO.C,U2*%
X158304000Y-134129000D02*
X159704000Y-134129000D01*
X159704000Y-131809000D02*
X157804000Y-131809000D01*
%TO.C,U1*%
X159650000Y-123993000D02*
X157200000Y-123993000D01*
X157850000Y-127213000D02*
X159650000Y-127213000D01*
%TO.C,R4*%
X148484000Y-114239064D02*
X148484000Y-112784936D01*
X146664000Y-114239064D02*
X146664000Y-112784936D01*
%TO.C,R3*%
X128757000Y-112149936D02*
X128757000Y-113604064D01*
X130577000Y-112149936D02*
X130577000Y-113604064D01*
%TO.C,Q1*%
X135110000Y-113848000D02*
X133650000Y-113848000D01*
X135110000Y-110688000D02*
X132950000Y-110688000D01*
X135110000Y-110688000D02*
X135110000Y-111618000D01*
X135110000Y-113848000D02*
X135110000Y-112918000D01*
%TO.C,L1*%
X155189758Y-123060000D02*
X156010242Y-123060000D01*
X155189758Y-121940000D02*
X156010242Y-121940000D01*
%TO.C,J4*%
X156025000Y-137458000D02*
X156025000Y-141788000D01*
X157245000Y-137458000D02*
X157245000Y-141788000D01*
X152425000Y-137458000D02*
X152425000Y-141788000D01*
X153645000Y-137458000D02*
X153645000Y-141788000D01*
%TO.C,C6*%
X153847748Y-134577500D02*
X155270252Y-134577500D01*
X153847748Y-132757500D02*
X155270252Y-132757500D01*
%TO.C,C5*%
X163160000Y-126773752D02*
X163160000Y-125351248D01*
X161340000Y-126773752D02*
X161340000Y-125351248D01*
%TO.C,C4*%
X140314000Y-124549248D02*
X140314000Y-125971752D01*
X142134000Y-124549248D02*
X142134000Y-125971752D01*
%TO.C,C3*%
X159273752Y-129011000D02*
X157851248Y-129011000D01*
X159273752Y-130831000D02*
X157851248Y-130831000D01*
%TO.C,C2*%
X135488000Y-124472248D02*
X135488000Y-125894752D01*
X137308000Y-124472248D02*
X137308000Y-125894752D01*
%TO.C,C1*%
X153141000Y-125361248D02*
X153141000Y-126783752D01*
X154961000Y-125361248D02*
X154961000Y-126783752D01*
%TO.C,BT1*%
X141906000Y-155639000D02*
X141906000Y-152139000D01*
X131366000Y-157719000D02*
X130736000Y-157719000D01*
X139826000Y-157719000D02*
X137366000Y-157719000D01*
X131366000Y-136159000D02*
X130736000Y-136159000D01*
X139826000Y-136159000D02*
X137366000Y-136159000D01*
X130736000Y-157719000D02*
X126786000Y-156279000D01*
X141906000Y-155639000D02*
X139826000Y-157719000D01*
X141906000Y-141739000D02*
X141906000Y-138239000D01*
X141906000Y-138239000D02*
X139826000Y-136159000D01*
X130736000Y-136159000D02*
X126786000Y-137599000D01*
X126777831Y-156264244D02*
G75*
G02*
X125816000Y-152939000I738169J2015244D01*
G01*
X125799470Y-140935646D02*
G75*
G02*
X126786000Y-137599000I1716530J1306646D01*
G01*
%TO.C,D1*%
D12*
X142701904Y-138572380D02*
X142701904Y-137572380D01*
X142940000Y-137572380D01*
X143082857Y-137620000D01*
X143178095Y-137715238D01*
X143225714Y-137810476D01*
X143273333Y-138000952D01*
X143273333Y-138143809D01*
X143225714Y-138334285D01*
X143178095Y-138429523D01*
X143082857Y-138524761D01*
X142940000Y-138572380D01*
X142701904Y-138572380D01*
X144225714Y-138572380D02*
X143654285Y-138572380D01*
X143940000Y-138572380D02*
X143940000Y-137572380D01*
X143844761Y-137715238D01*
X143749523Y-137810476D01*
X143654285Y-137858095D01*
X146988095Y-138252380D02*
X146988095Y-137252380D01*
X147559523Y-138252380D02*
X147130952Y-137680952D01*
X147559523Y-137252380D02*
X146988095Y-137823809D01*
%TO.C,L3*%
X165002380Y-121591666D02*
X165002380Y-122067857D01*
X164002380Y-122067857D01*
X164002380Y-121353571D02*
X164002380Y-120734523D01*
X164383333Y-121067857D01*
X164383333Y-120925000D01*
X164430952Y-120829761D01*
X164478571Y-120782142D01*
X164573809Y-120734523D01*
X164811904Y-120734523D01*
X164907142Y-120782142D01*
X164954761Y-120829761D01*
X165002380Y-120925000D01*
X165002380Y-121210714D01*
X164954761Y-121305952D01*
X164907142Y-121353571D01*
%TO.C,L2*%
X157752380Y-115841666D02*
X157752380Y-116317857D01*
X156752380Y-116317857D01*
X156847619Y-115555952D02*
X156800000Y-115508333D01*
X156752380Y-115413095D01*
X156752380Y-115175000D01*
X156800000Y-115079761D01*
X156847619Y-115032142D01*
X156942857Y-114984523D01*
X157038095Y-114984523D01*
X157180952Y-115032142D01*
X157752380Y-115603571D01*
X157752380Y-114984523D01*
%TO.C,U2*%
X161313880Y-134937404D02*
X162123404Y-134937404D01*
X162218642Y-134889785D01*
X162266261Y-134842166D01*
X162313880Y-134746928D01*
X162313880Y-134556452D01*
X162266261Y-134461214D01*
X162218642Y-134413595D01*
X162123404Y-134365976D01*
X161313880Y-134365976D01*
X161409119Y-133937404D02*
X161361500Y-133889785D01*
X161313880Y-133794547D01*
X161313880Y-133556452D01*
X161361500Y-133461214D01*
X161409119Y-133413595D01*
X161504357Y-133365976D01*
X161599595Y-133365976D01*
X161742452Y-133413595D01*
X162313880Y-133985023D01*
X162313880Y-133365976D01*
%TO.C,U1*%
X157988095Y-122155380D02*
X157988095Y-122964904D01*
X158035714Y-123060142D01*
X158083333Y-123107761D01*
X158178571Y-123155380D01*
X158369047Y-123155380D01*
X158464285Y-123107761D01*
X158511904Y-123060142D01*
X158559523Y-122964904D01*
X158559523Y-122155380D01*
X159559523Y-123155380D02*
X158988095Y-123155380D01*
X159273809Y-123155380D02*
X159273809Y-122155380D01*
X159178571Y-122298238D01*
X159083333Y-122393476D01*
X158988095Y-122441095D01*
%TO.C,R4*%
X149931380Y-113704666D02*
X149455190Y-114038000D01*
X149931380Y-114276095D02*
X148931380Y-114276095D01*
X148931380Y-113895142D01*
X148979000Y-113799904D01*
X149026619Y-113752285D01*
X149121857Y-113704666D01*
X149264714Y-113704666D01*
X149359952Y-113752285D01*
X149407571Y-113799904D01*
X149455190Y-113895142D01*
X149455190Y-114276095D01*
X149264714Y-112847523D02*
X149931380Y-112847523D01*
X148883761Y-113085619D02*
X149598047Y-113323714D01*
X149598047Y-112704666D01*
%TO.C,R3*%
X131939380Y-113043666D02*
X131463190Y-113377000D01*
X131939380Y-113615095D02*
X130939380Y-113615095D01*
X130939380Y-113234142D01*
X130987000Y-113138904D01*
X131034619Y-113091285D01*
X131129857Y-113043666D01*
X131272714Y-113043666D01*
X131367952Y-113091285D01*
X131415571Y-113138904D01*
X131463190Y-113234142D01*
X131463190Y-113615095D01*
X130939380Y-112710333D02*
X130939380Y-112091285D01*
X131320333Y-112424619D01*
X131320333Y-112281761D01*
X131367952Y-112186523D01*
X131415571Y-112138904D01*
X131510809Y-112091285D01*
X131748904Y-112091285D01*
X131844142Y-112138904D01*
X131891761Y-112186523D01*
X131939380Y-112281761D01*
X131939380Y-112567476D01*
X131891761Y-112662714D01*
X131844142Y-112710333D01*
%TO.C,Q1*%
X137898119Y-112363238D02*
X137850500Y-112458476D01*
X137755261Y-112553714D01*
X137612404Y-112696571D01*
X137564785Y-112791809D01*
X137564785Y-112887047D01*
X137802880Y-112839428D02*
X137755261Y-112934666D01*
X137660023Y-113029904D01*
X137469547Y-113077523D01*
X137136214Y-113077523D01*
X136945738Y-113029904D01*
X136850500Y-112934666D01*
X136802880Y-112839428D01*
X136802880Y-112648952D01*
X136850500Y-112553714D01*
X136945738Y-112458476D01*
X137136214Y-112410857D01*
X137469547Y-112410857D01*
X137660023Y-112458476D01*
X137755261Y-112553714D01*
X137802880Y-112648952D01*
X137802880Y-112839428D01*
X137802880Y-111458476D02*
X137802880Y-112029904D01*
X137802880Y-111744190D02*
X136802880Y-111744190D01*
X136945738Y-111839428D01*
X137040976Y-111934666D01*
X137088595Y-112029904D01*
%TO.C,L1*%
X154333333Y-121202380D02*
X153857142Y-121202380D01*
X153857142Y-120202380D01*
X155190476Y-121202380D02*
X154619047Y-121202380D01*
X154904761Y-121202380D02*
X154904761Y-120202380D01*
X154809523Y-120345238D01*
X154714285Y-120440476D01*
X154619047Y-120488095D01*
%TO.C,J4*%
X154328880Y-139238833D02*
X155043166Y-139238833D01*
X155186023Y-139286452D01*
X155281261Y-139381690D01*
X155328880Y-139524547D01*
X155328880Y-139619785D01*
X154662214Y-138334071D02*
X155328880Y-138334071D01*
X154281261Y-138572166D02*
X154995547Y-138810261D01*
X154995547Y-138191214D01*
%TO.C,C6*%
X154583333Y-132107142D02*
X154535714Y-132154761D01*
X154392857Y-132202380D01*
X154297619Y-132202380D01*
X154154761Y-132154761D01*
X154059523Y-132059523D01*
X154011904Y-131964285D01*
X153964285Y-131773809D01*
X153964285Y-131630952D01*
X154011904Y-131440476D01*
X154059523Y-131345238D01*
X154154761Y-131250000D01*
X154297619Y-131202380D01*
X154392857Y-131202380D01*
X154535714Y-131250000D01*
X154583333Y-131297619D01*
X155440476Y-131202380D02*
X155250000Y-131202380D01*
X155154761Y-131250000D01*
X155107142Y-131297619D01*
X155011904Y-131440476D01*
X154964285Y-131630952D01*
X154964285Y-132011904D01*
X155011904Y-132107142D01*
X155059523Y-132154761D01*
X155154761Y-132202380D01*
X155345238Y-132202380D01*
X155440476Y-132154761D01*
X155488095Y-132107142D01*
X155535714Y-132011904D01*
X155535714Y-131773809D01*
X155488095Y-131678571D01*
X155440476Y-131630952D01*
X155345238Y-131583333D01*
X155154761Y-131583333D01*
X155059523Y-131630952D01*
X155011904Y-131678571D01*
X154964285Y-131773809D01*
%TO.C,C5*%
X164702642Y-126000166D02*
X164750261Y-126047785D01*
X164797880Y-126190642D01*
X164797880Y-126285880D01*
X164750261Y-126428738D01*
X164655023Y-126523976D01*
X164559785Y-126571595D01*
X164369309Y-126619214D01*
X164226452Y-126619214D01*
X164035976Y-126571595D01*
X163940738Y-126523976D01*
X163845500Y-126428738D01*
X163797880Y-126285880D01*
X163797880Y-126190642D01*
X163845500Y-126047785D01*
X163893119Y-126000166D01*
X163797880Y-125095404D02*
X163797880Y-125571595D01*
X164274071Y-125619214D01*
X164226452Y-125571595D01*
X164178833Y-125476357D01*
X164178833Y-125238261D01*
X164226452Y-125143023D01*
X164274071Y-125095404D01*
X164369309Y-125047785D01*
X164607404Y-125047785D01*
X164702642Y-125095404D01*
X164750261Y-125143023D01*
X164797880Y-125238261D01*
X164797880Y-125476357D01*
X164750261Y-125571595D01*
X164702642Y-125619214D01*
%TO.C,C4*%
X143431142Y-125427166D02*
X143478761Y-125474785D01*
X143526380Y-125617642D01*
X143526380Y-125712880D01*
X143478761Y-125855738D01*
X143383523Y-125950976D01*
X143288285Y-125998595D01*
X143097809Y-126046214D01*
X142954952Y-126046214D01*
X142764476Y-125998595D01*
X142669238Y-125950976D01*
X142574000Y-125855738D01*
X142526380Y-125712880D01*
X142526380Y-125617642D01*
X142574000Y-125474785D01*
X142621619Y-125427166D01*
X142859714Y-124570023D02*
X143526380Y-124570023D01*
X142478761Y-124808119D02*
X143193047Y-125046214D01*
X143193047Y-124427166D01*
%TO.C,C3*%
X162323642Y-131167166D02*
X162371261Y-131214785D01*
X162418880Y-131357642D01*
X162418880Y-131452880D01*
X162371261Y-131595738D01*
X162276023Y-131690976D01*
X162180785Y-131738595D01*
X161990309Y-131786214D01*
X161847452Y-131786214D01*
X161656976Y-131738595D01*
X161561738Y-131690976D01*
X161466500Y-131595738D01*
X161418880Y-131452880D01*
X161418880Y-131357642D01*
X161466500Y-131214785D01*
X161514119Y-131167166D01*
X161418880Y-130833833D02*
X161418880Y-130214785D01*
X161799833Y-130548119D01*
X161799833Y-130405261D01*
X161847452Y-130310023D01*
X161895071Y-130262404D01*
X161990309Y-130214785D01*
X162228404Y-130214785D01*
X162323642Y-130262404D01*
X162371261Y-130310023D01*
X162418880Y-130405261D01*
X162418880Y-130690976D01*
X162371261Y-130786214D01*
X162323642Y-130833833D01*
%TO.C,C2*%
X138605142Y-125350166D02*
X138652761Y-125397785D01*
X138700380Y-125540642D01*
X138700380Y-125635880D01*
X138652761Y-125778738D01*
X138557523Y-125873976D01*
X138462285Y-125921595D01*
X138271809Y-125969214D01*
X138128952Y-125969214D01*
X137938476Y-125921595D01*
X137843238Y-125873976D01*
X137748000Y-125778738D01*
X137700380Y-125635880D01*
X137700380Y-125540642D01*
X137748000Y-125397785D01*
X137795619Y-125350166D01*
X137795619Y-124969214D02*
X137748000Y-124921595D01*
X137700380Y-124826357D01*
X137700380Y-124588261D01*
X137748000Y-124493023D01*
X137795619Y-124445404D01*
X137890857Y-124397785D01*
X137986095Y-124397785D01*
X138128952Y-124445404D01*
X138700380Y-125016833D01*
X138700380Y-124397785D01*
%TO.C,C1*%
X156258142Y-126239166D02*
X156305761Y-126286785D01*
X156353380Y-126429642D01*
X156353380Y-126524880D01*
X156305761Y-126667738D01*
X156210523Y-126762976D01*
X156115285Y-126810595D01*
X155924809Y-126858214D01*
X155781952Y-126858214D01*
X155591476Y-126810595D01*
X155496238Y-126762976D01*
X155401000Y-126667738D01*
X155353380Y-126524880D01*
X155353380Y-126429642D01*
X155401000Y-126286785D01*
X155448619Y-126239166D01*
X156353380Y-125286785D02*
X156353380Y-125858214D01*
X156353380Y-125572500D02*
X155353380Y-125572500D01*
X155496238Y-125667738D01*
X155591476Y-125762976D01*
X155639095Y-125858214D01*
%TO.C,BT1*%
X122674071Y-147788214D02*
X122721690Y-147645357D01*
X122769309Y-147597738D01*
X122864547Y-147550119D01*
X123007404Y-147550119D01*
X123102642Y-147597738D01*
X123150261Y-147645357D01*
X123197880Y-147740595D01*
X123197880Y-148121547D01*
X122197880Y-148121547D01*
X122197880Y-147788214D01*
X122245500Y-147692976D01*
X122293119Y-147645357D01*
X122388357Y-147597738D01*
X122483595Y-147597738D01*
X122578833Y-147645357D01*
X122626452Y-147692976D01*
X122674071Y-147788214D01*
X122674071Y-148121547D01*
X122197880Y-147264404D02*
X122197880Y-146692976D01*
X123197880Y-146978690D02*
X122197880Y-146978690D01*
X123197880Y-145835833D02*
X123197880Y-146407261D01*
X123197880Y-146121547D02*
X122197880Y-146121547D01*
X122340738Y-146216785D01*
X122435976Y-146312023D01*
X122483595Y-146407261D01*
%TD*%
M02*
